<svg width="100" height="100" viewBox="0 0 100 100" fill="none" xmlns="http://www.w3.org/2000/svg">
<g clip-path="url(#clip0_2200_37)">
<path d="M97.0292 42.4449C97.0408 42.4316 97.0442 42.4133 97.0558 42.3983C99.1043 40.0978 100.157 37.0789 99.9824 34.0035C99.808 30.9282 98.4211 28.0475 96.1258 25.9933L96.1125 25.9749L96.0958 25.9616C96.4692 25.4226 96.7992 24.8547 97.0825 24.2633C97.2284 23.9823 97.3575 23.6929 97.4691 23.3966C98.0213 21.9376 98.314 20.3932 98.3342 18.8333C98.3306 15.5192 97.0125 12.3418 94.6691 9.99834C92.3256 7.6549 89.1483 6.33681 85.8342 6.33328C85.5342 6.33328 85.2158 6.35161 84.8975 6.36995C84.6253 6.39169 84.354 6.42338 84.0842 6.46495C83.3946 6.55562 82.7142 6.70619 82.0508 6.91495L82.0292 6.88828C82.0292 6.88828 82.0125 6.87828 82.0058 6.86995C80.161 4.80258 77.636 3.46525 74.8892 3.10073C72.1425 2.73621 69.356 3.36866 67.0358 4.88328C66.9875 4.90995 66.9341 4.91328 66.8875 4.94495C66.8408 4.97661 66.7775 5.03161 66.7208 5.07161C66.7058 5.08161 66.6892 5.08828 66.6758 5.09828C66.1114 4.69941 65.5104 4.35509 64.8808 4.06995C63.3721 3.37506 61.7324 3.01036 60.0714 3.00022C58.4104 2.99008 56.7663 3.33475 55.2492 4.01116C53.7322 4.68758 52.377 5.68015 51.2744 6.92248C50.1719 8.16481 49.3473 9.62826 48.8558 11.2149C46.1838 8.57816 43.0172 6.49523 39.5378 5.0858C36.0585 3.67636 32.335 2.96818 28.5812 3.00194C24.8273 3.03571 21.1172 3.81074 17.6637 5.28253C14.2103 6.75431 11.0816 8.89386 8.45748 11.5783C3.04348 17.0871 0.00976562 24.5019 0.00976562 32.2258C0.00976562 39.9496 3.04348 47.3645 8.45748 52.8733L47.4158 92.2799C47.7219 92.5808 48.1002 92.7978 48.5144 92.91C48.9287 93.0223 49.3648 93.026 49.7809 92.9209C50.197 92.8157 50.579 92.6052 50.8901 92.3097C51.2013 92.0141 51.4311 91.6434 51.5575 91.2333C51.5742 91.2449 51.5875 91.26 51.6042 91.2733C52.8366 92.2217 54.3102 92.8058 55.8578 92.9593C57.4054 93.1128 58.965 92.8295 60.3598 92.1417C61.7546 91.4538 62.9287 90.3889 63.749 89.0677C64.5693 87.7464 65.003 86.2218 65.0008 84.6666C68.0938 84.6626 71.0589 83.4322 73.246 81.2451C75.4331 79.0581 76.6635 76.0929 76.6675 72.9999C79.7605 72.996 82.7256 71.7655 84.9127 69.5785C87.0997 67.3914 88.3302 64.4263 88.3342 61.3333V61.215C88.3725 61.215 88.4108 61.1983 88.4492 61.1933C88.4875 61.1883 88.5358 61.1933 88.5825 61.1816C88.6291 61.1699 88.6375 61.1566 88.6692 61.1499C91.3729 60.6771 93.8236 59.2669 95.5911 57.1669C97.3586 55.0669 98.3297 52.4114 98.3342 49.6666C98.3338 49.287 98.3143 48.9076 98.2758 48.5299C98.1556 47.3026 97.8428 46.1018 97.3492 44.9716C97.0588 44.3369 96.7275 43.7217 96.3575 43.1299C96.5341 42.9633 96.6908 42.7816 96.8575 42.6049C96.9125 42.5483 96.9775 42.4999 97.0292 42.4449ZM48.3342 88.4683L10.8342 50.5299C6.03404 45.6463 3.34427 39.0726 3.34427 32.2249C3.34427 25.3773 6.03404 18.8036 10.8342 13.9199C13.1815 11.518 15.9853 9.60947 19.0807 8.30643C22.1761 7.0034 25.5007 6.33216 28.8592 6.33216C32.2176 6.33216 35.5422 7.0034 38.6376 8.30643C41.733 9.60947 44.5368 11.518 46.8842 13.9199L48.3375 15.3933V88.4683H48.3342ZM94.3042 46.3333C94.6522 47.1382 94.8731 47.9922 94.9592 48.8649V48.8866C94.986 49.1458 94.9999 49.4061 95.0008 49.6666C94.996 50.7662 94.7746 51.8541 94.3492 52.8681C93.9238 53.882 93.3028 54.8023 92.5216 55.5762C91.7405 56.35 90.8145 56.9624 89.7965 57.3783C88.7786 57.7942 87.6887 58.0054 86.5891 57.9999C84.9398 57.9893 83.3313 57.4856 81.9704 56.5537C80.6096 55.6217 79.5586 54.304 78.9525 52.7699C81.1955 52.2875 83.2031 51.0453 84.6358 49.2533C84.9121 48.9081 85.0399 48.4672 84.9911 48.0278C84.9424 47.5883 84.721 47.1862 84.3758 46.9099C84.0306 46.6337 83.5898 46.5059 83.1503 46.5546C82.7108 46.6034 82.3088 46.8247 82.0325 47.1699C80.9281 48.5501 79.3208 49.4351 77.564 49.6304C75.8072 49.8258 74.0447 49.3154 72.6641 48.2116C72.4931 48.0748 72.2968 47.9731 72.0864 47.9121C71.876 47.8512 71.6557 47.8323 71.438 47.8565C71.2204 47.8808 71.0096 47.9476 70.8178 48.0533C70.6259 48.159 70.4568 48.3014 70.32 48.4724C70.1832 48.6435 70.0814 48.8398 70.0205 49.0502C69.9596 49.2606 69.9407 49.4809 69.9649 49.6986C69.9891 49.9162 70.056 50.127 70.1617 50.3188C70.2673 50.5107 70.4098 50.6798 70.5808 50.8166C71.9909 51.9395 73.6803 52.6568 75.4675 52.8916C76.077 55.0521 77.3017 56.9888 78.9922 58.4657C80.6828 59.9426 82.7664 60.8961 84.9892 61.2099C84.9892 61.2549 85.0008 61.295 85.0008 61.34C84.9982 63.5493 84.1193 65.6674 82.5571 67.2296C80.9949 68.7918 78.8768 69.6706 76.6675 69.6733C76.4791 69.6733 76.3342 69.6383 76.1508 69.6283C75.6558 68.0166 74.8209 66.5299 73.7025 65.2683C72.5841 64.0067 71.2082 62.9996 69.6675 62.3149C70.9665 60.5914 71.6686 58.4915 71.6675 56.3333C71.6675 55.8913 71.4919 55.4673 71.1793 55.1548C70.8668 54.8422 70.4428 54.6666 70.0008 54.6666C69.5588 54.6666 69.1349 54.8422 68.8223 55.1548C68.5097 55.4673 68.3342 55.8913 68.3342 56.3333C68.3342 58.1014 67.6318 59.7971 66.3815 61.0473C65.1313 62.2976 63.4356 62.9999 61.6675 62.9999C61.2255 62.9999 60.8015 63.1755 60.489 63.4881C60.1764 63.8007 60.0008 64.2246 60.0008 64.6666C60.0008 65.1086 60.1764 65.5326 60.489 65.8451C60.8015 66.1577 61.2255 66.3333 61.6675 66.3333C63.4772 66.3321 65.2523 65.8365 66.8008 64.8999C68.8043 65.3397 70.5744 66.5046 71.7709 68.1706C72.9674 69.8367 73.5057 71.8862 73.2824 73.9251C73.059 75.9641 72.0898 77.8485 70.5611 79.216C69.0323 80.5835 67.052 81.3376 65.0008 81.3333C64.519 81.3272 64.0385 81.2815 63.5642 81.1966C62.4332 81.0034 61.3549 80.5772 60.3975 79.9449C60.0293 79.7003 59.579 79.6119 59.1456 79.6993C58.7122 79.7866 58.3313 80.0426 58.0867 80.4108C57.842 80.779 57.7536 81.2293 57.841 81.6627C57.9283 82.096 58.1843 82.4769 58.5525 82.7216C59.5037 83.3548 60.5433 83.844 61.6375 84.1733C61.6525 84.3399 61.6708 84.4966 61.6708 84.6733C61.673 85.608 61.4126 86.5246 60.9191 87.3184C60.4256 88.1123 59.7191 88.7516 58.8799 89.1633C58.0407 89.5751 57.1028 89.7428 56.1729 89.6473C55.2431 89.5518 54.3588 89.197 53.6208 88.6233C53.0075 88.1634 52.5111 87.5655 52.1718 86.8782C51.8324 86.1908 51.6597 85.4332 51.6675 84.6666V14.6666C51.6668 13.2671 52.0186 11.89 52.6904 10.6623C53.3623 9.43459 54.3325 8.39586 55.5115 7.64192C56.6906 6.88799 58.0405 6.44314 59.4368 6.34842C60.8331 6.2537 62.2307 6.51216 63.5008 7.09995C63.7337 7.21395 63.9606 7.33967 64.1808 7.47661C62.8581 9.14732 62.0208 11.1499 61.7608 13.2649C60.5782 13.5214 59.4921 14.1067 58.6275 14.9533C58.4683 15.107 58.3413 15.2909 58.254 15.4943C58.1666 15.6976 58.1207 15.9163 58.1187 16.1376C58.1168 16.3589 58.159 16.5784 58.2428 16.7832C58.3266 16.988 58.4503 17.1741 58.6068 17.3306C58.7633 17.4871 58.9494 17.6108 59.1542 17.6947C59.3591 17.7785 59.5785 17.8206 59.7998 17.8187C60.0211 17.8168 60.2398 17.7708 60.4432 17.6834C60.6465 17.5961 60.8304 17.4691 60.9841 17.3099C61.6189 16.7036 62.463 16.3652 63.3408 16.3652C64.2187 16.3652 65.0627 16.7036 65.6975 17.3099C65.8512 17.4691 66.0351 17.5961 66.2385 17.6834C66.4418 17.7708 66.6605 17.8168 66.8818 17.8187C67.1031 17.8206 67.3226 17.7785 67.5274 17.6947C67.7322 17.6108 67.9183 17.4871 68.0748 17.3306C68.2313 17.1741 68.355 16.988 68.4389 16.7832C68.5227 16.5784 68.5648 16.3589 68.5629 16.1376C68.561 15.9163 68.515 15.6976 68.4277 15.4943C68.3403 15.2909 68.2133 15.107 68.0542 14.9533C67.2413 14.1597 66.2317 13.597 65.1292 13.3233C65.4329 11.4541 66.3668 9.74512 67.7758 8.47995L67.7942 8.46828C69.3115 7.09321 71.2864 6.33214 73.3342 6.33328C75.5423 6.33988 77.658 7.21997 79.2194 8.78134C80.7808 10.3427 81.6609 12.4585 81.6675 14.6666C81.6675 15.1086 81.8431 15.5326 82.1556 15.8451C82.4682 16.1577 82.8921 16.3333 83.3342 16.3333C83.7762 16.3333 84.2001 16.1577 84.5127 15.8451C84.8252 15.5326 85.0008 15.1086 85.0008 14.6666C84.9983 13.0155 84.6444 11.3837 83.9625 9.87995C84.1558 9.84161 84.3458 9.79161 84.5442 9.76661C84.7425 9.74161 84.9308 9.70828 85.1175 9.69661C85.3525 9.68161 85.5992 9.66661 85.8342 9.66661C88.2644 9.6697 90.5941 10.6365 92.3126 12.3549C94.031 14.0733 94.9977 16.4031 95.0008 18.8333C94.982 20.0102 94.7563 21.1746 94.3342 22.2733C94.2592 22.46 94.1741 22.6425 94.0791 22.8199C93.8579 23.2736 93.598 23.7074 93.3025 24.1166C91.6702 23.34 89.8779 22.9587 88.0708 23.0035C86.2637 23.0484 84.4926 23.5182 82.9008 24.3749C81.5464 23.4787 79.9583 23.0006 78.3342 22.9999C77.8921 22.9999 77.4682 23.1755 77.1556 23.4881C76.8431 23.8007 76.6675 24.2246 76.6675 24.6666C76.6675 25.1086 76.8431 25.5326 77.1556 25.8451C77.4682 26.1577 77.8921 26.3333 78.3342 26.3333C79.6602 26.3333 80.932 26.8601 81.8697 27.7977C82.8074 28.7354 83.3342 30.0072 83.3342 31.3333C83.3342 31.7753 83.5097 32.1992 83.8223 32.5118C84.1349 32.8244 84.5588 32.9999 85.0008 32.9999C85.4428 32.9999 85.8668 32.8244 86.1793 32.5118C86.4919 32.1992 86.6675 31.7753 86.6675 31.3333C86.663 29.7694 86.2145 28.2389 85.3742 26.9199C86.7804 26.4011 88.2987 26.2629 89.7754 26.5193C91.2522 26.7756 92.6351 27.4175 93.7841 28.3799C94.6342 29.1112 95.327 30.0073 95.8207 31.0141C96.3144 32.0208 96.5986 33.1173 96.6563 34.2371C96.7139 35.3569 96.5438 36.4768 96.1561 37.5289C95.7684 38.5811 95.1713 39.5436 94.4008 40.3583C94.1716 40.6012 93.9284 40.8304 93.6725 41.0449C93.553 41.1432 93.4313 41.2388 93.3075 41.3316C92.2534 42.1257 91.0259 42.6581 89.7258 42.8849C89.314 42.9546 88.9434 43.1763 88.6873 43.5062C88.4311 43.836 88.3082 44.2501 88.3428 44.6663C88.3773 45.0825 88.5669 45.4705 88.874 45.7536C89.181 46.0367 89.5832 46.1942 90.0008 46.1949C90.0935 46.1954 90.1861 46.1876 90.2775 46.1716C91.4285 45.9686 92.5422 45.5927 93.5808 45.0566C93.8925 45.5766 94.2142 46.1449 94.3042 46.3333Z" fill="url(#paint0_linear_2200_37)"/>
<path d="M68.3342 29.6666C65.2412 29.6706 62.276 30.901 60.089 33.0881C57.9019 35.2752 56.6715 38.2403 56.6675 41.3333C56.6675 41.7753 56.8431 42.1992 57.1556 42.5118C57.4682 42.8244 57.8921 42.9999 58.3342 42.9999C58.7762 42.9999 59.2001 42.8244 59.5127 42.5118C59.8252 42.1992 60.0008 41.7753 60.0008 41.3333C60.0035 39.124 60.8823 37.0059 62.4445 35.4436C64.0068 33.8814 66.1248 33.0026 68.3342 32.9999C68.7762 32.9999 69.2001 32.8244 69.5127 32.5118C69.8252 32.1992 70.0008 31.7753 70.0008 31.3333C70.0008 30.8913 69.8252 30.4673 69.5127 30.1548C69.2001 29.8422 68.7762 29.6666 68.3342 29.6666ZM28.8542 9.66661C25.9339 9.66283 23.0426 10.2452 20.3515 11.3791C17.6605 12.5131 15.2243 14.1757 13.1875 16.2683C9.22241 20.2812 6.90047 25.6313 6.67748 31.2683C6.66878 31.4873 6.70338 31.7059 6.77929 31.9116C6.85521 32.1172 6.97094 32.3059 7.11988 32.4668C7.26882 32.6276 7.44802 32.7575 7.64723 32.849C7.84645 32.9405 8.06175 32.9918 8.28082 32.9999H8.35248C8.78265 33.0003 9.1963 32.8344 9.50692 32.5368C9.81754 32.2392 10.0011 31.8331 10.0191 31.4033C10.2092 26.5948 12.19 22.0311 15.5725 18.6083C17.299 16.8331 19.3639 15.4221 21.6452 14.4588C23.9265 13.4955 26.3778 12.9994 28.8542 12.9999C29.2962 12.9999 29.7201 12.8244 30.0327 12.5118C30.3452 12.1992 30.5208 11.7753 30.5208 11.3333C30.5208 10.8913 30.3452 10.4673 30.0327 10.1548C29.7201 9.84221 29.2962 9.66661 28.8542 9.66661ZM10.7341 37.5483C10.6808 37.3312 10.5842 37.1271 10.4503 36.9481C10.3164 36.7691 10.1479 36.6188 9.9547 36.5063C9.76153 36.3937 9.5477 36.3212 9.32593 36.293C9.10416 36.2648 8.87899 36.2815 8.66381 36.3422C8.44863 36.4028 8.24784 36.5061 8.0734 36.6459C7.89896 36.7857 7.75443 36.9591 7.64841 37.156C7.54239 37.3528 7.47705 37.5689 7.45627 37.7915C7.4355 38.0141 7.45971 38.2386 7.52748 38.4516C7.69859 39.0594 7.89526 39.6599 8.11748 40.2533C8.23681 40.5706 8.45007 40.844 8.7288 41.0369C9.00753 41.2299 9.33848 41.3333 9.67748 41.3333C9.87765 41.3326 10.0762 41.2971 10.2641 41.2283C10.4692 41.1512 10.6571 41.0345 10.817 40.8849C10.9769 40.7352 11.1058 40.5554 11.1962 40.3559C11.2866 40.1564 11.3367 39.941 11.3438 39.722C11.3509 39.5031 11.3148 39.2849 11.2375 39.0799C11.0475 38.5766 10.8808 38.0633 10.7341 37.5483Z" fill="url(#paint1_linear_2200_37)"/>
</g>
<defs>
<linearGradient id="paint0_linear_2200_37" x1="100.001" y1="2.99999" x2="10.4976" y2="102.44" gradientUnits="userSpaceOnUse">
<stop stop-color="#DAC597"/>
<stop offset="0.50272" stop-color="#ECDDBE"/>
<stop offset="1" stop-color="#977F50"/>
</linearGradient>
<linearGradient id="paint1_linear_2200_37" x1="100.001" y1="2.99999" x2="10.4976" y2="102.44" gradientUnits="userSpaceOnUse">
<stop stop-color="#DAC597"/>
<stop offset="0.50272" stop-color="#ECDDBE"/>
<stop offset="1" stop-color="#977F50"/>
</linearGradient>
<clipPath id="clip0_2200_37">
<rect width="100" height="100" fill="white"/>
</clipPath>
</defs>
</svg>
