<svg width="117" height="14" viewBox="0 0 117 14" fill="none" xmlns="http://www.w3.org/2000/svg">
<g clip-path="url(#clip0_2043_1896)">
<path fill-rule="evenodd" clip-rule="evenodd" d="M29.2765 7C29.2765 8.21085 29.0492 9.25806 28.5945 10.1417C28.1399 11.0187 27.5155 11.7452 26.7215 12.3212C25.9276 12.8906 24.991 13.3128 23.912 13.5877C22.833 13.8626 21.6692 14 20.4205 14C19.1651 14 17.9944 13.8626 16.9086 13.5877C15.8228 13.3128 14.8795 12.8906 14.0787 12.3212C13.2779 11.7452 12.6503 11.0187 12.1955 10.1417C11.7409 9.25806 11.5135 8.21085 11.5135 7C11.5135 6.19495 11.6187 5.46517 11.8291 4.81066C12.0395 4.1496 12.3347 3.56054 12.7147 3.04348C13.0947 2.51987 13.5528 2.06826 14.0889 1.68864C14.6318 1.30902 15.2324 0.994857 15.8906 0.746143C16.5558 0.490884 17.2683 0.304348 18.0283 0.186536C18.7884 0.0621786 19.5858 0 20.4205 0C21.6692 0 22.833 0.137447 23.912 0.412342C24.991 0.687237 25.9276 1.11267 26.7215 1.68864C27.5155 2.25806 28.1399 2.98457 28.5945 3.86816C29.0492 4.74521 29.2765 5.78915 29.2765 7ZM27.9634 7C27.9634 6.04441 27.8006 5.20009 27.4748 4.46704C27.1558 3.73399 26.6808 3.11875 26.0496 2.62132C25.4186 2.11734 24.6314 1.73773 23.688 1.48247C22.7516 1.22066 21.6623 1.08976 20.4205 1.08976C19.1786 1.08976 18.0826 1.22066 17.1326 1.48247C16.1893 1.74427 15.3987 2.12716 14.7607 2.63114C14.1229 3.12856 13.6411 3.74708 13.3153 4.48668C12.9896 5.21973 12.8267 6.0575 12.8267 7C12.8267 7.95559 12.9896 8.79991 13.3153 9.53296C13.6411 10.266 14.1229 10.8845 14.7607 11.3885C15.3987 11.8859 16.1893 12.2655 17.1326 12.5273C18.0826 12.7826 19.1786 12.9102 20.4205 12.9102C21.6623 12.9102 22.7516 12.7826 23.688 12.5273C24.6314 12.2655 25.4186 11.8859 26.0496 11.3885C26.6808 10.8845 27.1558 10.266 27.4748 9.53296C27.8006 8.79991 27.9634 7.95559 27.9634 7Z" fill="#868C96"/>
<path d="M1.28609 1.39379V6.03755H10.5901V7.1764H1.28609V13.7346H0.0136719V0.245117H11.0888V1.39379H1.28609Z" fill="#868C96"/>
<path fill-rule="evenodd" clip-rule="evenodd" d="M32.4082 13.7346V7.96181H38.0984C38.3089 7.96181 38.5124 7.95854 38.7093 7.95199C38.9061 7.94545 39.0994 7.93563 39.2894 7.92254L43.7989 13.7346H45.3971L40.623 7.78509C41.8445 7.56256 42.7301 7.15022 43.2798 6.54807C43.8294 5.93937 44.1043 5.13104 44.1043 4.1231C44.1043 3.47514 43.9923 2.90898 43.7684 2.42464C43.5444 1.94031 43.1882 1.53778 42.6995 1.21707C42.2177 0.889811 41.5968 0.647641 40.8368 0.490559C40.0766 0.326931 39.1639 0.245117 38.0984 0.245117H31.1358V13.7346H32.4082ZM42.4756 2.72899C42.6859 3.08243 42.7911 3.54713 42.7911 4.1231C42.7911 4.70562 42.6826 5.17359 42.4654 5.52703C42.255 5.87392 41.9089 6.14553 41.4271 6.3419C40.9453 6.53169 40.3176 6.65933 39.544 6.72479C38.7703 6.78369 37.8236 6.81314 36.7039 6.81314H32.4082V1.39379H36.7447C37.8643 1.39379 38.8076 1.42979 39.5745 1.50178C40.3481 1.56723 40.9724 1.69814 41.4475 1.89449C41.9225 2.09084 42.2652 2.36901 42.4756 2.72899Z" fill="#868C96"/>
<path d="M112.74 13.6937C114.548 13.6937 116.014 12.2556 116.014 10.4816C116.014 8.70763 114.548 7.26953 112.74 7.26953C110.932 7.26953 109.466 8.70763 109.466 10.4816C109.466 12.2556 110.932 13.6937 112.74 13.6937Z" fill="#868C96"/>
<path d="M67.2231 9.61619L63.6483 0.269531H59.4422L55.7859 9.42024L51.9973 0.269531H48.066L53.698 13.7311H57.8941L61.5401 4.67833L65.1964 13.7311H69.3925L75.0143 0.269531H71.0932L67.2231 9.61619Z" fill="#868C96"/>
<path d="M75.5508 0.269531V13.7311H89.8601V10.7695H79.3004V3.23107H89.7175V0.269531H75.5508Z" fill="#868C96"/>
<path d="M81.7031 5.38492V8.3463L86.5083 8.34645V5.38492H81.7031Z" fill="#868C96"/>
<path fill-rule="evenodd" clip-rule="evenodd" d="M107.598 10.0179C107.598 10.5404 107.527 10.9943 107.384 11.3797C107.242 11.7651 107.042 12.0982 106.783 12.379C106.532 12.6534 106.227 12.8787 105.867 13.0551C105.514 13.2249 105.12 13.362 104.686 13.4665C104.258 13.5645 103.799 13.6331 103.311 13.6723C102.822 13.7115 102.316 13.7311 101.794 13.7311H91.6391V0.269531H101.61C102.011 0.269531 102.411 0.28586 102.812 0.318518C103.218 0.351176 103.606 0.413226 103.973 0.504667C104.339 0.589578 104.679 0.710411 104.991 0.867169C105.31 1.02393 105.585 1.22967 105.816 1.4844C106.053 1.73913 106.237 2.04611 106.366 2.40535C106.502 2.76459 106.57 3.18914 106.57 3.679C106.57 4.55423 106.346 5.24984 105.898 5.76584C105.449 6.2753 104.743 6.61494 103.779 6.78476C104.458 6.83048 105.039 6.93172 105.521 7.08848C106.01 7.2387 106.406 7.44771 106.712 7.71551C107.018 7.97677 107.242 8.30008 107.384 8.68544C107.527 9.06427 107.598 9.50842 107.598 10.0179ZM102.883 4.25705C102.883 4.08723 102.856 3.9272 102.801 3.77698C102.747 3.62022 102.648 3.48306 102.506 3.36549C102.364 3.24792 102.17 3.15321 101.925 3.08137C101.681 3.00952 101.369 2.9736 100.988 2.9736H95.4176V5.50131H100.988C101.369 5.50131 101.681 5.46865 101.925 5.40334C102.17 5.33802 102.364 5.24984 102.506 5.13881C102.648 5.02777 102.747 4.89714 102.801 4.74691C102.856 4.59016 102.883 4.42687 102.883 4.25705ZM103.759 9.5966C103.759 9.28961 103.704 9.04468 103.596 8.86179C103.487 8.67238 103.318 8.52869 103.087 8.43071C102.856 8.32621 102.557 8.25763 102.19 8.22497C101.823 8.19231 101.386 8.17598 100.876 8.17598H95.4176V11.027H100.876C101.386 11.027 101.823 11.0107 102.19 10.978C102.557 10.9454 102.856 10.8768 103.087 10.7723C103.318 10.6678 103.487 10.5241 103.596 10.3412C103.704 10.1518 103.759 9.90358 103.759 9.5966Z" fill="#868C96"/>
</g>
<defs>
<clipPath id="clip0_2043_1896">
<rect width="117" height="14" fill="white"/>
</clipPath>
</defs>
</svg>
