<svg width="140" height="90" viewBox="0 0 140 90" fill="none" xmlns="http://www.w3.org/2000/svg">
<g clip-path="url(#clip0_2206_199)">
<path d="M136.99 -0.193359H2.40729C1.08009 -0.193359 0.00390625 0.864472 0.00390625 2.16936V87.2331C0.00390625 88.538 1.08009 89.5961 2.40729 89.5961H136.991C138.318 89.5961 139.394 88.538 139.394 87.2331V2.16936C139.394 0.864472 138.318 -0.193359 136.99 -0.193359Z" fill="#82C3D2"/>
<path d="M16.2046 10.5589C15.987 9.65338 15.9329 9.31959 16.3461 8.91354C16.5476 8.71546 16.5476 8.39453 16.3461 8.19645C16.1447 7.99837 15.8183 7.99837 15.6168 8.19645C14.7805 9.019 14.98 9.8726 15.1964 10.7765C14.5371 10.5648 13.8532 10.7219 13.4867 11.1764C13.3049 11.4031 12.9531 12.0391 13.6122 13.0547C13.7655 13.2905 14.0824 13.3598 14.3244 13.2104C14.5648 13.0597 14.6348 12.7458 14.4815 12.5102C14.2343 12.1277 14.227 11.8919 14.2961 11.8057C14.3778 11.7037 14.631 11.6499 14.8962 11.7423C15.0674 11.8006 15.4654 12.0027 15.4654 12.613C15.4654 13.1004 15.2362 13.5472 14.8365 13.8373C14.4361 14.1286 13.9177 14.2107 13.4181 14.0582C12.8012 13.8729 12.3703 13.234 12.3703 12.5041C12.3703 11.9818 12.4841 11.454 12.6931 10.9915C12.7264 10.9232 13.5148 9.31745 13.7179 8.71894C14.1194 7.53504 13.7113 6.93974 13.4328 6.69107C13.0601 6.35729 12.5154 6.27404 12.0466 6.47613C11.9752 6.50718 11.9164 6.55215 11.8546 6.59391C11.7928 6.55189 11.7338 6.50718 11.6627 6.47613C11.1942 6.27404 10.6497 6.35729 10.2764 6.69107C9.99792 6.93974 9.58982 7.5353 9.99138 8.71894C10.1945 9.31745 10.9826 10.9232 11.0088 10.9767C11.2247 11.4543 11.3387 11.9821 11.3387 12.5043C11.3387 13.2345 10.908 13.8732 10.2909 14.0584C9.78938 14.2107 9.27265 14.1296 8.87245 13.8376C8.4728 13.5472 8.24357 13.1007 8.24357 12.6133C8.24357 12.003 8.64159 11.8012 8.81283 11.7425C9.07882 11.6505 9.33064 11.7037 9.41286 11.806C9.48201 11.8922 9.47466 12.128 9.22746 12.5105C9.07419 12.7463 9.14415 13.0603 9.38455 13.2107C9.62685 13.3614 9.94483 13.291 10.0967 13.0549C10.7556 12.0394 10.4041 11.4037 10.2222 11.1767C9.85553 10.7222 9.17192 10.5651 8.51254 10.7768C8.72925 9.8734 8.92854 9.01927 8.0922 8.19672C7.89073 7.99864 7.56431 7.99864 7.36285 8.19672C7.16139 8.39479 7.16139 8.71573 7.36285 8.91381C7.77585 9.31986 7.72221 9.65364 7.50442 10.5592C7.37374 11.1017 7.21148 11.7784 7.21148 12.6125C7.21148 13.1674 7.40995 13.6981 7.74372 14.1342H7.72712C7.44207 14.1342 7.21121 14.3609 7.21121 14.6414C7.21121 14.9217 7.4418 15.1486 7.72712 15.1486H7.74372C7.40995 15.5847 7.21148 16.1152 7.21148 16.6701C7.21148 17.5041 7.37374 18.1808 7.50415 18.7236C7.72167 19.6292 7.77585 19.963 7.36258 20.369C7.16112 20.5671 7.16112 20.888 7.36258 21.0861C7.46331 21.1851 7.59535 21.2347 7.72739 21.2347C7.85915 21.2347 7.99147 21.1851 8.0922 21.0861C8.92854 20.2635 8.72898 19.4097 8.51254 18.506C9.17192 18.717 9.8558 18.5606 10.2222 18.1061C10.4041 17.8794 10.7558 17.2434 10.0967 16.2279C9.94401 15.9921 9.62521 15.9219 9.38455 16.0721C9.14415 16.2228 9.07419 16.5368 9.22746 16.7723C9.47466 17.1548 9.48201 17.3906 9.41286 17.4768C9.33091 17.5778 9.07882 17.6313 8.81283 17.5403C8.64159 17.4819 8.24357 17.2798 8.24357 16.6695C8.24357 16.1821 8.4728 15.7354 8.87245 15.4452C9.27293 15.154 9.79074 15.0708 10.2909 15.2244C10.9078 15.4096 11.3387 16.0485 11.3387 16.7785C11.3387 17.3007 11.2249 17.8286 11.0088 18.3061L7.62992 25.7797C7.35223 26.3937 7.21121 27.0468 7.21121 27.7192C7.21121 28.5846 7.61141 29.3748 8.24139 29.8571C7.61168 30.3395 7.21121 31.1296 7.21121 31.995C7.21121 32.6676 7.35251 33.3205 7.62992 33.9345L11.0082 41.4076C11.2241 41.8851 11.3382 42.413 11.3382 42.9352C11.3382 43.6654 10.9075 44.3041 10.2903 44.4893C9.78883 44.6429 9.27211 44.5605 8.87191 44.2685C8.47225 43.978 8.24302 43.5316 8.24302 43.0441C8.24302 42.4339 8.64104 42.232 8.81229 42.1734C9.07827 42.0821 9.3301 42.1346 9.41232 42.2369C9.48147 42.323 9.47412 42.5589 9.22692 42.9414C9.07364 43.1772 9.14361 43.4912 9.384 43.6416C9.6263 43.7923 9.94428 43.7227 10.0962 43.4858C10.755 42.4703 10.4036 41.8345 10.2217 41.6076C9.85499 41.1531 9.17138 40.9965 8.512 41.2077C8.72871 40.3043 8.92799 39.4501 8.09165 38.6276C7.89019 38.4295 7.56377 38.4295 7.36231 38.6276C7.16084 38.8257 7.16084 39.1466 7.36231 39.3447C7.7753 39.7507 7.72167 40.0845 7.50387 40.99C7.37347 41.5329 7.21121 42.2095 7.21121 43.0436C7.21121 43.5985 7.40968 44.1293 7.74345 44.5653H7.72684C7.4418 44.5653 7.21094 44.792 7.21094 45.0725C7.21094 45.3531 7.44153 45.5798 7.72684 45.5798H7.74345C7.4094 46.0158 7.21121 46.5463 7.21121 47.1015C7.21121 47.9355 7.37347 48.6122 7.50387 49.1551C7.7214 50.0606 7.77557 50.3944 7.36231 50.8004C7.16084 50.9985 7.16084 51.3194 7.36231 51.5175C7.46304 51.6165 7.59508 51.6661 7.72712 51.6661C7.85888 51.6661 7.99119 51.6165 8.09192 51.5175C8.92826 50.695 8.72871 49.8411 8.51227 48.9374C9.17165 49.1484 9.85553 48.992 10.222 48.5375C10.4038 48.3108 10.7556 47.6748 10.0965 46.6593C9.94374 46.4235 9.62494 46.3533 9.38427 46.5035C9.14388 46.6542 9.07391 46.9682 9.22719 47.2037C9.47439 47.5862 9.48174 47.8221 9.41259 47.9082C9.33064 48.0102 9.07854 48.064 8.81256 47.9717C8.64132 47.9133 8.24329 47.7112 8.24329 47.101C8.24329 46.6135 8.47252 46.1668 8.87218 45.8766C9.27265 45.5854 9.79046 45.5022 10.2906 45.6558C10.9075 45.841 11.3385 46.48 11.3385 47.2099C11.3385 47.7321 11.2247 48.26 11.0085 48.7375L7.62992 56.2119C7.35223 56.8259 7.21121 57.4791 7.21121 58.1514C7.21121 59.0168 7.61141 59.807 8.24139 60.2893C7.61168 60.7717 7.21121 61.5618 7.21121 62.4272C7.21121 63.0999 7.35251 63.7527 7.62992 64.3667L11.0082 71.8398C11.2241 72.3173 11.3382 72.8452 11.3382 73.3674C11.3382 74.0976 10.9075 74.7363 10.2903 74.9215C9.78883 75.0751 9.27211 74.9919 8.87191 74.7007C8.47225 74.4103 8.24302 73.9638 8.24302 73.4763C8.24302 72.8661 8.64104 72.6642 8.81229 72.6056C9.07827 72.5143 9.3301 72.5668 9.41232 72.6691C9.48147 72.7552 9.47412 72.9911 9.22692 73.3736C9.07364 73.6094 9.14361 73.9231 9.384 74.0738C9.6263 74.2245 9.94428 74.1549 10.0962 73.918C10.755 72.9025 10.4036 72.2667 10.2217 72.0398C9.85499 71.5839 9.17138 71.4281 8.512 71.6399C8.72871 70.7365 8.92799 69.8823 8.09165 69.0598C7.89019 68.8617 7.56377 68.8617 7.36231 69.0598C7.16084 69.2579 7.16084 69.5788 7.36231 69.7769C7.7753 70.1829 7.72167 70.5167 7.50387 71.4223C7.37347 71.9651 7.21121 72.6415 7.21121 73.4755C7.21121 74.2705 7.59862 75.0275 8.24629 75.5045C7.59862 75.9815 7.21121 76.7384 7.21121 77.5334C7.21121 78.3675 7.37347 79.0442 7.50387 79.587C7.7214 80.4923 7.77557 80.8263 7.36231 81.2324C7.16084 81.4304 7.16084 81.7514 7.36231 81.9494C7.46304 82.0485 7.59508 82.098 7.72712 82.098C7.85888 82.098 7.99119 82.0485 8.09192 81.9494C8.92826 81.1269 8.72871 80.273 8.51227 79.3694C9.17165 79.5803 9.85553 79.424 10.222 78.9695C10.4038 78.7428 10.7556 78.1068 10.0965 77.0912C9.94374 76.8554 9.62494 76.7861 9.38427 76.9354C9.14388 77.0861 9.07391 77.4001 9.22719 77.6357C9.47439 78.0182 9.48174 78.254 9.41259 78.3402C9.33064 78.4422 9.07854 78.4946 8.81256 78.4036C8.64132 78.3453 8.24329 78.1432 8.24329 77.5329C8.24329 77.0455 8.47252 76.5987 8.87218 76.3086C9.27265 76.0173 9.79046 75.9352 10.2906 76.0877C10.9075 76.273 11.3385 76.9119 11.3385 77.6418C11.3385 78.1641 11.2247 78.6919 11.0156 79.1544C10.9824 79.2227 10.1939 80.8284 9.99084 81.427C9.58928 82.6109 9.99737 83.2062 10.2759 83.4548C10.5141 83.6679 10.8209 83.7798 11.1345 83.7798C11.3123 83.7798 11.4925 83.7431 11.6624 83.67C11.7338 83.639 11.7926 83.594 11.8544 83.5523C11.9162 83.5943 11.9752 83.639 12.0463 83.67C12.2159 83.7434 12.3964 83.7798 12.5742 83.7798C12.887 83.7798 13.1944 83.6679 13.4328 83.4548C13.7113 83.2062 14.1194 82.6106 13.7179 81.427C13.5148 80.8284 12.7266 79.2227 12.7005 79.1692C12.4846 78.6916 12.3705 78.1638 12.3705 77.6416C12.3705 76.9114 12.8012 76.2724 13.4184 76.0875C13.9202 75.9349 14.4366 76.0171 14.8368 76.3083C15.2365 76.5987 15.4657 77.0452 15.4657 77.5326C15.4657 78.1429 15.0677 78.3447 14.8964 78.4034C14.6315 78.4946 14.3778 78.4422 14.2964 78.3399C14.2273 78.2537 14.2346 78.0179 14.4818 77.6354C14.6351 77.3996 14.5651 77.0859 14.3247 76.9352C14.0838 76.7866 13.7661 76.856 13.6125 77.091C12.9537 78.1065 13.3052 78.7422 13.487 78.9692C13.8537 79.4237 14.5373 79.5803 15.1967 79.3691C14.98 80.2725 14.7807 81.1266 15.6171 81.9492C15.7178 82.0482 15.8498 82.0977 15.9819 82.0977C16.1139 82.0977 16.246 82.0482 16.3467 81.9492C16.5481 81.7511 16.5481 81.4302 16.3467 81.2321C15.9337 80.826 15.9873 80.4922 16.2051 79.5867C16.3355 79.0439 16.4978 78.3672 16.4978 77.5332C16.4978 76.7382 16.1104 75.9812 15.4627 75.5042C16.1104 75.0272 16.4978 74.2705 16.4978 73.4753C16.4978 72.6412 16.3355 71.9646 16.2051 71.4217C15.9876 70.5165 15.9334 70.1824 16.3467 69.7763C16.5481 69.5783 16.5481 69.2573 16.3467 69.0593C16.1452 68.8612 15.8188 68.8612 15.6173 69.0593C14.781 69.8818 14.9806 70.7354 15.197 71.6393C14.5376 71.4276 13.8537 71.5834 13.4873 72.0392C13.3054 72.2659 12.9537 72.9019 13.6128 73.9175C13.7661 74.1533 14.083 74.2226 14.325 74.0733C14.5654 73.9226 14.6353 73.6086 14.4821 73.373C14.2349 72.9905 14.2275 72.7547 14.2967 72.6685C14.3783 72.5665 14.6315 72.5141 14.8967 72.6051C15.0679 72.6634 15.466 72.8655 15.466 73.4758C15.466 73.9632 15.2367 74.41 14.8371 74.7001C14.4366 74.9914 13.9183 75.0746 13.4187 74.921C12.8018 74.7357 12.3708 74.0968 12.3708 73.3669C12.3708 72.8446 12.4846 72.3168 12.7008 71.8393L16.0791 64.3662C16.3568 63.7522 16.4978 63.099 16.4978 62.4267C16.4978 61.5613 16.0976 60.7711 15.4676 60.2888C16.0973 59.8064 16.4978 59.0163 16.4978 58.1509C16.4978 57.4782 16.3565 56.8254 16.0791 56.2114L12.701 48.7388C12.4852 48.2613 12.3711 47.7335 12.3711 47.2112C12.3711 46.481 12.8018 45.8424 13.419 45.6571C13.9207 45.5046 14.4372 45.5867 14.8374 45.878C15.237 46.1684 15.4662 46.6149 15.4662 47.1023C15.4662 47.7126 15.0682 47.9144 14.897 47.973C14.6321 48.0651 14.3783 48.0118 14.2969 47.9096C14.2278 47.8234 14.2351 47.5876 14.4823 47.2051C14.6356 46.9693 14.5657 46.6555 14.3253 46.5049C14.0843 46.3563 13.7666 46.4256 13.6131 46.6606C12.9542 47.6762 13.3057 48.3119 13.4876 48.5389C13.8543 48.9934 14.5379 49.15 15.1973 48.9388C14.9806 49.8422 14.7813 50.6963 15.6176 51.5188C15.7183 51.6179 15.8504 51.6674 15.9824 51.6674C16.1145 51.6674 16.2465 51.6179 16.3472 51.5188C16.5487 51.3208 16.5487 50.9998 16.3472 50.8018C15.9342 50.3957 15.9879 50.0619 16.2057 49.1564C16.3361 48.6135 16.4983 47.9369 16.4983 47.1028C16.4983 46.5479 16.2999 46.0172 15.9661 45.5811H15.9827C16.2677 45.5811 16.4986 45.3544 16.4986 45.0739C16.4986 44.7936 16.268 44.5666 15.9827 44.5666H15.9661C16.3001 44.1306 16.4983 43.6004 16.4983 43.0449C16.4983 42.2109 16.3361 41.5342 16.2057 40.9914C15.9881 40.0859 15.934 39.7521 16.3472 39.346C16.5487 39.1479 16.5487 38.827 16.3472 38.6289C16.1458 38.4309 15.8193 38.4309 15.6179 38.6289C14.7815 39.4515 14.9811 40.3053 15.1975 41.209C14.5382 40.9981 13.8543 41.1544 13.4878 41.6089C13.306 41.8356 12.9542 42.4716 13.6133 43.4871C13.7666 43.723 14.0835 43.7915 14.3255 43.6429C14.5659 43.4922 14.6359 43.1782 14.4826 42.9427C14.2354 42.5602 14.2281 42.3244 14.2972 42.2382C14.3789 42.1362 14.6321 42.0837 14.8972 42.1747C15.0685 42.2331 15.4665 42.4352 15.4665 43.0455C15.4665 43.5329 15.2373 43.9797 14.8376 44.2698C14.4372 44.561 13.9188 44.6432 13.4192 44.4906C12.8023 44.3054 12.3714 43.6665 12.3714 42.9365C12.3714 42.4143 12.4852 41.8865 12.7013 41.4089L16.0796 33.9359C16.3573 33.3218 16.4983 32.6687 16.4983 31.9963C16.4983 31.131 16.0981 30.3408 15.4681 29.8584C16.0979 29.3761 16.4983 28.5859 16.4983 27.7206C16.4983 27.0479 16.357 26.3951 16.0796 25.781L12.7013 18.308C12.4854 17.8304 12.3714 17.3026 12.3714 16.7804C12.3714 16.0502 12.802 15.4115 13.4192 15.2263C13.921 15.0737 14.4374 15.1559 14.8376 15.4471C15.2373 15.7375 15.4665 16.184 15.4665 16.6714C15.4665 17.2817 15.0685 17.4835 14.8972 17.5421C14.6324 17.6334 14.3786 17.5796 14.2972 17.4787C14.2281 17.3925 14.2354 17.1567 14.4826 16.7742C14.6359 16.5384 14.5659 16.2244 14.3255 16.074C14.0846 15.9254 13.7669 15.9937 13.6133 16.2295C12.9545 17.245 13.306 17.8808 13.4878 18.1077C13.8545 18.5622 14.5382 18.7188 15.1975 18.5076C14.9808 19.411 14.7815 20.2652 15.6179 21.0877C15.7186 21.1867 15.8507 21.2363 15.9827 21.2363C16.1147 21.2363 16.2468 21.1867 16.3475 21.0877C16.549 20.8896 16.549 20.5687 16.3475 20.3706C15.9345 19.9646 15.9881 19.6308 16.2059 18.7252C16.3363 18.1824 16.4986 17.5057 16.4986 16.6717C16.4986 16.1168 16.3001 15.586 15.9664 15.15H15.983C16.268 15.15 16.4989 14.9233 16.4989 14.6427C16.4989 14.3625 16.2683 14.1355 15.983 14.1355H15.9664C16.3004 13.6995 16.4986 13.1692 16.4986 12.6138C16.497 11.7784 16.3347 11.1017 16.2046 10.5589ZM10.9693 8.39747C10.7861 7.85678 10.85 7.54869 10.9709 7.44055C11.0499 7.36721 11.1697 7.37015 11.2456 7.40388C11.3387 7.44457 11.3387 7.50907 11.3387 7.54066C11.3387 7.82091 11.5693 8.04789 11.8546 8.04789C12.1397 8.04789 12.3705 7.82118 12.3705 7.54066C12.3705 7.50907 12.3705 7.44457 12.4636 7.40388C12.5382 7.37015 12.6572 7.36721 12.7383 7.44055C12.8592 7.54869 12.9232 7.85678 12.74 8.39747C12.6066 8.78961 12.1239 9.8105 11.8549 10.3646C11.5914 9.82335 11.1035 8.79228 10.9693 8.39747ZM11.8544 29.3253C12.0025 29.5231 12.1699 29.7072 12.3735 29.8571C12.1699 30.0073 12.0025 30.1912 11.8544 30.389C11.7063 30.1912 11.5388 30.007 11.3352 29.8571C11.5388 29.707 11.7063 29.5233 11.8544 29.3253ZM11.8544 59.7572C12.0025 59.955 12.1699 60.1392 12.3735 60.289C12.1699 60.4392 12.0025 60.6231 11.8544 60.8209C11.7063 60.6231 11.5388 60.4389 11.3352 60.289C11.5388 60.1389 11.7063 59.9555 11.8544 59.7572ZM12.7392 81.749C12.9224 82.2897 12.8584 82.5977 12.7375 82.7059C12.6564 82.7782 12.5374 82.7752 12.4628 82.7426C12.3697 82.7019 12.3697 82.6376 12.3697 82.6058C12.3697 82.3255 12.1391 82.0985 11.8538 82.0985C11.5685 82.0985 11.3379 82.3253 11.3379 82.6058C11.3379 82.6374 11.3379 82.7019 11.2448 82.7426C11.1691 82.7752 11.0493 82.7784 10.9701 82.7059C10.8492 82.5977 10.7853 82.2897 10.9685 81.749C11.1019 81.3568 11.5846 80.3359 11.8535 79.7819C12.1171 80.3228 12.6049 81.3541 12.7392 81.749ZM12.3686 75.505C12.1734 75.6544 12.0003 75.8332 11.8544 76.0353C11.7087 75.8332 11.5353 75.6547 11.3401 75.505C11.5353 75.3557 11.7084 75.1769 11.8544 74.9748C12 75.1769 12.1732 75.3557 12.3686 75.505ZM15.1352 63.9543L11.8541 71.2124L8.57298 63.9543C8.35709 63.4767 8.24302 62.9489 8.24302 62.4267C8.24302 61.6965 8.67371 61.0575 9.29089 60.8726C9.79237 60.72 10.3096 60.8022 10.7093 61.0934C11.109 61.3838 11.3382 61.8303 11.3382 62.3177C11.3382 62.928 10.9402 63.1298 10.7689 63.1885C10.5029 63.2797 10.25 63.2273 10.1689 63.125C10.0997 63.0388 10.1071 62.803 10.3543 62.4205C10.5076 62.1847 10.4376 61.8707 10.1972 61.7203C9.95626 61.5717 9.63855 61.6411 9.48501 61.8761C8.82617 62.8916 9.17764 63.5273 9.3595 63.7543C9.73302 64.2179 10.4357 64.3774 11.1076 64.1464C11.1841 64.1205 11.2617 64.0881 11.3382 64.0498V65.3325C11.3382 65.3322 11.3374 65.3317 11.3374 65.3317C11.3218 65.0646 11.097 64.8539 10.8225 64.8539C10.5375 64.8539 10.3066 65.0806 10.3066 65.3611C10.3066 65.692 10.5419 66.2659 11.3382 66.4436V67.3898C11.3382 67.6701 11.5688 67.897 11.8541 67.897C12.1394 67.897 12.37 67.6703 12.37 67.3898V66.4436C13.1663 66.2659 13.4015 65.692 13.4015 65.3611C13.4015 65.0809 13.1715 64.8373 12.8867 64.8373C12.6017 64.8373 12.3719 65.0474 12.3719 65.3277C12.3716 65.3285 12.37 65.3298 12.3697 65.3306V64.0503C12.4462 64.0886 12.5238 64.121 12.6003 64.147C13.2722 64.3777 13.9746 64.2182 14.3484 63.7548C14.5303 63.5281 14.882 62.8921 14.2229 61.8766C14.0696 61.6408 13.7514 61.5715 13.5107 61.7208C13.2703 61.8715 13.2003 62.1855 13.3536 62.421C13.6008 62.8035 13.6082 63.0394 13.539 63.1256C13.4573 63.2275 13.2044 63.28 12.939 63.189C12.7677 63.1306 12.3697 62.9285 12.3697 62.3183C12.3697 61.8308 12.599 61.3841 12.9986 61.0939C13.3991 60.8027 13.9174 60.7195 14.417 60.8731C15.0339 61.0583 15.4649 61.6973 15.4649 62.4272C15.4654 62.9489 15.3516 63.477 15.1352 63.9543ZM15.1352 56.6238C15.3511 57.1014 15.4652 57.6292 15.4652 58.1514C15.4652 58.8816 15.0345 59.5203 14.4173 59.7055C13.9166 59.8592 13.3985 59.7759 12.9989 59.4847C12.5992 59.1943 12.37 58.7478 12.37 58.2604C12.37 57.6501 12.768 57.4483 12.9393 57.3896C13.2047 57.2984 13.4579 57.3508 13.5393 57.4531C13.6084 57.5393 13.6011 57.7751 13.3539 58.1576C13.2006 58.3934 13.2706 58.7071 13.511 58.8578C13.7533 59.0085 14.0713 58.9389 14.2232 58.702C14.882 57.6865 14.5305 57.0508 14.3487 56.8238C13.9749 56.3602 13.2725 56.2025 12.6006 56.4317C12.5241 56.4576 12.4465 56.4903 12.37 56.5283V55.2453L12.3708 55.2469C12.3863 55.5133 12.6112 55.7245 12.8856 55.7245C13.1707 55.7245 13.4015 55.4978 13.4015 55.2172C13.4015 54.8864 13.1663 54.3125 12.37 54.1348V53.1886C12.37 52.9083 12.1394 52.6813 11.8541 52.6813C11.5688 52.6813 11.3382 52.9081 11.3382 53.1886V54.1348C10.5419 54.3125 10.3066 54.8864 10.3066 55.2172C10.3066 55.4975 10.5367 55.7411 10.8215 55.7411C11.1065 55.7411 11.3363 55.5309 11.3363 55.2507C11.3365 55.2499 11.3382 55.2486 11.3382 55.2486L11.3385 56.528C11.262 56.4897 11.1844 56.4574 11.1079 56.4314C10.436 56.2025 9.73329 56.3602 9.35977 56.8235C9.17791 57.0502 8.82617 57.6862 9.48528 58.7018C9.63855 58.9376 9.95681 59.0061 10.1975 58.8576C10.4379 58.7069 10.5078 58.3929 10.3546 58.1573C10.1074 57.7748 10.1 57.539 10.1692 57.4528C10.2503 57.3508 10.5032 57.2984 10.7692 57.3894C10.9404 57.4477 11.3385 57.6498 11.3385 58.2601C11.3385 58.7475 11.1092 59.1943 10.7096 59.4844C10.3091 59.7757 9.79183 59.8589 9.29117 59.7053C8.67426 59.52 8.24329 58.8811 8.24329 58.1512C8.24329 57.6289 8.35709 57.1011 8.57325 56.6236L11.8544 49.3654L15.1352 56.6238ZM12.3686 45.0733C12.1734 45.2227 12.0003 45.4015 11.8544 45.6036C11.7087 45.4015 11.5353 45.223 11.3401 45.0733C11.5353 44.924 11.7084 44.7452 11.8544 44.5431C12 44.7449 12.1732 44.9237 12.3686 45.0733ZM15.1352 33.5226L11.8541 40.7807L8.57298 33.5226C8.35709 33.0451 8.24302 32.5172 8.24302 31.995C8.24302 31.2648 8.67371 30.6261 9.29089 30.4409C9.79237 30.2883 10.3096 30.3705 10.7093 30.6617C11.109 30.9522 11.3382 31.3986 11.3382 31.886C11.3382 32.4963 10.9402 32.6982 10.7689 32.7568C10.5029 32.8489 10.25 32.7956 10.1689 32.6933C10.0997 32.6072 10.1071 32.3713 10.3543 31.9888C10.5076 31.753 10.4376 31.439 10.1972 31.2886C9.95626 31.1393 9.63855 31.2083 9.48501 31.4444C8.82617 32.4599 9.17764 33.0957 9.3595 33.3226C9.73302 33.7862 10.4357 33.9447 11.1076 33.7148C11.1841 33.6888 11.2617 33.6564 11.3382 33.6181V34.9008L11.3374 34.8992C11.3218 34.6329 11.097 34.4217 10.8225 34.4217C10.5375 34.4217 10.3066 34.6484 10.3066 34.9289C10.3066 35.2598 10.5419 35.8336 11.3382 36.0114V36.9576C11.3382 37.2378 11.5688 37.4648 11.8541 37.4648C12.1394 37.4648 12.37 37.2381 12.37 36.9576V36.0114C13.1663 35.8336 13.4015 35.2598 13.4015 34.9289C13.4015 34.6487 13.1715 34.4048 12.8867 34.4048C12.6017 34.4048 12.3719 34.6149 12.3719 34.8952C12.3716 34.896 12.37 34.8973 12.37 34.8973L12.3697 33.6179C12.4462 33.6562 12.5238 33.6885 12.6003 33.7145C13.2722 33.9442 13.9746 33.7857 14.3484 33.3224C14.5303 33.0957 14.882 32.4597 14.2229 31.4441C14.0696 31.2072 13.7514 31.1382 13.5107 31.2883C13.2703 31.439 13.2003 31.753 13.3536 31.9886C13.6008 32.3711 13.6082 32.6069 13.539 32.6931C13.4573 32.7951 13.2044 32.8489 12.939 32.7565C12.7677 32.6982 12.3697 32.4961 12.3697 31.8858C12.3697 31.3984 12.599 30.9516 12.9986 30.6615C13.3991 30.3702 13.9174 30.2881 14.417 30.4406C15.0339 30.6259 15.4649 31.2648 15.4649 31.9947C15.4654 32.5172 15.3516 33.0451 15.1352 33.5226ZM15.1352 26.1919C15.3511 26.6694 15.4652 27.1973 15.4652 27.7195C15.4652 28.4497 15.0345 29.0884 14.4173 29.2736C13.9166 29.4272 13.3985 29.344 12.9989 29.0528C12.5992 28.7623 12.37 28.3159 12.37 27.8284C12.37 27.2182 12.768 27.0163 12.9393 26.9577C13.2047 26.8664 13.4579 26.9189 13.5393 27.0211C13.6084 27.1073 13.6011 27.3432 13.3539 27.7257C13.2006 27.9615 13.2706 28.2752 13.511 28.4259C13.7533 28.5752 14.0713 28.507 14.2232 28.2701C14.882 27.2546 14.5305 26.6188 14.3487 26.3919C13.9749 25.9283 13.2725 25.7698 12.6006 25.9997C12.5241 26.0257 12.4465 26.0581 12.37 26.0963V24.8137C12.37 24.8139 12.3708 24.8145 12.3708 24.8145C12.3863 25.0816 12.6112 25.2923 12.8856 25.2923C13.1707 25.2923 13.4015 25.0656 13.4015 24.785C13.4015 24.4542 13.1663 23.8803 12.37 23.7026V22.7564C12.37 22.4761 12.1394 22.2491 11.8541 22.2491C11.5688 22.2491 11.3382 22.4758 11.3382 22.7564V23.7026C10.5419 23.8803 10.3066 24.4542 10.3066 24.785C10.3066 25.0653 10.5367 25.3091 10.8215 25.3091C11.1065 25.3091 11.3363 25.099 11.3363 24.8188C11.3365 24.818 11.3382 24.8166 11.3385 24.8158V26.0961C11.262 26.0578 11.1844 26.0254 11.1079 25.9995C10.436 25.7698 9.73329 25.9283 9.35977 26.3916C9.17791 26.6183 8.82617 27.2543 9.48528 28.2698C9.63855 28.5056 9.95681 28.5742 10.1975 28.4256C10.4379 28.2749 10.5078 27.9609 10.3546 27.7254C10.1074 27.3429 10.1 27.1071 10.1692 27.0209C10.2503 26.9189 10.5032 26.8664 10.7692 26.9574C10.9404 27.0158 11.3385 27.2179 11.3385 27.8282C11.3385 28.3156 11.1092 28.7623 10.7096 29.0525C10.3091 29.3437 9.79183 29.427 9.29117 29.2733C8.67426 29.0881 8.24329 28.4492 8.24329 27.7192C8.24329 27.197 8.35709 26.6692 8.57325 26.1916L11.8544 18.9335L15.1352 26.1919ZM11.3398 14.6414C11.535 14.4921 11.7082 14.3132 11.8541 14.1112C11.9997 14.3132 12.1732 14.4918 12.3684 14.6414C12.1732 14.7908 12 14.9696 11.8541 15.1717C11.7084 14.9696 11.5353 14.7908 11.3398 14.6414Z" fill="#FFE15A"/>
<path d="M73.709 51.2956C80.5662 51.2956 86.125 45.8302 86.125 39.0882C86.125 32.3463 80.5662 26.8809 73.709 26.8809C66.8518 26.8809 61.293 32.3463 61.293 39.0882C61.293 45.8302 66.8518 51.2956 73.709 51.2956Z" fill="#FFE15A"/>
<path d="M74.642 23.5222C74.642 24.0279 74.2249 24.4379 73.7106 24.4379C73.1964 24.4379 72.7793 24.0279 72.7793 23.5222C72.7793 23.0166 73.7106 20.7754 73.7106 20.7754C73.7106 20.7754 74.642 23.0166 74.642 23.5222Z" fill="#FFE15A"/>
<path d="M72.7793 54.6559C72.7793 54.1503 73.1964 53.7402 73.7107 53.7402C74.2249 53.7402 74.642 54.1503 74.642 54.6559C74.642 55.1616 73.7107 57.4028 73.7107 57.4028C73.7107 57.4028 72.7793 55.1618 72.7793 54.6559Z" fill="#FFE15A"/>
<path d="M89.5427 40.0033C89.0284 40.0033 88.6113 39.5932 88.6113 39.0876C88.6113 38.5819 89.0284 38.1719 89.5427 38.1719C90.057 38.1719 92.3365 39.0876 92.3365 39.0876C92.3365 39.0876 90.057 40.0033 89.5427 40.0033Z" fill="#FFE15A"/>
<path d="M57.8778 38.1758C58.392 38.1758 58.8091 38.5859 58.8091 39.0915C58.8091 39.5971 58.392 40.0072 57.8778 40.0072C57.3635 40.0072 55.084 39.0915 55.084 39.0915C55.084 39.0915 57.3635 38.1758 57.8778 38.1758Z" fill="#FFE15A"/>
<path d="M85.5627 28.7286C85.199 29.0863 84.6095 29.0863 84.2455 28.7286C83.8816 28.371 83.8818 27.7915 84.2455 27.4337C84.6093 27.0758 86.8795 26.1387 86.8795 26.1387C86.8795 26.1387 85.9267 28.371 85.5627 28.7286Z" fill="#FFE15A"/>
<path d="M61.8559 49.4459C62.2196 49.0883 62.809 49.0883 63.173 49.4459C63.537 49.8035 63.5368 50.3831 63.173 50.7409C62.8093 51.0988 60.5391 52.0357 60.5391 52.0357C60.5391 52.0357 61.4922 49.8038 61.8559 49.4459Z" fill="#FFE15A"/>
<path d="M84.2454 50.741C83.8817 50.3834 83.8817 49.8039 84.2454 49.446C84.6092 49.0882 85.1986 49.0884 85.5626 49.446C85.9266 49.8036 86.8797 52.0358 86.8797 52.0358C86.8797 52.0358 84.6092 51.0984 84.2454 50.741Z" fill="#FFE15A"/>
<path d="M63.1733 27.4334C63.537 27.791 63.537 28.3705 63.1733 28.7284C62.8096 29.0863 62.2202 29.086 61.8562 28.7284C61.4922 28.3708 60.5391 26.1387 60.5391 26.1387C60.5391 26.1387 62.8096 27.0761 63.1733 27.4334Z" fill="#FFE15A"/>
<path d="M68.5117 24.3576C68.7085 24.8249 68.4829 25.3603 68.0075 25.5538C67.5322 25.7473 66.9877 25.5254 66.7908 25.0581C66.594 24.5907 66.582 22.1699 66.582 22.1699C66.582 22.1699 68.3149 23.8902 68.5117 24.3576Z" fill="#FFE15A"/>
<path d="M78.909 53.8208C78.7122 53.3535 78.9379 52.8181 79.4132 52.6246C79.8885 52.4311 80.433 52.653 80.6299 53.1203C80.8267 53.5877 80.8387 56.0085 80.8387 56.0085C80.8387 56.0085 79.1056 54.2882 78.909 53.8208Z" fill="#FFE15A"/>
<path d="M88.6921 33.9812C88.2167 34.1747 87.6723 33.9528 87.4754 33.4855C87.2786 33.0181 87.5043 32.4828 87.9796 32.2893C88.455 32.0958 90.9169 32.084 90.9169 32.084C90.9169 32.084 89.1674 33.7874 88.6921 33.9812Z" fill="#FFE15A"/>
<path d="M58.727 44.2008C59.2024 44.0073 59.7468 44.2292 59.9437 44.6965C60.1405 45.1639 59.9148 45.6992 59.4395 45.8927C58.9641 46.0863 56.502 46.098 56.502 46.098C56.502 46.098 58.2517 44.3946 58.727 44.2008Z" fill="#FFE15A"/>
<path d="M80.6278 25.0578C80.431 25.5252 79.8862 25.7468 79.4111 25.5535C78.9358 25.36 78.7104 24.8244 78.907 24.3573C79.1038 23.8902 80.8363 22.1699 80.8363 22.1699C80.8363 22.1699 80.8246 24.5907 80.6278 25.0578Z" fill="#FFE15A"/>
<path d="M66.7906 53.1202C66.9874 52.6529 67.5322 52.4313 68.0072 52.6245C68.4826 52.818 68.708 53.3536 68.5114 53.8207C68.3146 54.2881 66.582 56.0081 66.582 56.0081C66.582 56.0081 66.5937 53.5876 66.7906 53.1202Z" fill="#FFE15A"/>
<path d="M87.9815 45.8926C87.5061 45.6991 87.2807 45.1635 87.4773 44.6964C87.6741 44.2291 88.2189 44.0074 88.6939 44.2007C89.169 44.3939 90.9187 46.0977 90.9187 46.0977C90.9187 46.0977 88.4563 46.0864 87.9815 45.8926Z" fill="#FFE15A"/>
<path d="M59.4412 32.289C59.9165 32.4825 60.1419 33.0182 59.9454 33.4852C59.7485 33.9523 59.2038 34.1742 58.7287 33.981C58.2536 33.7874 56.5039 32.084 56.5039 32.084C56.5039 32.084 58.9664 32.0952 59.4412 32.289Z" fill="#FFE15A"/>
<path d="M71.5342 23.6445C71.6347 24.1405 71.3072 24.6225 70.8024 24.721C70.298 24.8198 69.8077 24.4978 69.7075 24.0015C69.607 23.5055 70.0758 21.1289 70.0758 21.1289C70.0758 21.1289 71.4338 23.1485 71.5342 23.6445Z" fill="#FFE15A"/>
<path d="M75.8853 54.5338C75.7848 54.0378 76.1123 53.5558 76.6171 53.4573C77.1218 53.3585 77.6119 53.6805 77.7121 54.1768C77.8125 54.6728 77.3437 57.0494 77.3437 57.0494C77.3437 57.0494 75.9855 55.0298 75.8853 54.5338Z" fill="#FFE15A"/>
<path d="M89.4197 36.9486C88.9153 37.0474 88.4249 36.7254 88.3248 36.2291C88.2243 35.7329 88.5518 35.251 89.0565 35.1525C89.561 35.0538 91.9783 35.5147 91.9783 35.5147C91.9783 35.5147 89.9242 36.8501 89.4197 36.9486Z" fill="#FFE15A"/>
<path d="M58 41.2268C58.5044 41.128 58.9947 41.45 59.0949 41.9463C59.1954 42.4426 58.8679 42.9244 58.3631 43.0229C57.8587 43.1216 55.4414 42.6607 55.4414 42.6607C55.4414 42.6607 57.4955 41.3253 58 41.2268Z" fill="#FFE15A"/>
<path d="M83.2799 26.6562C82.9943 27.0767 82.4158 27.1896 81.9881 26.9086C81.5604 26.6275 81.4455 26.059 81.7314 25.6385C82.017 25.218 84.0577 23.8633 84.0577 23.8633C84.0577 23.8633 83.5655 26.2354 83.2799 26.6562Z" fill="#FFE15A"/>
<path d="M64.1411 51.5241C64.4267 51.1036 65.0052 50.9907 65.4329 51.2717C65.8606 51.5525 65.9755 52.1213 65.6896 52.5418C65.404 52.9623 63.3633 54.317 63.3633 54.317C63.3633 54.317 63.8555 51.9449 64.1411 51.5241Z" fill="#FFE15A"/>
<path d="M86.3553 48.4974C85.9276 48.2166 85.8127 47.6478 86.0986 47.2273C86.3844 46.8068 86.9627 46.6938 87.3904 46.9748C87.8181 47.2556 89.1959 49.2621 89.1959 49.2621C89.1959 49.2621 86.783 48.7781 86.3553 48.4974Z" fill="#FFE15A"/>
<path d="M61.0633 29.6807C61.491 29.9615 61.6059 30.5303 61.32 30.9508C61.0344 31.3714 60.4559 31.4843 60.0282 31.2033C59.6005 30.9222 58.2227 28.916 58.2227 28.916C58.2227 28.916 60.6358 29.4 61.0633 29.6807Z" fill="#FFE15A"/>
<path d="M65.6896 25.6382C65.9752 26.0587 65.8603 26.6272 65.4329 26.9083C65.0055 27.1893 64.4269 27.0761 64.1411 26.6559C63.8555 26.2354 63.3633 23.8633 63.3633 23.8633C63.3633 23.8633 65.404 25.218 65.6896 25.6382Z" fill="#FFE15A"/>
<path d="M81.7312 52.5416C81.4456 52.1211 81.5605 51.5526 81.9879 51.2715C82.4154 50.9907 82.9939 51.1037 83.2797 51.5239C83.5653 51.9445 84.0575 54.3165 84.0575 54.3165C84.0575 54.3165 82.0171 52.9619 81.7312 52.5416Z" fill="#FFE15A"/>
<path d="M87.3902 31.2032C86.9625 31.484 86.3843 31.3711 86.0984 30.9508C85.8128 30.5303 85.9277 29.9618 86.3551 29.6807C86.7828 29.4 89.1955 28.916 89.1955 28.916C89.1955 28.916 87.8179 30.9225 87.3902 31.2032Z" fill="#FFE15A"/>
<path d="M60.0299 46.9747C60.4576 46.6939 61.0358 46.8068 61.3217 47.2271C61.6073 47.6476 61.4924 48.2161 61.0649 48.4972C60.6372 48.778 58.2246 49.2619 58.2246 49.2619C58.2246 49.2619 59.6022 47.2554 60.0299 46.9747Z" fill="#FFE15A"/>
<path d="M77.712 24.0015C77.6116 24.4975 77.1215 24.8198 76.6171 24.721C76.1126 24.6223 75.7848 24.1405 75.8853 23.6445C75.9857 23.1485 77.3437 21.1289 77.3437 21.1289C77.3437 21.1289 77.8122 23.5055 77.712 24.0015Z" fill="#FFE15A"/>
<path d="M69.7074 54.1768C69.8079 53.6808 70.2979 53.3585 70.8024 53.4573C71.3069 53.556 71.6346 54.0378 71.5342 54.5338C71.4337 55.0298 70.0758 57.0494 70.0758 57.0494C70.0758 57.0494 69.6072 54.6727 69.7074 54.1768Z" fill="#FFE15A"/>
<path d="M89.0565 43.0229C88.5521 42.9241 88.2243 42.4423 88.3247 41.9463C88.4252 41.4503 88.9152 41.128 89.4197 41.2268C89.9242 41.3256 91.9783 42.6607 91.9783 42.6607C91.9783 42.6607 89.561 43.1214 89.0565 43.0229Z" fill="#FFE15A"/>
<path d="M58.3651 35.1525C58.8696 35.2513 59.1974 35.7331 59.0969 36.2291C58.9964 36.725 58.5064 37.0473 58.0019 36.9486C57.4975 36.8498 55.4434 35.5146 55.4434 35.5146C55.4434 35.5146 57.8606 35.054 58.3651 35.1525Z" fill="#FFE15A"/>
<path d="M102.917 42.3017C102.554 42.1512 102.138 42.3236 101.986 42.6791C101.986 42.6807 101.986 42.6807 101.986 42.6807C101.983 42.6874 101.969 42.7203 101.945 42.7765C101.407 44.0126 100.293 45.8191 99.169 47.5186C100.216 44.204 101.174 40.6638 101.24 40.4149C101.34 40.0431 101.117 39.6614 100.739 39.5605C100.361 39.4606 99.9721 39.6769 99.8662 40.0471C99.3775 41.7687 98.3781 44.0346 97.456 45.9527C97.625 43.814 97.6569 41.8327 97.6591 41.6892C97.6648 41.3105 97.3629 40.9973 96.9776 40.9794C96.6153 40.9904 96.2657 41.2503 96.2371 41.6288C95.3254 53.9598 83.257 59.4759 82.082 59.9834C81.4673 60.0437 78.6035 60.3608 76.0044 61.2482C75.7098 61.3488 75.4588 61.4497 75.2089 61.5498C75.116 61.5156 75.0164 61.4963 74.9116 61.5025C66.9343 62.0699 60.5735 58.8525 56.002 51.9595C52.548 46.7511 51.4647 41.2843 51.4541 41.2297C51.3811 40.8496 51.0109 40.6046 50.6227 40.6718C50.2361 40.7441 49.9821 41.1092 50.0553 41.4893C50.0842 41.6403 50.5595 44.0265 51.8685 47.1671C50.1171 44.4489 48.8966 41.156 48.467 39.4411C48.4583 39.4068 48.436 39.3809 48.4229 39.3493C48.4028 39.3008 48.3859 39.2521 48.3562 39.2101C48.3353 39.1804 48.3078 39.1587 48.283 39.1327C48.244 39.0923 48.2068 39.0527 48.1591 39.0224C48.1319 39.005 48.1014 38.9965 48.0717 38.9828C48.0192 38.9587 47.9677 38.9349 47.9092 38.9239C47.8686 38.9162 47.8272 38.9213 47.785 38.9205C47.7423 38.9199 47.702 38.9092 47.6582 38.9167C47.6486 38.9183 47.6413 38.9247 47.6318 38.9269C47.6225 38.9288 47.6138 38.9258 47.6045 38.9277C47.5664 38.9368 47.5373 38.9603 47.5025 38.9751C47.4581 38.9941 47.4126 39.0083 47.3737 39.0348C47.3353 39.0607 47.3067 39.0945 47.2749 39.1268C47.243 39.159 47.2098 39.1873 47.1847 39.2245C47.1594 39.2623 47.1458 39.3048 47.1278 39.3469C47.1107 39.3878 47.0908 39.4264 47.0818 39.4705C47.0726 39.5158 47.0767 39.5623 47.0769 39.6097C47.0769 39.6475 47.0663 39.6836 47.0731 39.7221C47.0758 39.7387 47.0813 39.7553 47.0843 39.7714V39.7741C47.0851 39.777 47.0862 39.781 47.087 39.7842C47.5275 42.3359 48.5773 44.981 49.5266 46.9982C48.0192 45.3164 46.7595 43.3788 46.313 42.2313C46.3002 42.1978 46.2744 42.1745 46.2569 42.1446C46.2305 42.0982 46.2074 42.0509 46.1717 42.0126C46.1464 41.9853 46.1156 41.9676 46.0868 41.9449C46.0435 41.9106 46.0024 41.8761 45.9523 41.8525C45.9202 41.8375 45.8853 41.8327 45.8513 41.8223C45.7987 41.8067 45.7478 41.7896 45.692 41.7861C45.6482 41.7832 45.6046 41.7942 45.5603 41.7998C45.5191 41.8049 45.4786 41.7998 45.4377 41.8124C45.4298 41.8148 45.4244 41.8209 45.4171 41.8236C45.4094 41.826 45.4018 41.8244 45.3942 41.8274C45.3555 41.8418 45.328 41.8699 45.2935 41.89C45.2529 41.9136 45.2096 41.9331 45.175 41.9636C45.1396 41.9949 45.1151 42.0337 45.0874 42.0709C45.061 42.106 45.0316 42.1373 45.012 42.1764C44.9915 42.2174 44.9839 42.2618 44.9722 42.306C44.9605 42.3491 44.945 42.3892 44.942 42.4344C44.9387 42.4797 44.9501 42.5249 44.9561 42.5707C44.9613 42.6103 44.9559 42.6496 44.9684 42.6887C45.7432 45.1459 47.6065 48.0694 49.0662 50.1289C47.8498 49.2073 46.9558 48.2105 46.6963 47.9096C46.6683 47.877 46.6408 47.8441 46.6128 47.8114C46.3617 47.5146 45.9183 47.4723 45.6142 47.7142C45.3111 47.9575 45.2635 48.3954 45.5085 48.6944C45.5219 48.711 45.5752 48.7766 45.6645 48.8791C46.7328 50.1289 47.8967 51.2951 48.9511 52.2799L47.5087 51.6755C47.1798 51.536 46.7933 51.6618 46.6133 51.9694C46.4331 52.2772 46.5145 52.6667 46.8031 52.88C46.9435 52.9825 49.4977 54.8586 51.7089 55.9676C51.5004 55.9799 51.2556 55.9649 50.9817 55.9443C50.6474 55.9127 50.3186 56.148 50.2372 56.4815C50.1571 56.8164 50.3352 57.1584 50.6586 57.2896C50.713 57.3115 51.3869 57.5848 52.2188 57.8761C52.0247 57.9539 51.8704 58.114 51.8064 58.3217C51.7106 58.6322 51.8453 58.9687 52.1317 59.1298C52.2063 59.1724 53.2128 59.7398 54.4583 60.2428C54.4251 60.2934 54.3979 60.348 54.3775 60.4082C54.28 60.7021 54.3914 61.0249 54.6508 61.2013C54.867 61.3475 59.7034 64.5745 65.352 64.5745C65.7228 64.5745 66.0974 64.5608 66.4742 64.5309C66.8656 64.5006 67.1586 64.1631 67.1273 63.7774C67.096 63.3917 66.7559 63.1004 66.3604 63.136C62.8119 63.4206 59.3933 62.1106 57.3602 61.1095C57.6286 61.045 57.783 60.9864 57.8214 60.9714C58.135 60.8456 58.3158 60.5214 58.2545 60.1946C58.1933 59.8681 57.9069 59.6285 57.5682 59.6215C56.7427 59.6049 55.5996 59.2099 54.6149 58.7859C54.9868 58.6028 55.204 58.4275 55.2231 58.4125C55.4373 58.2361 55.5277 57.9545 55.4547 57.6892C55.3812 57.4253 55.1569 57.227 54.8819 57.1833C54.5795 57.1341 54.2024 57.0382 53.8077 56.9207C54.1915 56.7034 54.3549 56.4641 54.4175 56.3423C54.5163 56.1483 54.5185 55.921 54.4238 55.7256C54.3285 55.5302 54.1471 55.3891 53.9313 55.3439C53.745 55.3043 53.5341 55.2374 53.3062 55.1498C53.3478 55.1089 53.3862 55.0623 53.4173 55.009C53.5986 54.7068 53.5237 54.3185 53.2422 54.1011C53.2275 54.0901 52.6748 53.6637 51.838 52.9539C51.9708 52.906 52.0882 52.8171 52.1731 52.6969C52.3525 52.4426 52.3403 52.1021 52.1432 51.8612C52.1274 51.842 51.5739 51.1578 50.8111 50.1187C51.0629 50.3109 51.3144 50.5074 51.566 50.6664C51.6844 50.7402 51.8184 50.7772 51.9512 50.7772C52.1314 50.7772 52.3092 50.7103 52.4462 50.5802C52.5025 50.5266 52.5466 50.4651 52.5815 50.3995C53.0135 50.8532 53.4674 51.2651 53.9441 51.6166C54.0061 51.6624 54.0815 51.6616 54.1512 51.6846C54.3532 52.0176 54.5634 52.3511 54.7839 52.6846C59.108 59.2259 65.205 62.7297 72.5175 62.9401C71.8442 63.3421 71.1132 63.7576 69.9559 64.2008C69.7033 64.2977 69.48 64.3946 69.2557 64.4918C69.1473 64.5127 69.0458 64.5512 68.9611 64.6173C66.9411 65.5368 66.1047 66.4452 65.7655 67.0807C65.4268 67.7124 65.7189 68.3604 66.1325 68.6969C66.261 68.8007 66.4246 68.854 66.5885 68.854C66.7012 68.854 66.8139 68.8294 66.916 68.7788C67.1678 68.6557 67.3361 68.3944 67.3249 68.1198C67.3541 68.0885 67.4779 67.9873 67.8659 67.9747C68.1487 67.9514 68.7441 68.0143 69.4389 68.0689C70.0999 68.1225 70.8927 68.1832 71.7356 68.2258C71.2082 68.8302 70.5954 69.5307 70.5954 69.5307C70.4114 69.7413 70.3708 70.0393 70.4933 70.2895C70.6164 70.5411 70.8815 70.6972 71.1595 70.6873C71.7222 70.668 72.1045 70.657 72.3555 70.652C72.5744 70.9338 72.8431 71.0457 73.0162 71.0893C73.506 71.2125 73.9941 71.0197 74.3617 70.7914C74.6399 70.9884 74.9181 71.0717 75.1386 71.1032C75.6358 71.1702 76.0961 71.028 76.4291 70.8666C76.774 71.0856 77.1119 71.1415 77.3694 71.1415C77.373 71.1415 77.3771 71.1415 77.3811 71.1415C77.9368 71.1388 78.423 70.8749 78.7669 70.6164C79.071 70.7941 79.3614 70.8514 79.5861 70.8613C80.096 70.8789 80.5185 70.6862 80.7995 70.5055C81.8029 70.7036 82.6679 70.2389 83.2396 69.7261C83.5004 69.8752 83.7484 69.9121 83.9461 69.9025C84.4543 69.8848 84.8415 69.581 85.09 69.3091C86.2278 69.4442 87.0442 69.2379 87.516 68.687C87.7733 68.3875 87.8778 68.0499 87.9062 67.7421C91.0626 67.7244 91.3482 66.0301 91.3713 65.8208C91.392 65.6305 91.3332 65.4407 91.2074 65.2945C91.0822 65.1484 90.9006 65.0579 90.7067 65.0469L82.4316 64.5576C82.0853 64.533 81.7763 64.7613 81.696 65.0938C81.6943 65.0991 81.5533 65.616 81.112 66.0293C80.518 66.5868 79.5615 66.8813 78.5213 67.0373C78.5251 66.9437 78.5118 66.8484 78.4753 66.7552C78.3334 66.3944 77.9205 66.2191 77.5546 66.3548C75.8462 67.0065 73.0802 66.9246 70.9164 66.7766C71.2483 66.51 71.6479 66.2458 71.9673 66.0735C72.237 65.9273 72.3819 65.6278 72.3247 65.3299C72.2833 65.1133 72.1241 64.9626 71.9319 64.8657C72.5335 64.567 73.0268 64.2785 73.4948 63.9979C74.3072 63.5086 75.0747 63.0474 76.4724 62.5705C79.1703 61.6489 82.2927 61.3686 82.324 61.3657C82.3948 61.3601 82.4645 61.3424 82.5304 61.3164C82.6415 61.2712 91.4486 57.6437 95.5979 49.2737C95.5435 49.5266 95.4852 49.7579 95.4218 49.96C95.3134 50.3047 95.4885 50.6725 95.8263 50.8117C96.0877 50.9198 96.3847 50.8636 96.5859 50.6806C96.3237 51.3602 96.0866 51.8947 95.893 52.2106C95.6956 52.532 95.7909 52.9491 96.1086 53.1568C96.1832 53.2047 96.263 53.2373 96.3449 53.2566C96.0237 53.7189 95.6981 54.1562 95.3733 54.5569C95.1571 54.8235 95.1697 55.2039 95.3956 55.4555C94.8381 56.0297 94.3437 56.5029 93.968 56.8038C93.7227 56.9992 93.6426 57.326 93.7553 57.6052C93.393 57.8089 93.0954 57.9526 92.8891 58.0139C92.5428 58.1164 92.3301 58.4596 92.3955 58.8097C92.4295 58.9944 92.5351 59.1502 92.6811 59.2527C92.2457 59.3675 91.7693 59.4783 91.252 59.5792C90.9607 59.6365 90.7359 59.8651 90.6882 60.1534C90.6411 60.4419 90.7802 60.7292 91.0378 60.874C91.0601 60.8863 91.3032 61.0217 91.6757 61.1775C90.2981 61.723 87.8386 62.4355 83.8026 62.8266C83.4116 62.8649 83.1252 63.2083 83.1642 63.5924C83.2023 63.9768 83.5404 64.2434 83.9431 64.2214C91.6046 63.4762 93.9704 61.5908 94.0671 61.51C94.2881 61.3279 94.3758 61.0314 94.2881 60.7607C94.2299 60.5817 94.1019 60.4369 93.9375 60.3531C96.3852 59.5956 97.4361 58.7572 97.4911 58.7123C97.7595 58.4933 97.8271 58.1148 97.6504 57.818C97.4723 57.5211 97.1018 57.3926 96.7784 57.5211C96.6874 57.5554 96.5421 57.5907 96.3583 57.6263C98.001 56.5203 99.7448 55.2031 100.512 54.6153C100.646 54.5171 100.769 54.4223 100.877 54.3334C101.175 54.0875 101.216 53.6522 100.97 53.3559C100.726 53.0607 100.282 53.0112 99.9772 53.2478C99.8662 53.334 99.7505 53.4228 99.6309 53.5144C99.277 53.7729 98.8243 54.0655 98.3304 54.3661C100.195 52.285 102.072 50.0288 102.608 49.3807C102.656 49.3219 102.704 49.2632 102.753 49.2043C102.999 48.9035 102.951 48.4632 102.645 48.2212C102.338 47.9752 101.89 48.0258 101.644 48.325L101.643 48.3267L101.642 48.3283C101.629 48.3433 101.569 48.4171 101.467 48.5403C100.906 49.2143 100.314 49.8668 99.7309 50.4763C101.63 47.0922 103.068 43.761 103.279 43.2674C103.286 43.2498 103.293 43.2321 103.301 43.2139C103.452 42.8598 103.28 42.4494 102.917 42.3017ZM69.5426 65.9013L69.737 65.9262C69.4985 66.1455 69.3044 66.3912 69.1503 66.6449C68.8122 66.6182 68.5054 66.5946 68.265 66.5842C68.5963 66.3714 69.0226 66.1404 69.5426 65.9013Z" fill="#FFE15A"/>
</g>
<defs>
<clipPath id="clip0_2206_199">
<rect width="140" height="90" rx="8" fill="white"/>
</clipPath>
</defs>
</svg>
