<svg width="138" height="90" viewBox="0 0 138 90" fill="none" xmlns="http://www.w3.org/2000/svg">
<path d="M135.316 90H2.68493C1.37698 90 0.316406 88.9394 0.316406 87.6315V2.36853C0.316406 1.06058 1.37698 0 2.68493 0H135.316C136.624 0 137.685 1.06058 137.685 2.36853V87.6315C137.685 88.9397 136.624 90 135.316 90Z" fill="#F5F5F5"/>
<path d="M137.685 6.9234H0.316406V2.36852C0.316406 1.06058 1.37698 0 2.68493 0H135.316C136.624 0 137.685 1.06058 137.685 2.36852L137.685 6.9234Z" fill="#FF4B55"/>
<path d="M137.685 27.6914H0.316406V34.6146H137.685V27.6914Z" fill="#FF4B55"/>
<path d="M137.685 13.8438H0.316406V20.7669H137.685V13.8438Z" fill="#FF4B55"/>
<path d="M137.685 48.4605H2.68493C1.37698 48.4605 0.316406 47.3999 0.316406 46.092V41.5371H137.685V48.4605Z" fill="#FF4B55"/>
<path d="M137.685 69.2324H0.316406V76.1556H137.685V69.2324Z" fill="#FF4B55"/>
<path d="M135.316 89.9993H2.68493C1.37698 89.9993 0.316406 88.9387 0.316406 87.6308V83.0762H137.685V87.6311C137.685 88.939 136.624 89.9993 135.316 89.9993Z" fill="#FF4B55"/>
<path d="M137.685 55.3848H0.316406V62.3079H137.685V55.3848Z" fill="#FF4B55"/>
<path d="M61.8951 0H2.68493C1.37698 0 0.316406 1.06031 0.316406 2.36826V46.0926C0.316406 47.4006 1.37698 48.4612 2.68493 48.4612H61.8954C63.2034 48.4612 64.2639 47.4006 64.2639 46.0926V2.36826C64.2637 1.06031 63.2031 0 61.8951 0Z" fill="#41479B"/>
<path d="M6.96945 5.4359L7.4937 7.00812L9.15097 7.02073C9.36561 7.02261 9.45442 7.29627 9.2819 7.42371L7.94874 8.40836L8.44884 9.98836C8.51377 10.1928 8.28062 10.3624 8.10596 10.2373L6.75777 9.27389L5.40957 10.2376C5.23491 10.3624 5.0023 10.1931 5.06669 9.98863L5.5668 8.40863L4.23363 7.42398C4.06111 7.29627 4.14992 7.02287 4.36456 7.021L6.02183 7.00839L6.54608 5.43617C6.61369 5.23226 6.9013 5.23226 6.96945 5.4359Z" fill="#F5F5F5"/>
<path d="M6.96945 13.6584L7.4937 15.2306L9.15097 15.2432C9.36561 15.2451 9.45442 15.5187 9.2819 15.6462L7.94874 16.6308L8.44884 18.2108C8.51377 18.4153 8.28062 18.5848 8.10596 18.4598L6.75777 17.4963L5.40957 18.4601C5.23491 18.5848 5.0023 18.4155 5.06669 18.2111L5.5668 16.6311L4.23363 15.6464C4.06111 15.5187 4.14992 15.2453 4.36456 15.2435L6.02183 15.2308L6.54608 13.6586C6.61369 13.455 6.9013 13.455 6.96945 13.6584Z" fill="#F5F5F5"/>
<path d="M6.96945 21.8849L7.4937 23.4571L9.15097 23.4697C9.36561 23.4716 9.45442 23.7453 9.2819 23.8727L7.94874 24.8574L8.44884 26.4374C8.51377 26.6418 8.28062 26.8114 8.10596 26.6864L6.75777 25.7229L5.40957 26.6866C5.23491 26.8114 5.0023 26.6421 5.06669 26.4376L5.5668 24.8576L4.23363 23.873C4.06111 23.7453 4.14992 23.4719 4.36456 23.47L6.02183 23.4574L6.54608 21.8852C6.61369 21.6815 6.9013 21.6815 6.96945 21.8849Z" fill="#F5F5F5"/>
<path d="M6.96945 30.1078L7.4937 31.68L9.15097 31.6926C9.36561 31.6945 9.45442 31.9681 9.2819 32.0956L7.94874 33.0802L8.44884 34.6602C8.51377 34.8647 8.28062 35.0342 8.10596 34.9092L6.75777 33.9458L5.40957 34.9095C5.23491 35.0342 5.0023 34.8649 5.06669 34.6605L5.5668 33.0805L4.23363 32.0959C4.06111 31.9681 4.14992 31.6947 4.36456 31.6929L6.02183 31.6803L6.54608 30.108C6.61369 29.9041 6.9013 29.9041 6.96945 30.1078Z" fill="#F5F5F5"/>
<path d="M6.96945 38.3345L7.4937 39.9068L9.15097 39.9194C9.36561 39.9212 9.45442 40.1949 9.2819 40.3223L7.94874 41.307L8.44884 42.887C8.51377 43.0914 8.28062 43.261 8.10596 43.136L6.75777 42.1725L5.40957 43.1362C5.23491 43.261 5.0023 43.0917 5.06669 42.8873L5.5668 41.3073L4.23363 40.3226C4.06111 40.1949 4.14992 39.9215 4.36456 39.9196L6.02183 39.907L6.54608 38.3348C6.61369 38.1306 6.9013 38.1306 6.96945 38.3345Z" fill="#F5F5F5"/>
<path d="M13.3562 9.46893L13.8804 11.0412L15.5377 11.0538C15.7523 11.0556 15.8411 11.3293 15.6686 11.4567L14.3355 12.4414L14.8356 14.0214C14.9005 14.2258 14.6673 14.3954 14.4927 14.2704L13.1445 13.3067L11.7963 14.2704C11.6216 14.3951 11.389 14.2258 11.4534 14.0214L11.9535 12.4414L10.6203 11.4567C10.4478 11.329 10.5366 11.0556 10.7513 11.0538L12.4085 11.0412L12.9328 9.46893C13.0001 9.26556 13.2883 9.26556 13.3562 9.46893Z" fill="#F5F5F5"/>
<path d="M13.3562 17.6918L13.8804 19.264L15.5377 19.2766C15.7523 19.2785 15.8411 19.5522 15.6686 19.6796L14.3355 20.6642L14.8356 22.2442C14.9005 22.4487 14.6673 22.6183 14.4927 22.4932L13.1445 21.5295L11.7963 22.4932C11.6216 22.618 11.389 22.449 11.4534 22.2442L11.9535 20.6642L10.6203 19.6796C10.4478 19.5519 10.5366 19.2785 10.7513 19.2766L12.4085 19.264L12.9328 17.6918C13.0001 17.4882 13.2883 17.4882 13.3562 17.6918Z" fill="#F5F5F5"/>
<path d="M13.3562 25.9184L13.8804 27.4906L15.5377 27.5032C15.7523 27.5051 15.8411 27.7787 15.6686 27.9062L14.3355 28.8908L14.8356 30.4708C14.9005 30.6753 14.6673 30.8448 14.4927 30.7198L13.1445 29.7561L11.7963 30.7198C11.6216 30.8446 11.389 30.6753 11.4534 30.4708L11.9535 28.8908L10.6203 27.9062C10.4478 27.7785 10.5366 27.5051 10.7513 27.5032L12.4085 27.4906L12.9328 25.9184C13.0001 25.7147 13.2883 25.7147 13.3562 25.9184Z" fill="#F5F5F5"/>
<path d="M13.3562 34.1408L13.8804 35.713L15.5377 35.7256C15.7523 35.7275 15.8411 36.0012 15.6686 36.1286L14.3355 37.1133L14.8356 38.6933C14.9005 38.8977 14.6673 39.0673 14.4927 38.9423L13.1445 37.9785L11.7963 38.9423C11.6216 39.067 11.389 38.8977 11.4534 38.6933L11.9535 37.1133L10.6203 36.1286C10.4478 36.0009 10.5366 35.7275 10.7513 35.7256L12.4085 35.713L12.9328 34.1408C13.0001 33.9374 13.2883 33.9374 13.3562 34.1408Z" fill="#F5F5F5"/>
<path d="M19.7351 5.43593L20.2593 7.00815L21.9166 7.02076C22.1312 7.02264 22.22 7.2963 22.0475 7.42374L20.7144 8.40839L21.2145 9.98839C21.2794 10.1928 21.0462 10.3624 20.8716 10.2374L19.5234 9.27365L18.1752 10.2374C18.0005 10.3621 17.7679 10.1928 17.8323 9.98839L18.3324 8.40839L16.9993 7.42374C16.8267 7.29603 16.9155 7.02264 17.1302 7.02076L18.7875 7.00815L19.3117 5.43593C19.3793 5.23229 19.6672 5.23229 19.7351 5.43593Z" fill="#F5F5F5"/>
<path d="M19.7351 13.6584L20.2593 15.2306L21.9166 15.2432C22.1312 15.2451 22.22 15.5188 22.0475 15.6462L20.7144 16.6308L21.2145 18.2108C21.2794 18.4153 21.0462 18.5849 20.8716 18.4598L19.5234 17.4961L18.1752 18.4598C18.0005 18.5846 17.7679 18.4153 17.8323 18.2108L18.3324 16.6308L16.9993 15.6462C16.8267 15.5185 16.9155 15.2451 17.1302 15.2432L18.7875 15.2306L19.3117 13.6584C19.3793 13.455 19.6672 13.455 19.7351 13.6584Z" fill="#F5F5F5"/>
<path d="M19.7351 21.8849L20.2593 23.4572L21.9166 23.4698C22.1312 23.4717 22.22 23.7453 22.0475 23.8728L20.7144 24.8574L21.2145 26.4374C21.2794 26.6419 21.0462 26.8114 20.8716 26.6864L19.5234 25.7227L18.1752 26.6864C18.0005 26.8112 17.7679 26.6419 17.8323 26.4374L18.3324 24.8574L16.9993 23.8728C16.8267 23.7451 16.9155 23.4717 17.1302 23.4698L18.7875 23.4572L19.3117 21.8849C19.3793 21.6816 19.6672 21.6816 19.7351 21.8849Z" fill="#F5F5F5"/>
<path d="M19.7351 30.1078L20.2593 31.68L21.9166 31.6926C22.1312 31.6945 22.22 31.9682 22.0475 32.0956L20.7144 33.0803L21.2145 34.6603C21.2794 34.8647 21.0462 35.0343 20.8716 34.9092L19.5234 33.9455L18.1752 34.9092C18.0005 35.034 17.7679 34.8647 17.8323 34.6603L18.3324 33.0803L16.9993 32.0956C16.8267 31.9679 16.9155 31.6945 17.1302 31.6926L18.7875 31.68L19.3117 30.1078C19.3793 29.9042 19.6672 29.9042 19.7351 30.1078Z" fill="#F5F5F5"/>
<path d="M19.7351 38.3346L20.2593 39.9068L21.9166 39.9194C22.1312 39.9213 22.22 40.1949 22.0475 40.3224L20.7144 41.307L21.2145 42.887C21.2794 43.0915 21.0462 43.261 20.8716 43.136L19.5234 42.1723L18.1752 43.136C18.0005 43.2608 17.7679 43.0915 17.8323 42.887L18.3324 41.307L16.9993 40.3224C16.8267 40.1947 16.9155 39.9213 17.1302 39.9194L18.7875 39.9068L19.3117 38.3346C19.3793 38.1307 19.6672 38.1307 19.7351 38.3346Z" fill="#F5F5F5"/>
<path d="M26.1198 9.46893L26.6441 11.0412L28.3014 11.0538C28.516 11.0556 28.6048 11.3293 28.4323 11.4567L27.0991 12.4414L27.5992 14.0214C27.6642 14.2258 27.431 14.3954 27.2563 14.2704L25.9082 13.3067L24.56 14.2704C24.3853 14.3951 24.1527 14.2258 24.2171 14.0214L24.7172 12.4414L23.384 11.4567C23.2115 11.329 23.3003 11.0556 23.5149 11.0538L25.1722 11.0412L25.6965 9.46893C25.7638 9.26556 26.052 9.26556 26.1198 9.46893Z" fill="#F5F5F5"/>
<path d="M26.1198 17.6918L26.6441 19.264L28.3014 19.2766C28.516 19.2785 28.6048 19.5522 28.4323 19.6796L27.0991 20.6642L27.5992 22.2442C27.6642 22.4487 27.431 22.6183 27.2563 22.4932L25.9082 21.5295L24.56 22.4932C24.3853 22.618 24.1527 22.449 24.2171 22.2442L24.7172 20.6642L23.384 19.6796C23.2115 19.5519 23.3003 19.2785 23.5149 19.2766L25.1722 19.264L25.6965 17.6918C25.7638 17.4882 26.052 17.4882 26.1198 17.6918Z" fill="#F5F5F5"/>
<path d="M26.1198 25.9184L26.6441 27.4906L28.3014 27.5032C28.516 27.5051 28.6048 27.7787 28.4323 27.9062L27.0991 28.8908L27.5992 30.4708C27.6642 30.6753 27.431 30.8448 27.2563 30.7198L25.9082 29.7561L24.56 30.7198C24.3853 30.8446 24.1527 30.6753 24.2171 30.4708L24.7172 28.8908L23.384 27.9062C23.2115 27.7785 23.3003 27.5051 23.5149 27.5032L25.1722 27.4906L25.6965 25.9184C25.7638 25.7147 26.052 25.7147 26.1198 25.9184Z" fill="#F5F5F5"/>
<path d="M26.1198 34.1408L26.6441 35.713L28.3014 35.7256C28.516 35.7275 28.6048 36.0012 28.4323 36.1286L27.0991 37.1133L27.5992 38.6933C27.6642 38.8977 27.431 39.0673 27.2563 38.9423L25.9082 37.9785L24.56 38.9423C24.3853 39.067 24.1527 38.8977 24.2171 38.6933L24.7172 37.1133L23.384 36.1286C23.2115 36.0009 23.3003 35.7275 23.5149 35.7256L25.1722 35.713L25.6965 34.1408C25.7638 33.9374 26.052 33.9374 26.1198 34.1408Z" fill="#F5F5F5"/>
<path d="M32.5068 5.43593L33.0311 7.00815L34.6884 7.02076C34.903 7.02264 34.9918 7.2963 34.8193 7.42374L33.4861 8.40839L33.9862 9.98839C34.0511 10.1928 33.818 10.3624 33.6433 10.2374L32.2949 9.27365L30.9467 10.2374C30.772 10.3621 30.5394 10.1928 30.6038 9.98839L31.1039 8.40839L29.7707 7.42374C29.5982 7.29603 29.687 7.02264 29.9017 7.02076L31.5589 7.00815L32.0832 5.43593C32.1511 5.23229 32.4389 5.23229 32.5068 5.43593Z" fill="#F5F5F5"/>
<path d="M32.5068 13.6584L33.0311 15.2306L34.6884 15.2432C34.903 15.2451 34.9918 15.5188 34.8193 15.6462L33.4861 16.6308L33.9862 18.2108C34.0511 18.4153 33.818 18.5849 33.6433 18.4598L32.2949 17.4961L30.9467 18.4598C30.772 18.5846 30.5394 18.4153 30.6038 18.2108L31.1039 16.6308L29.7707 15.6462C29.5982 15.5185 29.687 15.2451 29.9017 15.2432L31.5589 15.2306L32.0832 13.6584C32.1511 13.455 32.4389 13.455 32.5068 13.6584Z" fill="#F5F5F5"/>
<path d="M32.5068 21.8849L33.0311 23.4572L34.6884 23.4698C34.903 23.4717 34.9918 23.7453 34.8193 23.8728L33.4861 24.8574L33.9862 26.4374C34.0511 26.6419 33.818 26.8114 33.6433 26.6864L32.2949 25.7227L30.9467 26.6864C30.772 26.8112 30.5394 26.6419 30.6038 26.4374L31.1039 24.8574L29.7707 23.8728C29.5982 23.7451 29.687 23.4717 29.9017 23.4698L31.5589 23.4572L32.0832 21.8849C32.1511 21.6816 32.4389 21.6816 32.5068 21.8849Z" fill="#F5F5F5"/>
<path d="M32.5068 30.1078L33.0311 31.68L34.6884 31.6926C34.903 31.6945 34.9918 31.9682 34.8193 32.0956L33.4861 33.0803L33.9862 34.6603C34.0511 34.8647 33.818 35.0343 33.6433 34.9092L32.2949 33.9455L30.9467 34.9092C30.772 35.034 30.5394 34.8647 30.6038 34.6603L31.1039 33.0803L29.7707 32.0956C29.5982 31.9679 29.687 31.6945 29.9017 31.6926L31.5589 31.68L32.0832 30.1078C32.1511 29.9042 32.4389 29.9042 32.5068 30.1078Z" fill="#F5F5F5"/>
<path d="M32.5068 38.3346L33.0311 39.9068L34.6884 39.9194C34.903 39.9213 34.9918 40.1949 34.8193 40.3224L33.4861 41.307L33.9862 42.887C34.0511 43.0915 33.818 43.261 33.6433 43.136L32.2949 42.1723L30.9467 43.136C30.772 43.2608 30.5394 43.0915 30.6038 42.887L31.1039 41.307L29.7707 40.3224C29.5982 40.1947 29.687 39.9213 29.9017 39.9194L31.5589 39.9068L32.0832 38.3346C32.1511 38.1307 32.4389 38.1307 32.5068 38.3346Z" fill="#F5F5F5"/>
<path d="M38.8855 9.46893L39.4097 11.0412L41.067 11.0538C41.2816 11.0556 41.3704 11.3293 41.1979 11.4567L39.8648 12.4414L40.3649 14.0214C40.4298 14.2258 40.1966 14.3954 40.022 14.2704L38.6738 13.3067L37.3256 14.2704C37.1509 14.3951 36.9183 14.2258 36.9827 14.0214L37.4828 12.4414L36.1496 11.4567C35.9771 11.329 36.0659 11.0556 36.2806 11.0538L37.9378 11.0412L38.4621 9.46893C38.53 9.26556 38.8176 9.26556 38.8855 9.46893Z" fill="#F5F5F5"/>
<path d="M38.8855 17.6918L39.4097 19.264L41.067 19.2766C41.2816 19.2785 41.3704 19.5522 41.1979 19.6796L39.8648 20.6642L40.3649 22.2442C40.4298 22.4487 40.1966 22.6183 40.022 22.4932L38.6738 21.5295L37.3256 22.4932C37.1509 22.618 36.9183 22.449 36.9827 22.2442L37.4828 20.6642L36.1496 19.6796C35.9771 19.5519 36.0659 19.2785 36.2806 19.2766L37.9378 19.264L38.4621 17.6918C38.53 17.4882 38.8176 17.4882 38.8855 17.6918Z" fill="#F5F5F5"/>
<path d="M38.8855 25.9184L39.4097 27.4906L41.067 27.5032C41.2816 27.5051 41.3704 27.7787 41.1979 27.9062L39.8648 28.8908L40.3649 30.4708C40.4298 30.6753 40.1966 30.8448 40.022 30.7198L38.6738 29.7561L37.3256 30.7198C37.1509 30.8446 36.9183 30.6753 36.9827 30.4708L37.4828 28.8908L36.1496 27.9062C35.9771 27.7785 36.0659 27.5051 36.2806 27.5032L37.9378 27.4906L38.4621 25.9184C38.53 25.7147 38.8176 25.7147 38.8855 25.9184Z" fill="#F5F5F5"/>
<path d="M38.8855 34.1408L39.4097 35.713L41.067 35.7256C41.2816 35.7275 41.3704 36.0012 41.1979 36.1286L39.8648 37.1133L40.3649 38.6933C40.4298 38.8977 40.1966 39.0673 40.022 38.9423L38.6738 37.9785L37.3256 38.9423C37.1509 39.067 36.9183 38.8977 36.9827 38.6933L37.4828 37.1133L36.1496 36.1286C35.9771 36.0009 36.0659 35.7275 36.2806 35.7256L37.9378 35.713L38.4621 34.1408C38.53 33.9374 38.8176 33.9374 38.8855 34.1408Z" fill="#F5F5F5"/>
<path d="M45.2722 5.43593L45.7964 7.00815L47.4537 7.02076C47.6684 7.02264 47.7572 7.2963 47.5846 7.42374L46.2515 8.40839L46.7516 9.98839C46.8165 10.1928 46.5834 10.3624 46.4087 10.2374L45.0605 9.27365L43.7123 10.2374C43.5376 10.3621 43.305 10.1928 43.3694 9.98839L43.8695 8.40839L42.5364 7.42374C42.3638 7.29603 42.4527 7.02264 42.6673 7.02076L44.3246 7.00815L44.8488 5.43593C44.9162 5.23229 45.2043 5.23229 45.2722 5.43593Z" fill="#F5F5F5"/>
<path d="M45.2722 13.6584L45.7964 15.2306L47.4537 15.2432C47.6684 15.2451 47.7572 15.5188 47.5846 15.6462L46.2515 16.6308L46.7516 18.2108C46.8165 18.4153 46.5834 18.5849 46.4087 18.4598L45.0605 17.4961L43.7123 18.4598C43.5376 18.5846 43.305 18.4153 43.3694 18.2108L43.8695 16.6308L42.5364 15.6462C42.3638 15.5185 42.4527 15.2451 42.6673 15.2432L44.3246 15.2306L44.8488 13.6584C44.9162 13.455 45.2043 13.455 45.2722 13.6584Z" fill="#F5F5F5"/>
<path d="M45.2722 21.8849L45.7964 23.4572L47.4537 23.4698C47.6684 23.4717 47.7572 23.7453 47.5846 23.8728L46.2515 24.8574L46.7516 26.4374C46.8165 26.6419 46.5834 26.8114 46.4087 26.6864L45.0605 25.7227L43.7123 26.6864C43.5376 26.8112 43.305 26.6419 43.3694 26.4374L43.8695 24.8574L42.5364 23.8728C42.3638 23.7451 42.4527 23.4717 42.6673 23.4698L44.3246 23.4572L44.8488 21.8849C44.9162 21.6816 45.2043 21.6816 45.2722 21.8849Z" fill="#F5F5F5"/>
<path d="M45.2722 30.1078L45.7964 31.68L47.4537 31.6926C47.6684 31.6945 47.7572 31.9682 47.5846 32.0956L46.2515 33.0803L46.7516 34.6603C46.8165 34.8647 46.5834 35.0343 46.4087 34.9092L45.0605 33.9455L43.7123 34.9092C43.5376 35.034 43.305 34.8647 43.3694 34.6603L43.8695 33.0803L42.5364 32.0956C42.3638 31.9679 42.4527 31.6945 42.6673 31.6926L44.3246 31.68L44.8488 30.1078C44.9162 29.9042 45.2043 29.9042 45.2722 30.1078Z" fill="#F5F5F5"/>
<path d="M45.2722 38.3346L45.7964 39.9068L47.4537 39.9194C47.6684 39.9213 47.7572 40.1949 47.5846 40.3224L46.2515 41.307L46.7516 42.887C46.8165 43.0915 46.5834 43.261 46.4087 43.136L45.0605 42.1723L43.7123 43.136C43.5376 43.2608 43.305 43.0915 43.3694 42.887L43.8695 41.307L42.5364 40.3224C42.3638 40.1947 42.4527 39.9213 42.6673 39.9194L44.3246 39.9068L44.8488 38.3346C44.9162 38.1307 45.2043 38.1307 45.2722 38.3346Z" fill="#F5F5F5"/>
<path d="M51.6569 9.46893L52.1812 11.0412L53.8385 11.0538C54.0531 11.0556 54.1419 11.3293 53.9694 11.4567L52.6362 12.4414L53.1363 14.0214C53.2013 14.2258 52.9681 14.3954 52.7935 14.2704L51.4453 13.3067L50.0971 14.2704C49.9224 14.3951 49.6898 14.2258 49.7542 14.0214L50.2543 12.4414L48.9211 11.4567C48.7486 11.329 48.8374 11.0556 49.0521 11.0538L50.7093 11.0412L51.2336 9.46893C51.3012 9.26556 51.5893 9.26556 51.6569 9.46893Z" fill="#F5F5F5"/>
<path d="M51.6569 17.6918L52.1812 19.264L53.8385 19.2766C54.0531 19.2785 54.1419 19.5522 53.9694 19.6796L52.6362 20.6642L53.1363 22.2442C53.2013 22.4487 52.9681 22.6183 52.7935 22.4932L51.4453 21.5295L50.0971 22.4932C49.9224 22.618 49.6898 22.449 49.7542 22.2442L50.2543 20.6642L48.9211 19.6796C48.7486 19.5519 48.8374 19.2785 49.0521 19.2766L50.7093 19.264L51.2336 17.6918C51.3012 17.4882 51.5893 17.4882 51.6569 17.6918Z" fill="#F5F5F5"/>
<path d="M51.6569 25.9184L52.1812 27.4906L53.8385 27.5032C54.0531 27.5051 54.1419 27.7787 53.9694 27.9062L52.6362 28.8908L53.1363 30.4708C53.2013 30.6753 52.9681 30.8448 52.7935 30.7198L51.4453 29.7561L50.0971 30.7198C49.9224 30.8446 49.6898 30.6753 49.7542 30.4708L50.2543 28.8908L48.9211 27.9062C48.7486 27.7785 48.8374 27.5051 49.0521 27.5032L50.7093 27.4906L51.2336 25.9184C51.3012 25.7147 51.5893 25.7147 51.6569 25.9184Z" fill="#F5F5F5"/>
<path d="M51.6569 34.1408L52.1812 35.713L53.8385 35.7256C54.0531 35.7275 54.1419 36.0012 53.9694 36.1286L52.6362 37.1133L53.1363 38.6933C53.2013 38.8977 52.9681 39.0673 52.7935 38.9423L51.4453 37.9785L50.0971 38.9423C49.9224 39.067 49.6898 38.8977 49.7542 38.6933L50.2543 37.1133L48.9211 36.1286C48.7486 36.0009 48.8374 35.7275 49.0521 35.7256L50.7093 35.713L51.2336 34.1408C51.3012 33.9374 51.5893 33.9374 51.6569 34.1408Z" fill="#F5F5F5"/>
<path d="M58.0378 5.43593L58.5621 7.00815L60.2193 7.02076C60.434 7.02264 60.5228 7.2963 60.3503 7.42374L59.0171 8.40839L59.5172 9.98839C59.5821 10.1928 59.349 10.3624 59.1743 10.2374L57.8261 9.27365L56.4779 10.2374C56.3033 10.3621 56.0707 10.1928 56.1351 9.98839L56.6352 8.40839L55.302 7.42374C55.1295 7.29603 55.2183 7.02264 55.4329 7.02076L57.0902 7.00815L57.6144 5.43593C57.6821 5.23229 57.9697 5.23229 58.0378 5.43593Z" fill="#F5F5F5"/>
<path d="M58.0378 13.6584L58.5621 15.2306L60.2193 15.2432C60.434 15.2451 60.5228 15.5188 60.3503 15.6462L59.0171 16.6308L59.5172 18.2108C59.5821 18.4153 59.349 18.5849 59.1743 18.4598L57.8261 17.4961L56.4779 18.4598C56.3033 18.5846 56.0707 18.4153 56.1351 18.2108L56.6352 16.6308L55.302 15.6462C55.1295 15.5185 55.2183 15.2451 55.4329 15.2432L57.0902 15.2306L57.6144 13.6584C57.6821 13.455 57.9697 13.455 58.0378 13.6584Z" fill="#F5F5F5"/>
<path d="M58.0378 21.8849L58.5621 23.4572L60.2193 23.4698C60.434 23.4717 60.5228 23.7453 60.3503 23.8728L59.0171 24.8574L59.5172 26.4374C59.5821 26.6419 59.349 26.8114 59.1743 26.6864L57.8261 25.7227L56.4779 26.6864C56.3033 26.8112 56.0707 26.6419 56.1351 26.4374L56.6352 24.8574L55.302 23.8728C55.1295 23.7451 55.2183 23.4717 55.4329 23.4698L57.0902 23.4572L57.6144 21.8849C57.6821 21.6816 57.9697 21.6816 58.0378 21.8849Z" fill="#F5F5F5"/>
<path d="M58.0378 30.1078L58.5621 31.68L60.2193 31.6926C60.434 31.6945 60.5228 31.9682 60.3503 32.0956L59.0171 33.0803L59.5172 34.6603C59.5821 34.8647 59.349 35.0343 59.1743 34.9092L57.8261 33.9455L56.4779 34.9092C56.3033 35.034 56.0707 34.8647 56.1351 34.6603L56.6352 33.0803L55.302 32.0956C55.1295 31.9679 55.2183 31.6945 55.4329 31.6926L57.0902 31.68L57.6144 30.1078C57.6821 29.9042 57.9697 29.9042 58.0378 30.1078Z" fill="#F5F5F5"/>
<path d="M58.0378 38.3346L58.5621 39.9068L60.2193 39.9194C60.434 39.9213 60.5228 40.1949 60.3503 40.3224L59.0171 41.307L59.5172 42.887C59.5821 43.0915 59.349 43.261 59.1743 43.136L57.8261 42.1723L56.4779 43.136C56.3033 43.2608 56.0707 43.0915 56.1351 42.887L56.6352 41.307L55.302 40.3224C55.1295 40.1947 55.2183 39.9213 55.4329 39.9194L57.0902 39.9068L57.6144 38.3346C57.6821 38.1307 57.9697 38.1307 58.0378 38.3346Z" fill="#F5F5F5"/>
</svg>
