<svg width="85" height="85" viewBox="0 0 85 85" fill="none" xmlns="http://www.w3.org/2000/svg">
<path d="M49.5205 19.0234C48.7874 19.0234 48.1924 19.6184 48.1924 20.3516C48.1924 21.0847 48.7874 21.6797 49.5205 21.6797C50.2536 21.6797 50.8486 21.0847 50.8486 20.3516C50.8486 19.6184 50.2536 19.0234 49.5205 19.0234Z" fill="url(#paint0_linear_2158_10)"/>
<path d="M36.2393 19.0234C35.5061 19.0234 34.9111 19.6184 34.9111 20.3516C34.9111 21.0847 35.5061 21.6797 36.2393 21.6797C36.9724 21.6797 37.5674 21.0847 37.5674 20.3516C37.5674 19.6184 36.9724 19.0234 36.2393 19.0234Z" fill="url(#paint1_linear_2158_10)"/>
<path d="M71.7165 47.6953C72.8565 45.9844 73.4268 43.8497 73.4268 42C73.4268 39.2115 72.188 36.6207 70.0624 34.8639C70.5328 33.7397 70.7705 32.5706 70.7705 31.375C70.7705 27.6755 68.6115 24.2293 65.4016 22.62C65.8886 18.5806 63.2565 14.8781 59.3559 13.9337C57.8293 10.4044 54.4313 8 50.8486 8C47.5137 8 44.5226 9.94517 42.8799 12.7834C41.237 9.94517 38.2459 8 34.9111 8C31.3283 8 27.9302 10.4044 26.4038 13.9338C22.4799 14.8842 19.8725 18.6052 20.3582 22.62C17.1484 24.2292 14.9893 27.6755 14.9893 31.375C14.9893 32.5706 15.227 33.7397 15.6974 34.8639C13.5718 36.6208 12.333 39.2115 12.333 42C12.333 43.8594 12.9081 45.9913 14.0432 47.6951C12.934 49.261 12.333 51.1168 12.333 53.0234C12.333 55.4959 13.3355 57.8512 15.1087 59.6C14.197 65.1107 18.5918 70.6875 24.2861 70.6875C24.3273 70.6875 24.3678 70.6868 24.4075 70.6856C26.2955 73.9425 29.7998 76 33.583 76C37.5259 76 41.0492 73.6333 42.8799 70.2235C44.7106 73.6333 48.2338 76 52.1768 76C55.9599 76 59.4643 73.9425 61.3522 70.6856C61.3921 70.6868 61.4325 70.6875 61.4736 70.6875C66.5131 70.6875 70.7705 66.2476 70.7705 60.9922C70.7705 60.5447 70.7312 60.0845 70.6511 59.6C72.4243 57.8512 73.4268 55.496 73.4268 53.0234C73.4268 51.1168 72.8258 49.261 71.7165 47.6953ZM41.5518 28.1053C40.7698 27.6517 39.8628 27.3906 38.8955 27.3906C38.162 27.3906 37.5674 27.9852 37.5674 28.7188C37.5674 29.4523 38.162 30.0469 38.8955 30.0469C40.3602 30.0469 41.5518 31.2385 41.5518 32.7031V57.9599C39.6033 55.7498 36.7542 54.3516 33.583 54.3516C32.8495 54.3516 32.2549 54.9462 32.2549 55.6797C32.2549 56.4132 32.8495 57.0078 33.583 57.0078C37.977 57.0078 41.5518 60.5826 41.5518 64.9766C41.5518 69.512 37.9025 73.3438 33.583 73.3438C30.5081 73.3438 27.6775 71.5254 26.3714 68.7113C26.1306 68.1926 25.5853 67.8868 25.0167 67.9508C24.9228 67.9615 24.8295 67.974 24.7361 67.9868C20.9563 68.5037 16.6996 64.2235 17.8519 59.4354C17.9702 58.9436 17.7989 58.4274 17.4102 58.1039C15.8717 56.8237 14.9893 54.9719 14.9893 53.0234C14.9893 51.8187 15.3299 50.6397 15.9638 49.6059C17.5568 50.9115 19.5382 51.6953 21.6299 51.6953C22.3634 51.6953 22.958 51.1007 22.958 50.3672C22.958 49.6337 22.3634 49.0391 21.6299 49.0391C18.0255 49.0391 14.9893 45.7493 14.9893 42C14.9893 39.7256 16.1486 37.6333 18.0907 36.403C18.689 36.024 18.8846 35.2421 18.5352 34.626C17.9449 33.5849 17.6455 32.491 17.6455 31.375C17.6455 27.7904 20.5676 24.3359 24.2861 24.3359C27.8237 24.3359 30.9268 27.6253 30.9268 31.375C30.9268 32.1085 31.5214 32.7031 32.2549 32.7031C32.9884 32.7031 33.583 32.1085 33.583 31.375C33.583 26.1196 29.3256 21.6797 24.2861 21.6797C23.8415 21.6797 23.3992 21.7157 22.9613 21.7838C22.9607 21.7489 22.958 21.7149 22.958 21.6797C22.958 18.7157 25.3642 16.3672 28.2705 16.3672C29.6892 16.3672 31.0237 16.9198 32.028 17.9231C32.5469 18.4415 33.3878 18.4409 33.9063 17.9222C34.4246 17.4031 34.4242 16.5623 33.9053 16.0439C32.6937 14.8336 31.1612 14.0617 29.5004 13.8059C30.6716 12.0673 32.6193 10.6562 34.9111 10.6562C38.4487 10.6562 41.5518 13.9455 41.5518 17.6953V28.1053ZM64.1299 51.6953C66.2217 51.6953 68.2031 50.9113 69.7961 49.6063C70.4298 50.64 70.7705 51.8188 70.7705 53.0234C70.7705 54.9719 69.8881 56.8237 68.3497 58.1039C67.9609 58.4274 67.7897 58.9437 67.908 59.4354C68.0488 60.0201 68.1143 60.5149 68.1143 60.9921C68.1143 65.1146 64.3855 68.4463 61.0238 67.9868C60.9304 67.974 60.8369 67.9614 60.743 67.9508C60.1737 67.8864 59.629 68.1926 59.3885 68.7113C58.0824 71.5254 55.2515 73.3438 52.1768 73.3438C47.8573 73.3438 44.208 69.512 44.208 64.9766C44.208 60.5826 47.7828 57.0078 52.1768 57.0078C52.9101 57.0078 53.5049 56.4132 53.5049 55.6797C53.5049 54.9462 52.9101 54.3516 52.1768 54.3516C49.0056 54.3516 46.1565 55.7498 44.208 57.9599V32.7031C44.208 31.2385 45.3996 30.0469 46.8643 30.0469C47.5976 30.0469 48.1924 29.4523 48.1924 28.7188C48.1924 27.9852 47.5976 27.3906 46.8643 27.3906C45.897 27.3906 44.99 27.6517 44.208 28.1053V17.6953C44.208 13.9455 47.311 10.6562 50.8486 10.6562C53.1404 10.6562 55.088 12.0673 56.2593 13.8058C54.5986 14.0616 53.0662 14.8335 51.8544 16.0438C51.3354 16.5622 51.3349 17.403 51.8532 17.922C52.3716 18.4411 53.2127 18.4415 53.7315 17.9231C54.7362 16.9198 56.0706 16.3672 57.4893 16.3672C60.4102 16.3672 62.8018 18.7295 62.8018 21.6797C62.8018 21.7148 62.7991 21.7489 62.7984 21.7838C62.3606 21.7157 61.9183 21.6797 61.4736 21.6797C56.4342 21.6797 52.1768 26.1196 52.1768 31.375C52.1768 32.1085 52.7715 32.7031 53.5049 32.7031C54.2383 32.7031 54.833 32.1085 54.833 31.375C54.833 27.6253 57.936 24.3359 61.4736 24.3359C65.19 24.3359 68.1143 27.7887 68.1143 31.375C68.1143 32.491 67.8149 33.5849 67.2245 34.626C66.8752 35.2421 67.0709 36.024 67.6692 36.403C69.6112 37.6333 70.7705 39.7256 70.7705 42C70.7705 45.7627 67.7237 49.0391 64.1299 49.0391C63.3965 49.0391 62.8018 49.6337 62.8018 50.3672C62.8018 51.1007 63.3965 51.6953 64.1299 51.6953Z" fill="url(#paint2_linear_2158_10)"/>
<path d="M38.5572 36.4289C38.0682 35.8823 37.2287 35.8355 36.6819 36.3245C32.4229 40.1343 25.6143 37.0895 25.6143 31.375C25.6143 30.6415 25.0197 30.0469 24.2861 30.0469C23.5526 30.0469 22.958 30.6415 22.958 31.375C22.958 35.9856 26.3324 39.8212 30.7408 40.5466C30.2295 42.1574 28.7202 43.3281 26.9424 43.3281C26.2089 43.3281 25.6143 43.9227 25.6143 44.6562C25.6143 45.3898 26.2089 45.9844 26.9424 45.9844C30.1773 45.9844 32.8778 43.6588 33.4637 40.5919C35.3108 40.3503 37.0491 39.56 38.4528 38.3042C38.9995 37.8152 39.0463 36.9756 38.5572 36.4289Z" fill="url(#paint3_linear_2158_10)"/>
<path d="M24.2861 59.6641C23.5526 59.6641 22.958 60.2587 22.958 60.9922C22.958 61.7257 23.5526 62.3203 24.2861 62.3203C27.8237 62.3203 30.9268 65.6097 30.9268 69.3594C30.9268 70.0929 31.5214 70.6875 32.2549 70.6875C32.9884 70.6875 33.583 70.0929 33.583 69.3594C33.583 64.104 29.3256 59.6641 24.2861 59.6641Z" fill="url(#paint4_linear_2158_10)"/>
<path d="M34.911 49.0391C30.4105 49.0391 26.5465 51.5074 24.5118 55.0964C24.1501 55.7345 24.3742 56.5451 25.0122 56.9067C25.6504 57.2684 26.4608 57.0445 26.8226 56.4063C28.4077 53.6098 31.4154 51.6953 34.911 51.6953C35.6445 51.6953 36.2391 51.1007 36.2391 50.3672C36.2391 49.6337 35.6445 49.0391 34.911 49.0391Z" fill="url(#paint5_linear_2158_10)"/>
<path d="M58.8174 43.3281C57.0396 43.3281 55.5303 42.1574 55.019 40.5466C59.4274 39.8212 62.8018 35.9856 62.8018 31.375C62.8018 30.6415 62.2071 30.0469 61.4737 30.0469C60.7403 30.0469 60.1455 30.6415 60.1455 31.375C60.1455 35.0366 57.1665 38.0156 53.5049 38.0156C51.8692 38.0156 50.2971 37.415 49.0779 36.3245C48.5313 35.8355 47.6916 35.8821 47.2026 36.4289C46.7134 36.9756 46.7603 37.8152 47.3069 38.3042C48.7106 39.56 50.4492 40.3503 52.2961 40.5919C52.882 43.6588 55.5825 45.9844 58.8174 45.9844C59.5508 45.9844 60.1455 45.3898 60.1455 44.6562C60.1455 43.9227 59.5508 43.3281 58.8174 43.3281Z" fill="url(#paint6_linear_2158_10)"/>
<path d="M61.4736 59.6641C56.4342 59.6641 52.1768 64.104 52.1768 69.3594C52.1768 70.0929 52.7715 70.6875 53.5049 70.6875C54.2383 70.6875 54.833 70.0929 54.833 69.3594C54.833 65.6097 57.936 62.3203 61.4736 62.3203C62.207 62.3203 62.8018 61.7257 62.8018 60.9922C62.8018 60.2587 62.207 59.6641 61.4736 59.6641Z" fill="url(#paint7_linear_2158_10)"/>
<path d="M61.2478 55.0965C59.2182 51.516 55.3595 49.0391 50.8486 49.0391C50.1152 49.0391 49.5205 49.6337 49.5205 50.3672C49.5205 51.1007 50.1152 51.6953 50.8486 51.6953C54.3417 51.6953 57.3517 53.6093 58.9368 56.4063C59.299 57.0453 60.11 57.2681 60.7471 56.9069C61.3853 56.5452 61.6094 55.7347 61.2478 55.0965Z" fill="url(#paint8_linear_2158_10)"/>
<defs>
<linearGradient id="paint0_linear_2158_10" x1="73.4268" y1="8" x2="5.81489" y2="68.745" gradientUnits="userSpaceOnUse">
<stop stop-color="#DAC597"/>
<stop offset="0.50272" stop-color="#ECDDBE"/>
<stop offset="1" stop-color="#977F50"/>
</linearGradient>
<linearGradient id="paint1_linear_2158_10" x1="73.4268" y1="8" x2="5.81489" y2="68.745" gradientUnits="userSpaceOnUse">
<stop stop-color="#DAC597"/>
<stop offset="0.50272" stop-color="#ECDDBE"/>
<stop offset="1" stop-color="#977F50"/>
</linearGradient>
<linearGradient id="paint2_linear_2158_10" x1="73.4268" y1="8" x2="5.81489" y2="68.745" gradientUnits="userSpaceOnUse">
<stop stop-color="#DAC597"/>
<stop offset="0.50272" stop-color="#ECDDBE"/>
<stop offset="1" stop-color="#977F50"/>
</linearGradient>
<linearGradient id="paint3_linear_2158_10" x1="73.4268" y1="8" x2="5.81489" y2="68.745" gradientUnits="userSpaceOnUse">
<stop stop-color="#DAC597"/>
<stop offset="0.50272" stop-color="#ECDDBE"/>
<stop offset="1" stop-color="#977F50"/>
</linearGradient>
<linearGradient id="paint4_linear_2158_10" x1="73.4268" y1="8" x2="5.81489" y2="68.745" gradientUnits="userSpaceOnUse">
<stop stop-color="#DAC597"/>
<stop offset="0.50272" stop-color="#ECDDBE"/>
<stop offset="1" stop-color="#977F50"/>
</linearGradient>
<linearGradient id="paint5_linear_2158_10" x1="73.4268" y1="8" x2="5.81489" y2="68.745" gradientUnits="userSpaceOnUse">
<stop stop-color="#DAC597"/>
<stop offset="0.50272" stop-color="#ECDDBE"/>
<stop offset="1" stop-color="#977F50"/>
</linearGradient>
<linearGradient id="paint6_linear_2158_10" x1="73.4268" y1="8" x2="5.81489" y2="68.745" gradientUnits="userSpaceOnUse">
<stop stop-color="#DAC597"/>
<stop offset="0.50272" stop-color="#ECDDBE"/>
<stop offset="1" stop-color="#977F50"/>
</linearGradient>
<linearGradient id="paint7_linear_2158_10" x1="73.4268" y1="8" x2="5.81489" y2="68.745" gradientUnits="userSpaceOnUse">
<stop stop-color="#DAC597"/>
<stop offset="0.50272" stop-color="#ECDDBE"/>
<stop offset="1" stop-color="#977F50"/>
</linearGradient>
<linearGradient id="paint8_linear_2158_10" x1="73.4268" y1="8" x2="5.81489" y2="68.745" gradientUnits="userSpaceOnUse">
<stop stop-color="#DAC597"/>
<stop offset="0.50272" stop-color="#ECDDBE"/>
<stop offset="1" stop-color="#977F50"/>
</linearGradient>
</defs>
</svg>
