<svg width="138" height="90" viewBox="0 0 138 90" fill="none" xmlns="http://www.w3.org/2000/svg">
<g clip-path="url(#clip0_2206_308)">
<path d="M135.313 91.0672H2.6868C1.3789 91.0672 0.318359 89.9815 0.318359 88.6426V1.35827C0.318359 0.0193143 1.3789 -1.06641 2.6868 -1.06641H135.313C136.621 -1.06641 137.681 0.0193143 137.681 1.35827V88.6426C137.681 89.9818 136.621 91.0672 135.313 91.0672Z" fill="#FF4B55"/>
<path d="M23.1239 13.3392L25.3818 20.2699L32.5182 20.3265C33.4422 20.3336 33.8253 21.541 33.0818 22.1027L27.341 26.4426L29.4935 33.4084C29.772 34.3104 28.7691 35.0561 28.0174 34.5062L22.2117 30.2576L16.4059 34.506C15.6542 35.0561 14.6514 34.3099 14.9298 33.4082L17.0823 26.4423L11.3415 22.1027C10.5981 21.5408 10.9812 20.3336 11.9052 20.3265L19.0416 20.2699L21.2995 13.3392C21.5919 12.4416 22.8317 12.4416 23.1239 13.3392Z" fill="#FFE15A"/>
<path d="M49.0383 15.0496L50.6574 17.31L53.2703 16.4734C53.6086 16.3652 53.8868 16.7602 53.6797 17.0543L52.0802 19.3288L53.6647 21.6142C53.8699 21.91 53.589 22.303 53.2515 22.1923L50.644 21.3379L49.0104 23.5871C48.799 23.8782 48.3469 23.726 48.3456 23.3635L48.3335 20.5606L45.7392 19.6649C45.4036 19.5488 45.4049 19.0621 45.7416 18.9484L48.3413 18.0706L48.3719 15.2679C48.3757 14.9057 48.8288 14.7571 49.0383 15.0496Z" fill="#FFE15A"/>
<path d="M39.1812 8.31039L41.903 8.61307L43.0642 6.07495C43.2147 5.74646 43.6869 5.80277 43.7593 6.1579L44.3189 8.90118L47.0356 9.24725C47.3873 9.29202 47.481 9.76938 47.1732 9.94983L44.7976 11.3423L45.3156 14.0944C45.3827 14.4509 44.9682 14.6893 44.7055 14.4457L42.6776 12.5629L40.2812 13.9175C39.9711 14.093 39.621 13.7629 39.7664 13.4319L40.8886 10.8754L38.8894 8.96051C38.6307 8.71387 38.829 8.27139 39.1812 8.31039Z" fill="#FFE15A"/>
<path d="M43.484 35.4715L41.8649 37.732L39.252 36.8953C38.9137 36.7871 38.6355 37.1821 38.8426 37.4762L40.4422 39.7507L38.8576 42.0361C38.6524 42.3319 38.9333 42.725 39.2708 42.6143L41.8783 41.7598L43.5119 44.009C43.7233 44.3001 44.1754 44.148 44.1767 43.7854L44.1888 40.9825L46.7831 40.0869C47.119 39.9707 47.1174 39.484 46.7807 39.3703L44.181 38.4925L44.1504 35.6899C44.1461 35.3279 43.6935 35.1787 43.484 35.4715Z" fill="#FFE15A"/>
<path d="M53.3404 29.1405L50.6186 29.4431L49.4574 26.905C49.3069 26.5765 48.8348 26.6328 48.7623 26.988L48.2024 29.7313L45.4857 30.0773C45.134 30.1221 45.0404 30.5995 45.3481 30.7799L47.7238 32.1724L47.2057 34.9245C47.1386 35.281 47.5531 35.5194 47.8158 35.2758L49.8438 33.393L52.2401 34.7476C52.5503 34.9231 52.9004 34.593 52.755 34.262L51.6327 31.7055L53.632 29.7906C53.8914 29.5439 53.6932 29.1015 53.3404 29.1405Z" fill="#FFE15A"/>
</g>
<defs>
<clipPath id="clip0_2206_308">
<rect x="0.318359" width="137.363" height="90" rx="8" fill="white"/>
</clipPath>
</defs>
</svg>
