<svg width="138" height="90" viewBox="0 0 138 90" fill="none" xmlns="http://www.w3.org/2000/svg">
<g clip-path="url(#clip0_2206_246)">
<path d="M135.076 91.1512H2.45047C1.14257 91.1512 0.0820312 90.0655 0.0820312 88.7266V1.44226C0.0820312 0.103299 1.14257 -0.982422 2.45047 -0.982422H135.077C136.385 -0.982422 137.445 0.103299 137.445 1.44226V88.7266C137.445 90.0658 136.384 91.1512 135.076 91.1512Z" fill="#FF4B55"/>
<path d="M35.6892 45.0831C35.6892 55.803 44.1756 64.4913 54.6374 64.4913C58.5365 64.4913 62.1318 63.2647 65.1264 61.1858C65.5801 60.871 66.104 61.478 65.7244 61.8826C61.4281 66.4639 55.4115 69.3291 48.7169 69.3291C35.1266 69.3291 24.211 57.6004 25.0929 43.4877C25.8631 31.1665 35.8413 21.2733 47.8943 20.8523C54.91 20.607 61.2373 23.5099 65.708 28.2683C66.0914 28.6765 65.5685 29.2925 65.1106 28.975C62.1192 26.9008 58.5297 25.6753 54.6374 25.6753C44.1759 25.6753 35.6892 34.383 35.6892 45.0831Z" fill="#F5F5F5"/>
<path d="M78.8783 41.7475L75.166 36.7759C74.9586 36.498 74.5246 36.6504 74.5278 37.0003L74.582 43.2578L68.8162 45.3359C68.4937 45.4521 68.5015 45.9215 68.8275 46.0267L74.6574 47.9078L74.8063 54.1637C74.8146 54.5133 75.2535 54.6509 75.4518 54.3661L79.0006 49.2712L84.8584 51.0595C85.1857 51.1595 85.4492 50.7752 85.2458 50.494L81.6092 45.4639L85.0806 40.3132C85.2748 40.0254 84.999 39.6502 84.6749 39.7612L78.8783 41.7475Z" fill="#F5F5F5"/>
</g>
<defs>
<clipPath id="clip0_2206_246">
<rect x="0.318359" width="137.363" height="90" rx="8" fill="white"/>
</clipPath>
</defs>
</svg>
