<svg width="226" height="226" viewBox="0 0 226 226" fill="none" xmlns="http://www.w3.org/2000/svg">
<path d="M180.267 183.62L190.705 194.934L189.509 196.037L179.07 184.722L180.267 183.62Z" fill="url(#paint0_linear_2110_48)"/>
<path d="M175.172 188.44L184.094 200.984L183 201.762L166.593 197.02L167.167 196.613L174.915 207.507L173.606 208.438L164.686 195.894L165.779 195.117L182.168 199.871L181.595 200.279L173.845 189.384L175.172 188.44Z" fill="url(#paint1_linear_2110_48)"/>
<path d="M156.456 200.129C157.484 199.626 158.553 199.308 159.663 199.174C160.765 199.059 161.702 199.14 162.474 199.416L162.451 200.821C161.732 200.585 160.883 200.502 159.906 200.572C158.921 200.662 157.974 200.928 157.065 201.373C156.195 201.798 155.543 202.247 155.106 202.722C154.662 203.216 154.405 203.709 154.335 204.199C154.251 204.697 154.319 205.17 154.538 205.618C154.802 206.157 155.173 206.515 155.65 206.69C156.113 206.871 156.641 206.932 157.232 206.871C157.829 206.824 158.466 206.725 159.143 206.574C159.82 206.423 160.499 206.278 161.183 206.14C161.873 206.015 162.542 205.965 163.191 205.991C163.827 206.023 164.413 206.185 164.947 206.479C165.476 206.792 165.92 207.317 166.281 208.054C166.616 208.739 166.744 209.451 166.665 210.192C166.579 210.952 166.245 211.686 165.661 212.396C165.084 213.117 164.21 213.765 163.037 214.339C162.26 214.718 161.434 214.982 160.56 215.132C159.694 215.295 158.89 215.32 158.15 215.208L158.074 213.802C158.86 213.907 159.634 213.888 160.397 213.744C161.145 213.606 161.829 213.386 162.448 213.084C163.278 212.679 163.909 212.232 164.34 211.744C164.769 211.256 165.023 210.757 165.1 210.247C165.17 209.755 165.089 209.272 164.857 208.799C164.594 208.259 164.23 207.898 163.766 207.717C163.289 207.542 162.755 207.485 162.164 207.545C161.56 207.611 160.919 207.72 160.243 207.872C159.566 208.023 158.889 208.158 158.213 208.276C157.523 208.401 156.86 208.448 156.224 208.416C155.582 208.403 155 208.247 154.478 207.947C153.943 207.654 153.498 207.146 153.144 206.421C152.815 205.749 152.694 205.034 152.779 204.274C152.871 203.528 153.213 202.79 153.803 202.062C154.387 201.352 155.271 200.707 156.456 200.129Z" fill="url(#paint2_linear_2110_48)"/>
<path d="M144.619 205.208L148.922 218.514L154.07 216.85L154.503 218.189L142.658 222.017L142.225 220.678L147.374 219.015L143.071 205.709L144.619 205.208Z" fill="url(#paint3_linear_2110_48)"/>
<path d="M134.853 207.968L138.054 223.024L136.461 223.361L133.261 208.306L134.853 207.968Z" fill="url(#paint4_linear_2110_48)"/>
<path d="M124.734 209.716L126.178 223.625L131.559 223.067L131.705 224.467L119.322 225.751L119.177 224.352L124.559 223.793L123.115 209.884L124.734 209.716Z" fill="url(#paint5_linear_2110_48)"/>
<path d="M108.725 210.163C110.686 210.267 112.202 210.913 113.27 212.099C114.337 213.286 114.812 214.984 114.695 217.195L114.228 226L112.604 225.914L113.067 217.175C113.163 215.36 112.824 213.999 112.049 213.091C111.275 212.185 110.141 211.691 108.648 211.612C107.139 211.532 105.952 211.903 105.087 212.723C104.221 213.543 103.74 214.861 103.644 216.676L103.181 225.414L101.599 225.331L102.066 216.526C102.183 214.316 102.835 212.678 104.023 211.61C105.194 210.542 106.762 210.059 108.725 210.163Z" fill="url(#paint6_linear_2110_48)"/>
<path d="M94.253 208.563L91.3907 222.251L96.6875 223.357L96.3985 224.735L84.2134 222.188L84.5013 220.811L89.7981 221.918L92.6604 208.23L94.253 208.563Z" fill="url(#paint7_linear_2110_48)"/>
<path d="M80.2673 213.77L72.6221 210.981L73.097 209.679L80.7422 212.469L80.2673 213.77ZM82.5378 207.038L73.8388 203.865L74.3217 202.542L84.5493 206.273L79.2706 220.732L69.3529 217.114L69.8358 215.792L78.2238 218.852L82.5378 207.038Z" fill="url(#paint8_linear_2110_48)"/>
<path d="M35.6129 171.82C36.3093 172.745 36.8048 173.721 37.0994 174.746C37.3736 175.77 37.4498 176.785 37.328 177.793C37.1857 178.799 36.8629 179.748 36.3598 180.64C35.8361 181.529 35.123 182.313 34.2208 182.991C33.3184 183.67 32.3733 184.133 31.3853 184.381C30.3769 184.625 29.3754 184.671 28.381 184.521C27.3661 184.367 26.411 184.012 25.5158 183.456C24.6088 182.909 23.8028 182.167 23.0977 181.23C22.4013 180.305 21.9162 179.33 21.642 178.308C21.3561 177.294 21.2785 176.288 21.4091 175.292C21.5308 174.282 21.8536 173.334 22.3772 172.444C22.8921 171.544 23.6008 170.754 24.503 170.076C25.4054 169.397 26.3608 168.936 27.3693 168.692C28.3689 168.435 29.3704 168.388 30.3736 168.551C31.3679 168.702 32.3186 169.051 33.2256 169.598C34.1208 170.154 34.9166 170.894 35.6129 171.82ZM34.4528 172.692C33.8975 171.954 33.2632 171.367 32.55 170.931C31.8162 170.492 31.0489 170.217 30.2482 170.104C29.4269 169.987 28.6146 170.03 27.8114 170.23C26.9964 170.44 26.2197 170.821 25.4815 171.376C24.7432 171.932 24.1663 172.567 23.7509 173.283C23.3237 174.007 23.058 174.776 22.9535 175.589C22.8285 176.397 22.8809 177.211 23.1109 178.028C23.3202 178.844 23.7025 179.619 24.2578 180.358C24.8131 181.095 25.4576 181.684 26.1914 182.123C26.9135 182.571 27.6851 182.852 28.5064 182.968C29.3072 183.081 30.1195 183.039 30.9433 182.841C31.7465 182.642 32.5174 182.264 33.2556 181.708C33.9821 181.162 34.559 180.527 34.9861 179.802C35.4045 179.066 35.6761 178.293 35.8011 177.484C35.9056 176.671 35.8487 175.851 35.6305 175.025C35.4007 174.207 35.0081 173.43 34.4528 172.692Z" fill="url(#paint9_linear_2110_48)"/>
<path d="M21.0171 164.344L17.279 157.117L18.5294 156.47L22.2675 163.697L21.0171 164.344ZM27.9892 160.541L28.7368 161.986L15.0607 169.056L10.2114 159.682L11.4617 159.035L15.5634 166.964L27.9892 160.541Z" fill="url(#paint10_linear_2110_48)"/>
<path d="M15.3246 111.702L0 110.219L0.129273 108.883L12.7611 103.038L12.6932 103.738L1.41217 95.6429L1.54154 94.3077L16.8662 95.7919L16.7157 97.346L3.821 96.0967L3.8571 95.7249L14.1841 103.176L14.1099 103.941L2.5403 109.316L2.58059 108.9L15.4752 110.149L15.3246 111.702Z" fill="url(#paint11_linear_2110_48)"/>
<path d="M10.1763 87.4346L12.4222 79.615L13.7541 79.9978L11.5082 87.8174L10.1763 87.4346ZM17.0534 89.2256L19.6088 80.3286L20.9618 80.7164L17.9572 91.1775L3.15866 86.9309L6.07217 76.7866L7.42526 77.1744L4.96084 85.7546L17.0534 89.2256Z" fill="url(#paint12_linear_2110_48)"/>
<path d="M23.5927 74.354L10.8246 68.6413L8.61408 73.5785L7.32928 73.0028L12.4152 61.6442L13.7 62.2192L11.4895 67.1561L24.2576 72.8689L23.5927 74.354Z" fill="url(#paint13_linear_2110_48)"/>
<path d="M26.5447 67.352L17.4099 53.1041L18.2791 51.7545L35.0346 54.1711L34.1058 55.6131L18.4552 53.2277L18.8124 52.6731L27.4615 65.9288L26.5447 67.352ZM24.5868 62.797L23.7391 61.676L28.5855 54.1519L29.957 54.4594L24.5868 62.797Z" fill="url(#paint14_linear_2110_48)"/>
<path d="M41.2141 47.3657C40.4388 48.2262 39.5808 48.8938 38.64 49.3685C37.6883 49.8333 36.7107 50.0972 35.7068 50.1599C34.7029 50.2228 33.7096 50.0879 32.7266 49.7552C31.7534 49.4116 30.8474 48.8621 30.0085 48.1067C29.1695 47.3513 28.5284 46.5078 28.0852 45.576C27.6518 44.6335 27.414 43.6598 27.3719 42.6553C27.3396 41.6398 27.5105 40.6396 27.8848 39.6549C28.2481 38.6603 28.8173 37.7327 29.5925 36.8723C30.3384 36.0445 31.1817 35.3932 32.1225 34.9186C33.0523 34.4341 34.0208 34.1915 35.0279 34.1908L35.1042 35.6503C34.2028 35.687 33.3935 35.8953 32.6761 36.2753C31.9479 36.6454 31.2894 37.1573 30.7007 37.8107C30.0824 38.497 29.6281 39.242 29.3379 40.046C29.0369 40.8402 28.9079 41.6513 28.9512 42.4794C28.9836 43.2976 29.1756 44.092 29.5274 44.8625C29.8781 45.6122 30.3966 46.296 31.083 46.9141C31.7694 47.5321 32.5093 47.9813 33.3027 48.2616C34.0949 48.5213 34.9052 48.6294 35.7336 48.5861C36.551 48.5331 37.3445 48.3204 38.1141 47.948C38.8729 47.5659 39.5614 47.0317 40.1796 46.3455C40.7684 45.6921 41.209 44.984 41.5013 44.2214C41.7938 43.4588 41.9113 42.6276 41.8539 41.7276L43.3138 41.6514C43.418 42.6527 43.283 43.6457 42.9088 44.6306C42.5346 45.6153 41.9697 46.5271 41.2141 47.3657Z" fill="url(#paint15_linear_2110_48)"/>
<path d="M52.9111 36.4803C51.9962 37.1905 51.028 37.7008 50.0066 38.011C48.9878 38.3008 47.973 38.3926 46.9623 38.2864C45.9541 38.1596 45.0001 37.8515 44.1003 37.3623C43.203 36.8525 42.4081 36.1518 41.7157 35.2604C41.0233 34.3689 40.5456 33.4312 40.2827 32.4476C40.0224 31.4433 39.9602 30.443 40.096 29.4468C40.2344 28.43 40.5747 27.4698 41.1168 26.5665C41.65 25.6515 42.3798 24.8345 43.3063 24.1152C44.2213 23.405 45.1882 22.905 46.2069 22.6153C47.2167 22.3139 48.2212 22.2209 49.2203 22.3361C50.2311 22.4424 51.1852 22.7504 52.0824 23.2602C52.9913 23.761 53.7919 24.4572 54.4844 25.3486C55.1768 26.2401 55.6532 27.1881 55.9135 28.1923C56.1854 29.1876 56.2476 30.1879 56.1002 31.1931C55.9644 32.1893 55.6298 33.1449 55.0968 34.0599C54.5546 34.9633 53.8261 35.77 52.9111 36.4803ZM52.0208 35.3341C52.7504 34.7677 53.3277 34.1247 53.7527 33.4051C54.1802 32.6649 54.4445 31.8937 54.5454 31.0916C54.649 30.2688 54.5943 29.4576 54.3814 28.6577C54.1596 27.8464 53.7654 27.0759 53.1988 26.3466C52.6322 25.6172 51.9878 25.0504 51.2652 24.6461C50.5338 24.2303 49.7611 23.9764 48.9472 23.8845C48.1358 23.772 47.3229 23.8369 46.5087 24.0792C45.697 24.301 44.9263 24.6951 44.1967 25.2615C43.4671 25.8279 42.8884 26.4811 42.4609 27.2213C42.0243 27.9499 41.7543 28.7256 41.6508 29.5482C41.5498 30.3504 41.6045 31.1617 41.8148 31.9821C42.0276 32.7819 42.4173 33.5466 42.9839 34.276C43.5415 34.9938 44.1859 35.5605 44.9173 35.9764C45.6604 36.3833 46.4376 36.6429 47.249 36.7554C48.063 36.8473 48.8816 36.7779 49.7049 36.5472C50.5191 36.3048 51.2912 35.9004 52.0208 35.3341Z" fill="url(#paint16_linear_2110_48)"/>
<path d="M68.6431 26.3637C67.6013 26.9023 66.5496 27.2314 65.4888 27.3506C64.4341 27.4501 63.4203 27.3558 62.4453 27.0674C61.4837 26.7723 60.6018 26.2959 59.7993 25.6381C59.0098 24.9735 58.3558 24.14 57.8372 23.1374C57.3186 22.1348 57.0162 21.1195 56.9301 20.0913C56.857 19.0565 56.9845 18.0583 57.3124 17.0966C57.6404 16.1349 58.1531 15.2593 58.8507 14.4697C59.5545 13.6604 60.4275 12.9863 61.4695 12.4476C62.5114 11.909 63.5463 11.5802 64.574 11.4614C65.6158 11.3358 66.6135 11.4468 67.5693 11.7944L67.1454 13.1769C66.2766 12.9003 65.4328 12.8167 64.614 12.9262C63.7962 13.0356 62.9894 13.2957 62.1949 13.7064C61.3482 14.1441 60.6408 14.6913 60.0726 15.348C59.5107 15.985 59.0974 16.7019 58.8329 17.4988C58.5745 18.2759 58.4741 19.087 58.5314 19.9319C58.5951 20.7571 58.8391 21.5799 59.2635 22.4002C59.681 23.2074 60.2115 23.8821 60.8551 24.424C61.5116 24.9592 62.2351 25.3526 63.0255 25.6041C63.8222 25.8358 64.646 25.9132 65.4978 25.836C66.3556 25.7392 67.2014 25.4752 68.0352 25.0444C68.816 24.6404 69.4919 24.1428 70.0607 23.5515C70.6426 22.9537 71.0825 22.2232 71.3784 21.3604L72.7651 22.0299C72.4102 22.9395 71.8733 23.7695 71.1565 24.5201C70.4316 25.2577 69.5938 25.8722 68.6431 26.3637ZM71.2864 22.5712L68.6801 17.5323L70.0677 16.8152L72.7651 22.0299L71.2864 22.5712Z" fill="url(#paint17_linear_2110_48)"/>
<path d="M77.305 22.0164L72.7331 7.31945L74.0138 6.92107L88.1295 16.5328L87.4576 16.7417L83.4866 3.97634L85.0192 3.49972L89.5921 18.1967L88.3104 18.595L74.2158 8.97681L74.8886 8.76783L78.8597 21.5332L77.305 22.0164Z" fill="url(#paint18_linear_2110_48)"/>
<path d="M94.6709 17.2419L92.0246 2.07972L93.6282 1.79998L96.2746 16.9622L94.6709 17.2419Z" fill="url(#paint19_linear_2110_48)"/>
<path d="M104.994 15.8279L104.057 1.87524L98.658 2.23743L98.564 0.833428L110.985 0L111.079 1.404L105.681 1.7663L106.618 15.7189L104.994 15.8279Z" fill="url(#paint20_linear_2110_48)"/>
<path d="M114.788 15.5001L115.323 0.118135L116.95 0.174702L116.415 15.5567L114.788 15.5001Z" fill="url(#paint21_linear_2110_48)"/>
<path d="M126.517 16.4028L122.155 0.14432L123.894 0.415665L127.96 15.7156L127.004 15.5664L135.585 2.24043L137.216 2.49479L128.104 16.6504L126.517 16.4028Z" fill="url(#paint22_linear_2110_48)"/>
<path d="M141.928 10.8742L149.671 13.378L149.245 14.6961L141.502 12.1922L141.928 10.8742ZM139.909 17.6856L148.719 20.5346L148.286 21.8734L137.927 18.5237L142.666 3.8795L152.711 7.12776L152.277 8.4667L143.781 5.71916L139.909 17.6856Z" fill="url(#paint23_linear_2110_48)"/>
<path d="M183.839 45.5746L195.627 35.6743L199.334 40.0851C200.173 41.0839 200.732 42.0792 201.01 43.071C201.3 44.0532 201.302 44.9898 201.016 45.8806C200.751 46.7731 200.192 47.5776 199.338 48.2942C198.508 48.992 197.625 49.399 196.688 49.5154C195.772 49.6335 194.849 49.4701 193.921 49.0253C192.991 48.5804 192.107 47.8585 191.267 46.8597L188.141 43.1391L189.197 43.1997L184.886 46.8203L183.839 45.5746ZM189.096 43.2845L189.236 42.2198L192.334 45.9067C193.324 47.0852 194.327 47.7653 195.341 47.947C196.376 48.1306 197.36 47.8311 198.292 47.0484C199.234 46.2565 199.705 45.3349 199.703 44.2839C199.71 43.2441 199.218 42.135 198.228 40.9566L195.129 37.2697L196.186 37.3302L189.096 43.2845Z" fill="url(#paint24_linear_2110_48)"/>
<path d="M193.652 57.6114L206.875 49.7263L209.827 54.6736C210.495 55.7939 210.887 56.8658 211.003 57.8894C211.131 58.9053 210.983 59.83 210.558 60.6636C210.154 61.5021 209.473 62.2068 208.516 62.7776C207.583 63.3333 206.647 63.5931 205.704 63.5581C204.781 63.5282 203.896 63.2193 203.05 62.6317C202.217 62.0363 201.466 61.1784 200.797 60.058L198.308 55.8849L199.321 56.1251L194.485 59.0087L193.652 57.6114ZM199.038 66.6374L201.808 60.3773L202.709 61.888L199.95 68.1665L199.038 66.6374ZM199.207 56.1926L199.497 55.1752L201.965 59.3106C202.754 60.6324 203.64 61.4604 204.625 61.7947C205.618 62.1418 206.637 62.0035 207.681 61.3802C208.74 60.7494 209.352 59.9151 209.518 58.8773C209.691 57.8521 209.384 56.6785 208.595 55.3567L206.127 51.2214L207.161 51.4503L199.207 56.1926Z" fill="url(#paint25_linear_2110_48)"/>
<path d="M204.058 78.0919C203.653 77.0075 203.455 75.9311 203.463 74.8637C203.491 73.8053 203.706 72.8099 204.109 71.8774C204.531 70.9529 205.11 70.1354 205.846 69.4228C206.6 68.7182 207.506 68.1695 208.564 67.7748C209.622 67.38 210.66 67.2041 211.677 67.2471C212.714 67.298 213.687 67.5369 214.598 67.9646C215.528 68.3994 216.342 69.0111 217.043 69.7976C217.758 70.5792 218.32 71.5196 218.73 72.618C219.135 73.7034 219.324 74.7748 219.297 75.8332C219.283 76.8866 219.072 77.873 218.664 78.7915C218.261 79.725 217.682 80.5425 216.927 81.2471C216.178 81.9647 215.275 82.5204 214.217 82.9152C213.159 83.3099 212.111 83.4818 211.076 83.4299C210.044 83.3929 209.07 83.153 208.154 82.7133C207.243 82.2855 206.432 81.6819 205.717 80.9003C205.016 80.1128 204.463 79.1773 204.058 78.0919ZM205.418 77.5852C205.741 78.4497 206.183 79.1923 206.744 79.8129C207.322 80.4416 207.979 80.9243 208.715 81.2601C209.47 81.6039 210.261 81.7938 211.088 81.8298C211.929 81.8598 212.782 81.7138 213.648 81.391C214.513 81.0682 215.247 80.6225 215.848 80.0538C216.463 79.4801 216.936 78.8185 217.267 78.0689C217.617 77.3283 217.797 76.5338 217.809 75.6843C217.839 74.8437 217.693 73.9912 217.37 73.1257C217.047 72.2602 216.596 71.5136 216.017 70.885C215.452 70.2503 214.792 69.7616 214.037 69.4178C213.301 69.082 212.51 68.8921 211.664 68.8471C210.838 68.8122 209.991 68.9551 209.125 69.2789C208.273 69.5957 207.54 70.0415 206.925 70.6161C206.315 71.2028 205.835 71.8674 205.485 72.608C205.155 73.3576 204.977 74.1591 204.951 75.0136C204.94 75.8622 205.095 76.7197 205.418 77.5852Z" fill="url(#paint26_linear_2110_48)"/>
<path d="M208.997 95.9448C208.791 94.7904 208.789 93.6891 208.989 92.6406C209.206 91.6042 209.597 90.6638 210.162 89.8182C210.728 88.9877 211.445 88.2871 212.311 87.7154C213.18 87.1588 214.17 86.781 215.282 86.5831C216.393 86.3852 217.453 86.3972 218.461 86.6201C219.471 86.8569 220.386 87.2737 221.208 87.8724C222.03 88.47 222.715 89.2196 223.263 90.1191C223.828 91.0306 224.213 92.064 224.418 93.2183C224.624 94.3727 224.631 95.4591 224.44 96.4755C224.252 97.5069 223.851 98.4274 223.235 99.2359L222.04 98.4224C222.562 97.6738 222.892 96.8932 223.03 96.0797C223.168 95.2652 223.158 94.4186 223.001 93.5381C222.834 92.6007 222.52 91.7631 222.061 91.0256C221.619 90.3 221.056 89.6933 220.373 89.2046C219.708 88.7279 218.963 88.3911 218.138 88.1962C217.331 88.0123 216.472 88.0013 215.564 88.1632C214.669 88.3231 213.867 88.6299 213.158 89.0837C212.452 89.5514 211.862 90.1261 211.388 90.8057C210.93 91.4983 210.612 92.2619 210.434 93.0974C210.272 93.9459 210.274 94.8314 210.438 95.7549C210.593 96.6204 210.868 97.4129 211.264 98.1315C211.662 98.8641 212.23 99.4998 212.967 100.039L211.916 101.164C211.153 100.556 210.519 99.7976 210.014 98.8901C209.524 97.9796 209.185 96.9982 208.997 95.9448ZM211.837 99.5927L217.424 98.5973L217.698 100.133L211.916 101.164L211.837 99.5927Z" fill="url(#paint27_linear_2110_48)"/>
<path d="M210.532 105.504L225.927 105.312L225.999 111.072C226.015 112.376 225.816 113.501 225.403 114.444C225.004 115.388 224.412 116.113 223.627 116.621C222.856 117.144 221.913 117.413 220.799 117.427C219.715 117.44 218.773 117.195 217.974 116.692C217.191 116.203 216.581 115.493 216.144 114.56C215.721 113.627 215.503 112.508 215.487 111.204L215.426 106.345L216.182 107.061L210.552 107.131L210.532 105.504ZM210.663 116.013L216.199 111.987L216.221 113.746L210.686 117.794L210.663 116.013ZM216.05 107.062L216.811 106.328L216.871 111.142C216.89 112.681 217.242 113.843 217.927 114.625C218.611 115.423 219.562 115.814 220.778 115.8C222.01 115.784 222.959 115.369 223.623 114.554C224.287 113.755 224.61 112.585 224.59 111.046L224.53 106.231L225.309 106.947L216.05 107.062Z" fill="url(#paint28_linear_2110_48)"/>
<path d="M210.775 119.338L224.934 128.612L224.692 130.199L208.412 134.836L208.67 133.141L223.93 128.926L223.831 129.579L210.519 121.012L210.775 119.338ZM214.423 122.696L215.655 123.373L214.306 132.22L212.928 132.499L214.423 122.696Z" fill="url(#paint29_linear_2110_48)"/>
<path d="M208.016 136.966L222.556 142.027L222.115 143.294L208.459 145.99L208.69 145.326L217.739 155.857L217.298 157.123L202.758 152.062L203.271 150.587L215.506 154.846L215.383 155.199L207.109 145.521L207.362 144.794L219.875 142.304L219.737 142.699L207.502 138.44L208.016 136.966Z" fill="url(#paint30_linear_2110_48)"/>
<path d="M200.977 156.129L214.14 164.113L213.443 165.259L199.525 165.048L199.89 164.446L206.541 176.632L205.844 177.779L192.682 169.794L193.492 168.46L204.567 175.178L204.373 175.498L198.304 164.306L198.703 163.647L211.459 163.824L211.243 164.182L200.167 157.463L200.977 156.129Z" fill="url(#paint31_linear_2110_48)"/>
<path d="M189.309 173.79L201.175 183.596L200.138 184.85L188.272 175.044L189.309 173.79Z" fill="url(#paint32_linear_2110_48)"/>
<path d="M113.094 122.079C118.063 122.079 122.092 118.052 122.092 113.084C122.092 108.116 118.063 104.089 113.094 104.089C108.124 104.089 104.096 108.116 104.096 113.084C104.096 118.052 108.124 122.079 113.094 122.079Z" fill="url(#paint33_linear_2110_48)"/>
<defs>
<linearGradient id="paint0_linear_2110_48" x1="261.925" y1="362.939" x2="399.467" y2="150.032" gradientUnits="userSpaceOnUse">
<stop stop-color="#DAC597"/>
<stop offset="0.50272" stop-color="#ECDDBE"/>
<stop offset="1" stop-color="#977F50"/>
</linearGradient>
<linearGradient id="paint1_linear_2110_48" x1="130.27" y1="313.118" x2="272.904" y2="-10.2421" gradientUnits="userSpaceOnUse">
<stop stop-color="#DAC597"/>
<stop offset="0.50272" stop-color="#ECDDBE"/>
<stop offset="1" stop-color="#977F50"/>
</linearGradient>
<linearGradient id="paint2_linear_2110_48" x1="119.216" y1="349.156" x2="338.432" y2="42.4032" gradientUnits="userSpaceOnUse">
<stop stop-color="#DAC597"/>
<stop offset="0.50272" stop-color="#ECDDBE"/>
<stop offset="1" stop-color="#977F50"/>
</linearGradient>
<linearGradient id="paint3_linear_2110_48" x1="42.9328" y1="325.072" x2="286.927" y2="38.0257" gradientUnits="userSpaceOnUse">
<stop stop-color="#DAC597"/>
<stop offset="0.50272" stop-color="#ECDDBE"/>
<stop offset="1" stop-color="#977F50"/>
</linearGradient>
<linearGradient id="paint4_linear_2110_48" x1="93.2945" y1="343.813" x2="315.632" y2="14.9555" gradientUnits="userSpaceOnUse">
<stop stop-color="#DAC597"/>
<stop offset="0.50272" stop-color="#ECDDBE"/>
<stop offset="1" stop-color="#977F50"/>
</linearGradient>
<linearGradient id="paint5_linear_2110_48" x1="8.51264" y1="333.154" x2="339.224" y2="101.575" gradientUnits="userSpaceOnUse">
<stop stop-color="#DAC597"/>
<stop offset="0.50272" stop-color="#ECDDBE"/>
<stop offset="1" stop-color="#977F50"/>
</linearGradient>
<linearGradient id="paint6_linear_2110_48" x1="-58.101" y1="322.372" x2="377.582" y2="52.6731" gradientUnits="userSpaceOnUse">
<stop stop-color="#DAC597"/>
<stop offset="0.50272" stop-color="#ECDDBE"/>
<stop offset="1" stop-color="#977F50"/>
</linearGradient>
<linearGradient id="paint7_linear_2110_48" x1="-36.3172" y1="291.649" x2="378.844" y2="185.42" gradientUnits="userSpaceOnUse">
<stop stop-color="#DAC597"/>
<stop offset="0.50272" stop-color="#ECDDBE"/>
<stop offset="1" stop-color="#977F50"/>
</linearGradient>
<linearGradient id="paint8_linear_2110_48" x1="-65.7184" y1="261.477" x2="332.007" y2="213.335" gradientUnits="userSpaceOnUse">
<stop stop-color="#DAC597"/>
<stop offset="0.50272" stop-color="#ECDDBE"/>
<stop offset="1" stop-color="#977F50"/>
</linearGradient>
<linearGradient id="paint9_linear_2110_48" x1="-142.086" y1="132.447" x2="281.637" y2="300.998" gradientUnits="userSpaceOnUse">
<stop stop-color="#DAC597"/>
<stop offset="0.50272" stop-color="#ECDDBE"/>
<stop offset="1" stop-color="#977F50"/>
</linearGradient>
<linearGradient id="paint10_linear_2110_48" x1="-87.5592" y1="105.454" x2="220.302" y2="270.998" gradientUnits="userSpaceOnUse">
<stop stop-color="#DAC597"/>
<stop offset="0.50272" stop-color="#ECDDBE"/>
<stop offset="1" stop-color="#977F50"/>
</linearGradient>
<linearGradient id="paint11_linear_2110_48" x1="-76.1652" y1="-54.721" x2="151.913" y2="355.625" gradientUnits="userSpaceOnUse">
<stop stop-color="#DAC597"/>
<stop offset="0.50272" stop-color="#ECDDBE"/>
<stop offset="1" stop-color="#977F50"/>
</linearGradient>
<linearGradient id="paint12_linear_2110_48" x1="-48.9572" y1="-62.0758" x2="38.9276" y2="349.287" gradientUnits="userSpaceOnUse">
<stop stop-color="#DAC597"/>
<stop offset="0.50272" stop-color="#ECDDBE"/>
<stop offset="1" stop-color="#977F50"/>
</linearGradient>
<linearGradient id="paint13_linear_2110_48" x1="-22.1805" y1="-62.6392" x2="-35.6621" y2="363.17" gradientUnits="userSpaceOnUse">
<stop stop-color="#DAC597"/>
<stop offset="0.50272" stop-color="#ECDDBE"/>
<stop offset="1" stop-color="#977F50"/>
</linearGradient>
<linearGradient id="paint14_linear_2110_48" x1="-20.0388" y1="-148.586" x2="-64.3265" y2="260.292" gradientUnits="userSpaceOnUse">
<stop stop-color="#DAC597"/>
<stop offset="0.50272" stop-color="#ECDDBE"/>
<stop offset="1" stop-color="#977F50"/>
</linearGradient>
<linearGradient id="paint15_linear_2110_48" x1="17.1774" y1="-103.922" x2="-84.7994" y2="284.766" gradientUnits="userSpaceOnUse">
<stop stop-color="#DAC597"/>
<stop offset="0.50272" stop-color="#ECDDBE"/>
<stop offset="1" stop-color="#977F50"/>
</linearGradient>
<linearGradient id="paint16_linear_2110_48" x1="89.663" y1="-141.606" x2="-72.1368" y2="284.547" gradientUnits="userSpaceOnUse">
<stop stop-color="#DAC597"/>
<stop offset="0.50272" stop-color="#ECDDBE"/>
<stop offset="1" stop-color="#977F50"/>
</linearGradient>
<linearGradient id="paint17_linear_2110_48" x1="126.443" y1="-135.716" x2="-109.327" y2="237.126" gradientUnits="userSpaceOnUse">
<stop stop-color="#DAC597"/>
<stop offset="0.50272" stop-color="#ECDDBE"/>
<stop offset="1" stop-color="#977F50"/>
</linearGradient>
<linearGradient id="paint18_linear_2110_48" x1="168.009" y1="-98.023" x2="-85.819" y2="205.432" gradientUnits="userSpaceOnUse">
<stop stop-color="#DAC597"/>
<stop offset="0.50272" stop-color="#ECDDBE"/>
<stop offset="1" stop-color="#977F50"/>
</linearGradient>
<linearGradient id="paint19_linear_2110_48" x1="165.818" y1="-116.713" x2="-72.9692" y2="244.952" gradientUnits="userSpaceOnUse">
<stop stop-color="#DAC597"/>
<stop offset="0.50272" stop-color="#ECDDBE"/>
<stop offset="1" stop-color="#977F50"/>
</linearGradient>
<linearGradient id="paint20_linear_2110_48" x1="223.4" y1="-108.652" x2="-122.12" y2="110.158" gradientUnits="userSpaceOnUse">
<stop stop-color="#DAC597"/>
<stop offset="0.50272" stop-color="#ECDDBE"/>
<stop offset="1" stop-color="#977F50"/>
</linearGradient>
<linearGradient id="paint21_linear_2110_48" x1="552.77" y1="-108.841" x2="40.2072" y2="585.415" gradientUnits="userSpaceOnUse">
<stop stop-color="#DAC597"/>
<stop offset="0.50272" stop-color="#ECDDBE"/>
<stop offset="1" stop-color="#977F50"/>
</linearGradient>
<linearGradient id="paint22_linear_2110_48" x1="253.785" y1="-69.1202" x2="-142.951" y2="75.7899" gradientUnits="userSpaceOnUse">
<stop stop-color="#DAC597"/>
<stop offset="0.50272" stop-color="#ECDDBE"/>
<stop offset="1" stop-color="#977F50"/>
</linearGradient>
<linearGradient id="paint23_linear_2110_48" x1="289.836" y1="-42.5085" x2="-115.273" y2="25.8948" gradientUnits="userSpaceOnUse">
<stop stop-color="#DAC597"/>
<stop offset="0.50272" stop-color="#ECDDBE"/>
<stop offset="1" stop-color="#977F50"/>
</linearGradient>
<linearGradient id="paint24_linear_2110_48" x1="341.572" y1="88.5629" x2="-18.7699" y2="-31.5723" gradientUnits="userSpaceOnUse">
<stop stop-color="#DAC597"/>
<stop offset="0.50272" stop-color="#ECDDBE"/>
<stop offset="1" stop-color="#977F50"/>
</linearGradient>
<linearGradient id="paint25_linear_2110_48" x1="346.348" y1="94.2341" x2="43.2446" y2="-105.692" gradientUnits="userSpaceOnUse">
<stop stop-color="#DAC597"/>
<stop offset="0.50272" stop-color="#ECDDBE"/>
<stop offset="1" stop-color="#977F50"/>
</linearGradient>
<linearGradient id="paint26_linear_2110_48" x1="366.403" y1="166.123" x2="8.64752" y2="-120.169" gradientUnits="userSpaceOnUse">
<stop stop-color="#DAC597"/>
<stop offset="0.50272" stop-color="#ECDDBE"/>
<stop offset="1" stop-color="#977F50"/>
</linearGradient>
<linearGradient id="paint27_linear_2110_48" x1="351.222" y1="215.566" x2="39.8467" y2="-128.591" gradientUnits="userSpaceOnUse">
<stop stop-color="#DAC597"/>
<stop offset="0.50272" stop-color="#ECDDBE"/>
<stop offset="1" stop-color="#977F50"/>
</linearGradient>
<linearGradient id="paint28_linear_2110_48" x1="338.403" y1="242.413" x2="70.5658" y2="-163.927" gradientUnits="userSpaceOnUse">
<stop stop-color="#DAC597"/>
<stop offset="0.50272" stop-color="#ECDDBE"/>
<stop offset="1" stop-color="#977F50"/>
</linearGradient>
<linearGradient id="paint29_linear_2110_48" x1="310.377" y1="280.39" x2="171.185" y2="-106.94" gradientUnits="userSpaceOnUse">
<stop stop-color="#DAC597"/>
<stop offset="0.50272" stop-color="#ECDDBE"/>
<stop offset="1" stop-color="#977F50"/>
</linearGradient>
<linearGradient id="paint30_linear_2110_48" x1="234.765" y1="291.024" x2="124.559" y2="-96.2349" gradientUnits="userSpaceOnUse">
<stop stop-color="#DAC597"/>
<stop offset="0.50272" stop-color="#ECDDBE"/>
<stop offset="1" stop-color="#977F50"/>
</linearGradient>
<linearGradient id="paint31_linear_2110_48" x1="187.935" y1="298.329" x2="161.337" y2="-75.0869" gradientUnits="userSpaceOnUse">
<stop stop-color="#DAC597"/>
<stop offset="0.50272" stop-color="#ECDDBE"/>
<stop offset="1" stop-color="#977F50"/>
</linearGradient>
<linearGradient id="paint32_linear_2110_48" x1="278.446" y1="369.969" x2="415.324" y2="138.208" gradientUnits="userSpaceOnUse">
<stop stop-color="#DAC597"/>
<stop offset="0.50272" stop-color="#ECDDBE"/>
<stop offset="1" stop-color="#977F50"/>
</linearGradient>
<linearGradient id="paint33_linear_2110_48" x1="122.092" y1="104.089" x2="104.103" y2="122.085" gradientUnits="userSpaceOnUse">
<stop stop-color="#DAC597"/>
<stop offset="0.50272" stop-color="#ECDDBE"/>
<stop offset="1" stop-color="#977F50"/>
</linearGradient>
</defs>
</svg>
