<svg width="100" height="100" viewBox="0 0 100 100" fill="none" xmlns="http://www.w3.org/2000/svg">
<g clip-path="url(#clip0_2200_43)">
<path d="M59.7826 15.6455C58.7026 15.6455 57.8261 16.5293 57.8261 17.6182C57.8261 18.7071 58.7026 19.5908 59.7826 19.5908C60.8626 19.5908 61.7391 18.7071 61.7391 17.6182C61.7391 16.5293 60.8626 15.6455 59.7826 15.6455Z" fill="url(#paint0_linear_2200_43)"/>
<path d="M40.2174 15.6455C39.1374 15.6455 38.2609 16.5293 38.2609 17.6182C38.2609 18.7071 39.1374 19.5908 40.2174 19.5908C41.2974 19.5908 42.1739 18.7071 42.1739 17.6182C42.1739 16.5293 41.2974 15.6455 40.2174 15.6455Z" fill="url(#paint1_linear_2200_43)"/>
<path d="M92.4806 58.2316C94.1599 55.6904 95 52.5198 95 49.7725C95 45.6307 93.1751 41.7826 90.0437 39.1732C90.7367 37.5035 91.087 35.767 91.087 33.9912C91.087 28.4964 87.9064 23.3777 83.1777 20.9875C83.8952 14.9878 80.0177 9.48845 74.2716 8.0857C72.0226 2.84376 67.0168 -0.727539 61.7391 -0.727539C56.8263 -0.727539 52.42 2.16161 50 6.37718C47.5798 2.16161 43.1735 -0.727539 38.2609 -0.727539C32.9828 -0.727539 27.977 2.84376 25.7284 8.0859C19.9478 9.49753 16.1068 15.0243 16.8223 20.9875C12.0938 23.3775 8.91304 28.4964 8.91304 33.9912C8.91304 35.767 9.26326 37.5035 9.95626 39.1732C6.82485 41.7828 5 45.6307 5 49.7725C5 52.5342 5.84717 55.7007 7.51941 58.2314C5.88533 60.5572 5 63.3136 5 66.1455C5 69.8178 6.47678 73.3161 9.08893 75.9137C7.74598 84.0987 14.2201 92.3818 22.6087 92.3818C22.6693 92.3818 22.729 92.3808 22.7875 92.3791C25.5687 97.2164 30.7312 100.272 36.3043 100.272C42.1129 100.272 47.3031 96.7572 50 91.6926C52.6969 96.7572 57.8871 100.272 63.6956 100.272C69.2688 100.272 74.4313 97.2164 77.2125 92.3791C77.2712 92.3808 77.3306 92.3818 77.3913 92.3818C84.8151 92.3818 91.087 85.7872 91.087 77.9814C91.087 77.3169 91.029 76.6333 90.9111 75.9137C93.5232 73.3161 95 69.818 95 66.1455C95 63.3136 94.1147 60.5572 92.4806 58.2316ZM48.0435 29.1347C46.8915 28.4611 45.5554 28.0732 44.1304 28.0732C43.0498 28.0732 42.1739 28.9564 42.1739 30.0459C42.1739 31.1354 43.0498 32.0186 44.1304 32.0186C46.2881 32.0186 48.0435 33.7884 48.0435 35.9639V73.4777C45.1731 70.195 40.9759 68.1182 36.3043 68.1182C35.2238 68.1182 34.3478 69.0013 34.3478 70.0908C34.3478 71.1803 35.2238 72.0635 36.3043 72.0635C42.7773 72.0635 48.0435 77.3731 48.0435 83.8994C48.0435 90.6358 42.6675 96.3271 36.3043 96.3271C31.7746 96.3271 27.6047 93.6264 25.6806 89.4465C25.3259 88.6762 24.5226 88.2219 23.685 88.317C23.5467 88.333 23.4091 88.3515 23.2716 88.3704C17.7033 89.1382 11.4327 82.7809 13.1301 75.6691C13.3045 74.9386 13.0521 74.172 12.4794 73.6915C10.213 71.7901 8.91304 69.0396 8.91304 66.1455C8.91304 64.3561 9.41489 62.605 10.3487 61.0695C12.6954 63.0086 15.6143 64.1729 18.6957 64.1729C19.7762 64.1729 20.6522 63.2897 20.6522 62.2002C20.6522 61.1107 19.7762 60.2275 18.6957 60.2275C13.3858 60.2275 8.91304 55.3413 8.91304 49.7725C8.91304 46.3943 10.6209 43.2866 13.4819 41.4593C14.3633 40.8963 14.6515 39.735 14.1368 38.8199C13.2671 37.2735 12.8261 35.6488 12.8261 33.9912C12.8261 28.667 17.1308 23.5361 22.6087 23.5361C27.8201 23.5361 32.3913 28.4218 32.3913 33.9912C32.3913 35.0807 33.2672 35.9639 34.3478 35.9639C35.4284 35.9639 36.3043 35.0807 36.3043 33.9912C36.3043 26.1854 30.0325 19.5908 22.6087 19.5908C21.9537 19.5908 21.3021 19.6443 20.6571 19.7455C20.6561 19.6936 20.6522 19.6431 20.6522 19.5908C20.6522 15.1884 24.1968 11.7002 28.4783 11.7002C30.5682 11.7002 32.5341 12.521 34.0137 14.0112C34.7781 14.7811 36.0167 14.7803 36.7806 14.0098C37.5442 13.2389 37.5436 11.99 36.7792 11.2201C34.9943 9.42237 32.7366 8.27586 30.29 7.89593C32.0155 5.31352 34.8847 3.21777 38.2609 3.21777C43.4723 3.21777 48.0435 8.10325 48.0435 13.6729V29.1347ZM81.3043 64.1729C84.3859 64.1729 87.3048 63.0084 89.6514 61.0701C90.5851 62.6054 91.087 64.3563 91.087 66.1455C91.087 69.0396 89.787 71.7901 87.5208 73.6915C86.9479 74.172 86.6957 74.9388 86.8701 75.6691C87.0774 76.5377 87.1739 77.2725 87.1739 77.9812C87.1739 84.1044 81.681 89.053 76.7286 88.3704C76.5911 88.3515 76.4533 88.3328 76.315 88.317C75.4763 88.2213 74.6739 88.6762 74.3196 89.4465C72.3955 93.6264 68.2252 96.3271 63.6956 96.3271C57.3325 96.3271 51.9565 90.6358 51.9565 83.8994C51.9565 77.3731 57.2227 72.0635 63.6956 72.0635C64.776 72.0635 65.6522 71.1803 65.6522 70.0908C65.6522 69.0013 64.776 68.1182 63.6956 68.1182C59.0241 68.1182 54.8269 70.195 51.9565 73.4777V35.9639C51.9565 33.7884 53.7119 32.0186 55.8696 32.0186C56.95 32.0186 57.8261 31.1354 57.8261 30.0459C57.8261 28.9564 56.95 28.0732 55.8696 28.0732C54.4446 28.0732 53.1085 28.4611 51.9565 29.1347V13.6729C51.9565 8.10325 56.5277 3.21777 61.7391 3.21777C65.1153 3.21777 67.9843 5.31352 69.7098 7.89573C67.2634 8.27566 65.0059 9.42217 63.2208 11.2199C62.4562 11.9898 62.4554 13.2387 63.219 14.0096C63.9827 14.7805 65.2217 14.7811 65.986 14.0112C67.4661 12.521 69.4318 11.7002 71.5217 11.7002C75.8247 11.7002 79.3478 15.209 79.3478 19.5908C79.3478 19.6429 79.3439 19.6936 79.3429 19.7455C78.6979 19.6443 78.0463 19.5908 77.3913 19.5908C69.9675 19.5908 63.6956 26.1854 63.6956 33.9912C63.6956 35.0807 64.5718 35.9639 65.6522 35.9639C66.7326 35.9639 67.6087 35.0807 67.6087 33.9912C67.6087 28.4218 72.1799 23.5361 77.3913 23.5361C82.866 23.5361 87.1739 28.6644 87.1739 33.9912C87.1739 35.6488 86.7329 37.2735 85.8632 38.8199C85.3487 39.735 85.6369 40.8963 86.5183 41.4593C89.3791 43.2866 91.087 46.3943 91.087 49.7725C91.087 55.3612 86.5985 60.2275 81.3043 60.2275C80.224 60.2275 79.3478 61.1107 79.3478 62.2002C79.3478 63.2897 80.224 64.1729 81.3043 64.1729Z" fill="url(#paint2_linear_2200_43)"/>
<path d="M43.6321 41.4978C42.9117 40.6858 41.675 40.6164 40.8695 41.3427C34.5953 47.0013 24.5652 42.479 24.5652 33.9912C24.5652 32.9017 23.6893 32.0186 22.6087 32.0186C21.5281 32.0186 20.6522 32.9017 20.6522 33.9912C20.6522 40.8393 25.6231 46.5363 32.1174 47.6138C31.3641 50.0062 29.1407 51.7451 26.5217 51.7451C25.4412 51.7451 24.5652 52.6283 24.5652 53.7178C24.5652 54.8073 25.4412 55.6904 26.5217 55.6904C31.2872 55.6904 35.2654 52.2363 36.1287 47.6811C38.8496 47.3222 41.4105 46.1483 43.4783 44.2832C44.2836 43.5568 44.3525 42.3097 43.6321 41.4978Z" fill="url(#paint3_linear_2200_43)"/>
<path d="M22.6087 76.0088C21.5281 76.0088 20.6522 76.892 20.6522 77.9814C20.6522 79.0709 21.5281 79.9541 22.6087 79.9541C27.8201 79.9541 32.3913 84.8398 32.3913 90.4092C32.3913 91.4987 33.2672 92.3818 34.3478 92.3818C35.4284 92.3818 36.3043 91.4987 36.3043 90.4092C36.3043 82.6034 30.0325 76.0088 22.6087 76.0088Z" fill="url(#paint4_linear_2200_43)"/>
<path d="M38.2607 60.2275C31.6308 60.2275 25.9385 63.8937 22.9411 69.2244C22.4083 70.1723 22.7384 71.3762 23.6783 71.9134C24.6184 72.4505 25.8123 72.1179 26.3453 71.1701C28.6804 67.0164 33.1111 64.1729 38.2607 64.1729C39.3413 64.1729 40.2172 63.2897 40.2172 62.2002C40.2172 61.1107 39.3413 60.2275 38.2607 60.2275Z" fill="url(#paint5_linear_2200_43)"/>
<path d="M73.4783 51.7451C70.8593 51.7451 68.6359 50.0062 67.8826 47.6138C74.3769 46.5363 79.3479 40.8393 79.3479 33.9912C79.3479 32.9017 78.4717 32.0186 77.3913 32.0186C76.3109 32.0186 75.4348 32.9017 75.4348 33.9912C75.4348 39.4298 71.0463 43.8545 65.6522 43.8545C63.2426 43.8545 60.9266 42.9625 59.1305 41.3427C58.3254 40.6164 57.0883 40.6856 56.3679 41.4978C55.6473 42.3097 55.7164 43.5568 56.5217 44.2832C58.5896 46.1483 61.1507 47.3222 63.8714 47.6811C64.7346 52.2363 68.7128 55.6904 73.4783 55.6904C74.5587 55.6904 75.4348 54.8073 75.4348 53.7178C75.4348 52.6283 74.5587 51.7451 73.4783 51.7451Z" fill="url(#paint6_linear_2200_43)"/>
<path d="M77.3913 76.0088C69.9675 76.0088 63.6956 82.6034 63.6956 90.4092C63.6956 91.4987 64.5718 92.3818 65.6522 92.3818C66.7326 92.3818 67.6087 91.4987 67.6087 90.4092C67.6087 84.8398 72.1799 79.9541 77.3913 79.9541C78.4717 79.9541 79.3478 79.0709 79.3478 77.9814C79.3478 76.892 78.4717 76.0088 77.3913 76.0088Z" fill="url(#paint7_linear_2200_43)"/>
<path d="M77.0587 69.2246C74.0687 63.9066 68.3843 60.2275 61.7391 60.2275C60.6587 60.2275 59.7826 61.1107 59.7826 62.2002C59.7826 63.2897 60.6587 64.1729 61.7391 64.1729C66.885 64.1729 71.319 67.0157 73.6542 71.1701C74.1877 72.1191 75.3825 72.4501 76.3211 71.9136C77.2612 71.3764 77.5913 70.1725 77.0587 69.2246Z" fill="url(#paint8_linear_2200_43)"/>
</g>
<defs>
<linearGradient id="paint0_linear_2200_43" x1="95" y1="-0.727545" x2="-5.33222" y2="88.6774" gradientUnits="userSpaceOnUse">
<stop stop-color="#DAC597"/>
<stop offset="0.50272" stop-color="#ECDDBE"/>
<stop offset="1" stop-color="#977F50"/>
</linearGradient>
<linearGradient id="paint1_linear_2200_43" x1="95" y1="-0.727545" x2="-5.33222" y2="88.6774" gradientUnits="userSpaceOnUse">
<stop stop-color="#DAC597"/>
<stop offset="0.50272" stop-color="#ECDDBE"/>
<stop offset="1" stop-color="#977F50"/>
</linearGradient>
<linearGradient id="paint2_linear_2200_43" x1="95" y1="-0.727545" x2="-5.33222" y2="88.6774" gradientUnits="userSpaceOnUse">
<stop stop-color="#DAC597"/>
<stop offset="0.50272" stop-color="#ECDDBE"/>
<stop offset="1" stop-color="#977F50"/>
</linearGradient>
<linearGradient id="paint3_linear_2200_43" x1="95" y1="-0.727545" x2="-5.33222" y2="88.6774" gradientUnits="userSpaceOnUse">
<stop stop-color="#DAC597"/>
<stop offset="0.50272" stop-color="#ECDDBE"/>
<stop offset="1" stop-color="#977F50"/>
</linearGradient>
<linearGradient id="paint4_linear_2200_43" x1="95" y1="-0.727545" x2="-5.33222" y2="88.6774" gradientUnits="userSpaceOnUse">
<stop stop-color="#DAC597"/>
<stop offset="0.50272" stop-color="#ECDDBE"/>
<stop offset="1" stop-color="#977F50"/>
</linearGradient>
<linearGradient id="paint5_linear_2200_43" x1="95" y1="-0.727545" x2="-5.33222" y2="88.6774" gradientUnits="userSpaceOnUse">
<stop stop-color="#DAC597"/>
<stop offset="0.50272" stop-color="#ECDDBE"/>
<stop offset="1" stop-color="#977F50"/>
</linearGradient>
<linearGradient id="paint6_linear_2200_43" x1="95" y1="-0.727545" x2="-5.33222" y2="88.6774" gradientUnits="userSpaceOnUse">
<stop stop-color="#DAC597"/>
<stop offset="0.50272" stop-color="#ECDDBE"/>
<stop offset="1" stop-color="#977F50"/>
</linearGradient>
<linearGradient id="paint7_linear_2200_43" x1="95" y1="-0.727545" x2="-5.33222" y2="88.6774" gradientUnits="userSpaceOnUse">
<stop stop-color="#DAC597"/>
<stop offset="0.50272" stop-color="#ECDDBE"/>
<stop offset="1" stop-color="#977F50"/>
</linearGradient>
<linearGradient id="paint8_linear_2200_43" x1="95" y1="-0.727545" x2="-5.33222" y2="88.6774" gradientUnits="userSpaceOnUse">
<stop stop-color="#DAC597"/>
<stop offset="0.50272" stop-color="#ECDDBE"/>
<stop offset="1" stop-color="#977F50"/>
</linearGradient>
<clipPath id="clip0_2200_43">
<rect width="100" height="100" fill="white"/>
</clipPath>
</defs>
</svg>
