<svg width="120" height="38" viewBox="0 0 120 38" fill="none" xmlns="http://www.w3.org/2000/svg">
<path d="M36.4063 7.0729C36.9635 7.90361 37.4616 8.77789 37.8947 9.69002L35.3832 10.8724C33.643 7.20782 30.6912 4.24978 27.0221 2.49353L28.2246 0C29.1379 0.437086 30.0128 0.938559 30.8436 1.49871C33.0421 2.98111 34.9315 4.87446 36.4063 7.0729Z" fill="#DECCA2"/>
<path d="M22.8206 0.701637C21.4288 0.377965 19.978 0.206799 18.4871 0.206799C10.4929 0.206799 3.65303 5.12819 0.856968 12.0941H1.50769C4.27023 5.46728 10.832 0.806691 18.4871 0.806691C19.9605 0.806691 21.3935 0.97935 22.7666 1.30546L22.8206 0.701637Z" fill="#DECCA2"/>
<path d="M36.7746 14.0322L36.1825 14.152C36.626 15.7268 36.8633 17.3875 36.8633 19.1034C36.8633 29.2084 28.636 37.4001 18.4871 37.4001C11.2147 37.4001 4.92901 33.1938 1.95014 27.0914H1.28259C4.3056 33.5352 10.8727 38 18.4871 38C28.9687 38 37.4658 29.5397 37.4658 19.1034C37.4658 17.3467 37.225 15.646 36.7746 14.0322Z" fill="#DECCA2"/>
<path d="M19.2041 23.9265C18.5561 23.9265 17.9574 23.8203 17.4078 23.608C16.8582 23.3875 16.3825 23.0812 15.9806 22.6892C15.5786 22.2972 15.2628 21.8357 15.0332 21.3049C14.8117 20.774 14.701 20.1942 14.701 19.5653C14.701 18.9364 14.8117 18.3566 15.0332 17.8257C15.2628 17.2949 15.5786 16.8334 15.9806 16.4414C16.3907 16.0494 16.8705 15.7472 17.4201 15.5349C17.9697 15.3144 18.5685 15.2041 19.2164 15.2041C19.8398 15.2041 20.4263 15.3103 20.9759 15.5226C21.5255 15.7268 21.9889 16.0371 22.3662 16.4537L21.7879 17.0294C21.4352 16.6701 21.0456 16.4128 20.6191 16.2577C20.1925 16.0943 19.7332 16.0126 19.2411 16.0126C18.7243 16.0126 18.2445 16.1025 17.8015 16.2822C17.3586 16.4537 16.9731 16.7028 16.645 17.0294C16.3169 17.348 16.0585 17.7236 15.8698 18.1565C15.6894 18.5812 15.5991 19.0508 15.5991 19.5653C15.5991 20.0798 15.6894 20.5535 15.8698 20.9864C16.0585 21.4111 16.3169 21.7867 16.645 22.1134C16.9731 22.4319 17.3586 22.681 17.8015 22.8607C18.2445 23.0322 18.7243 23.118 19.2411 23.118C19.7332 23.118 20.1925 23.0363 20.6191 22.873C21.0456 22.7096 21.4352 22.4483 21.7879 22.0889L22.3662 22.6647C21.9889 23.0812 21.5255 23.3957 20.9759 23.608C20.4263 23.8203 19.8357 23.9265 19.2041 23.9265Z" fill="#DECCA2"/>
<path d="M0 15.2776V23.853H0.910478V15.2776H0Z" fill="#DECCA2"/>
<path d="M3.71275 15.2776V23.853H4.58632V17.0333L7.96985 22.7627H8.40049L11.784 16.994V23.853H12.6576V15.2776H11.9071L8.2027 21.6304L4.46328 15.2776H3.71275Z" fill="#DECCA2"/>
<path fill-rule="evenodd" clip-rule="evenodd" d="M27.5307 15.2776H24.3071V23.853H25.2176V21.1456H27.5307C28.2607 21.1456 28.8882 21.0272 29.4132 20.7904C29.9381 20.5535 30.3401 20.2187 30.619 19.7858C30.906 19.3448 31.0496 18.8221 31.0496 18.2177C31.0496 17.597 30.906 17.0703 30.619 16.6374C30.3401 16.1964 29.9381 15.8615 29.4132 15.6329C28.8882 15.396 28.2607 15.2776 27.5307 15.2776ZM25.2176 20.3493H27.5061C28.3674 20.3493 29.0195 20.1656 29.4624 19.7981C29.9135 19.4224 30.1391 18.8956 30.1391 18.2177C30.1391 17.5317 29.9135 17.0009 29.4624 16.6252C29.0195 16.2495 28.3674 16.0616 27.5061 16.0616H25.2176V20.3493Z" fill="#DECCA2"/>
<path d="M48 9.78037V3.85082H48.6035V9.78037H48Z" fill="#DECCA2"/>
<path d="M50.7872 9.78037V3.85082H51.2846L55.2237 9.00106H54.9627V3.85082H55.5581V9.78037H55.0606L51.1297 4.63014H51.3907V9.78037H50.7872Z" fill="#DECCA2"/>
<path d="M59.3216 9.8312C58.8975 9.8312 58.4897 9.76061 58.0983 9.61943C57.7123 9.4726 57.4132 9.28624 57.2012 9.06036L57.4377 8.57752C57.6389 8.78082 57.908 8.95306 58.2451 9.09424C58.5876 9.22977 58.9464 9.29754 59.3216 9.29754C59.6804 9.29754 59.9713 9.25236 60.1942 9.16201C60.4226 9.066 60.5884 8.93894 60.6917 8.78082C60.8004 8.6227 60.8548 8.44764 60.8548 8.25563C60.8548 8.0241 60.7896 7.83774 60.6591 7.69656C60.534 7.55538 60.3682 7.44526 60.1616 7.3662C59.955 7.28149 59.7266 7.20808 59.4765 7.14596C59.2264 7.08384 58.9763 7.0189 58.7262 6.95113C58.4761 6.87772 58.2451 6.78172 58.033 6.66312C57.8264 6.54453 57.6579 6.38924 57.5274 6.19723C57.4024 5.99958 57.3398 5.74263 57.3398 5.42639C57.3398 5.13274 57.4132 4.86449 57.56 4.62167C57.7123 4.37319 57.9433 4.17554 58.2532 4.02871C58.5631 3.87624 58.96 3.8 59.4439 3.8C59.7647 3.8 60.0828 3.848 60.3981 3.944C60.7134 4.03436 60.9853 4.16142 61.2136 4.32519L61.0098 4.82496C60.7651 4.65555 60.5041 4.53131 60.2268 4.45225C59.955 4.37319 59.6913 4.33366 59.4358 4.33366C59.0932 4.33366 58.8105 4.38166 58.5876 4.47766C58.3647 4.57366 58.1989 4.70355 58.0901 4.86732C57.9868 5.02544 57.9352 5.20615 57.9352 5.40945C57.9352 5.64098 57.9977 5.82734 58.1228 5.96852C58.2532 6.1097 58.4218 6.21982 58.6284 6.29888C58.8404 6.37794 59.0715 6.44853 59.3216 6.51065C59.5717 6.57277 59.8191 6.64054 60.0637 6.71395C60.3138 6.78736 60.5422 6.88337 60.7488 7.00196C60.9608 7.1149 61.1294 7.26737 61.2544 7.45938C61.3849 7.65138 61.4501 7.90268 61.4501 8.21328C61.4501 8.50128 61.374 8.76953 61.2218 9.018C61.0696 9.26083 60.8358 9.45848 60.5204 9.61096C60.2105 9.75778 59.8109 9.8312 59.3216 9.8312Z" fill="#DECCA2"/>
<path d="M64.1208 9.78037V4.39295H62.1146V3.85082H66.7305V4.39295H64.7243V9.78037H64.1208Z" fill="#DECCA2"/>
<path d="M68.0208 9.78037V3.85082H68.6243V9.78037H68.0208Z" fill="#DECCA2"/>
<path d="M71.9171 9.78037V4.39295H69.9109V3.85082H74.5269V4.39295H72.5206V9.78037H71.9171Z" fill="#DECCA2"/>
<path d="M78.0055 9.8312C77.277 9.8312 76.7034 9.61378 76.2847 9.17895C75.8661 8.74411 75.6568 8.10033 75.6568 7.24761V3.85082H76.2603V7.2222C76.2603 7.92245 76.4125 8.43917 76.717 8.77235C77.0214 9.10553 77.451 9.27213 78.0055 9.27213C78.5655 9.27213 78.9978 9.10553 79.3022 8.77235C79.6067 8.43917 79.7589 7.92245 79.7589 7.2222V3.85082H80.3461V7.24761C80.3461 8.10033 80.1368 8.74411 79.7182 9.17895C79.305 9.61378 78.7341 9.8312 78.0055 9.8312Z" fill="#DECCA2"/>
<path d="M83.4886 9.78037V4.39295H81.4823V3.85082H86.0983V4.39295H84.0921V9.78037H83.4886Z" fill="#DECCA2"/>
<path d="M87.9269 6.50218H90.9444V7.03584H87.9269V6.50218ZM87.9921 9.23824H91.4255V9.78037H87.3886V3.85082H91.3032V4.39295H87.9921V9.23824Z" fill="#DECCA2"/>
<path d="M98.1265 9.8312C97.697 9.8312 97.2974 9.75778 96.9277 9.61096C96.5634 9.45848 96.2454 9.24671 95.9735 8.97565C95.7071 8.69894 95.4978 8.37987 95.3455 8.01845C95.1988 7.65138 95.1254 7.25043 95.1254 6.8156C95.1254 6.38077 95.1988 5.98264 95.3455 5.62122C95.4978 5.25415 95.7071 4.93508 95.9735 4.66402C96.2454 4.38731 96.5634 4.17554 96.9277 4.02871C97.292 3.87624 97.6916 3.8 98.1265 3.8C98.5561 3.8 98.9529 3.87624 99.3172 4.02871C99.6815 4.17554 99.9968 4.38448 100.263 4.65555C100.535 4.92661 100.744 5.24568 100.891 5.61275C101.043 5.97981 101.12 6.38077 101.12 6.8156C101.12 7.25043 101.043 7.65138 100.891 8.01845C100.744 8.38552 100.535 8.70458 100.263 8.97565C99.9968 9.24671 99.6815 9.45848 99.3172 9.61096C98.9529 9.75778 98.5561 9.8312 98.1265 9.8312ZM98.1265 9.27213C98.4691 9.27213 98.7844 9.21283 99.0726 9.09424C99.3662 8.97 99.619 8.79776 99.831 8.57752C100.048 8.35163 100.217 8.09186 100.337 7.79821C100.456 7.49891 100.516 7.17137 100.516 6.8156C100.516 6.45983 100.456 6.13511 100.337 5.84146C100.217 5.54216 100.048 5.28239 99.831 5.06215C99.619 4.83626 99.3662 4.66402 99.0726 4.54543C98.7844 4.42119 98.4691 4.35907 98.1265 4.35907C97.784 4.35907 97.466 4.42119 97.1724 4.54543C96.8788 4.66402 96.6232 4.83626 96.4057 5.06215C96.1937 5.28239 96.0252 5.54216 95.9001 5.84146C95.7805 6.13511 95.7207 6.45983 95.7207 6.8156C95.7207 7.16572 95.7805 7.49044 95.9001 7.78974C96.0252 8.08904 96.1937 8.35163 96.4057 8.57752C96.6232 8.79776 96.8788 8.97 97.1724 9.09424C97.466 9.21283 97.784 9.27213 98.1265 9.27213Z" fill="#DECCA2"/>
<path d="M103.337 6.72242H106.354V7.26455H103.337V6.72242ZM103.402 9.78037H102.798V3.85082H106.713V4.39295H103.402V9.78037Z" fill="#DECCA2"/>
<path d="M48 21.3314V15.4019H48.4975L51.1072 20.0269H50.8462L53.4315 15.4019H53.929V21.3314H53.3499V16.3421H53.4886L51.1072 20.5775H50.8218L48.4241 16.3421H48.579V21.3314H48Z" fill="#DECCA2"/>
<path d="M56.6535 18.0532H59.671V18.5869H56.6535V18.0532ZM56.7187 20.7893H60.1522V21.3314H56.1153V15.4019H60.0298V15.944H56.7187V20.7893Z" fill="#DECCA2"/>
<path d="M63.0061 21.3314V15.944H60.9999V15.4019H65.6158V15.944H63.6096V21.3314H63.0061Z" fill="#DECCA2"/>
<path d="M65.7061 21.3314L68.3158 15.4019H68.9111L71.5208 21.3314H70.8847L68.487 15.7661H68.7317L66.334 21.3314H65.7061ZM66.7336 19.7474L66.9131 19.2392H70.2323L70.4117 19.7474H66.7336Z" fill="#DECCA2"/>
<path d="M75.191 21.3823C74.7615 21.3823 74.3646 21.3089 74.0003 21.162C73.6361 21.0096 73.3207 20.7978 73.0543 20.5267C72.7879 20.2557 72.5786 19.9366 72.4263 19.5695C72.2796 19.2025 72.2062 18.8015 72.2062 18.3667C72.2062 17.9318 72.2796 17.5309 72.4263 17.1638C72.5786 16.7967 72.7879 16.4777 73.0543 16.2066C73.3262 15.9356 73.6442 15.7266 74.0085 15.5798C74.3728 15.4273 74.7697 15.3511 75.1992 15.3511C75.6124 15.3511 76.0011 15.4245 76.3654 15.5713C76.7297 15.7125 77.0369 15.9271 77.287 16.2151L76.9037 16.6132C76.6699 16.3647 76.4116 16.1869 76.1289 16.0796C75.8462 15.9666 75.5417 15.9101 75.2155 15.9101C74.873 15.9101 74.5549 15.9723 74.2613 16.0965C73.9677 16.2151 73.7122 16.3873 73.4947 16.6132C73.2772 16.8335 73.106 17.0932 72.9809 17.3925C72.8613 17.6862 72.8015 18.0109 72.8015 18.3667C72.8015 18.7224 72.8613 19.05 72.9809 19.3493C73.106 19.6429 73.2772 19.9027 73.4947 20.1286C73.7122 20.3488 73.9677 20.5211 74.2613 20.6453C74.5549 20.7639 74.873 20.8232 75.2155 20.8232C75.5417 20.8232 75.8462 20.7667 76.1289 20.6538C76.4116 20.5408 76.6699 20.3601 76.9037 20.1116L77.287 20.5098C77.0369 20.7978 76.7297 21.0152 76.3654 21.162C76.0011 21.3089 75.6097 21.3823 75.191 21.3823Z" fill="#DECCA2"/>
<path d="M81.2758 21.3823C80.8463 21.3823 80.4466 21.3089 80.0769 21.162C79.7127 21.0096 79.3946 20.7978 79.1228 20.5267C78.8563 20.25 78.647 19.9309 78.4948 19.5695C78.348 19.2025 78.2746 18.8015 78.2746 18.3667C78.2746 17.9318 78.348 17.5337 78.4948 17.1723C78.647 16.8052 78.8563 16.4862 79.1228 16.2151C79.3946 15.9384 79.7127 15.7266 80.0769 15.5798C80.4412 15.4273 80.8408 15.3511 81.2758 15.3511C81.7053 15.3511 82.1022 15.4273 82.4665 15.5798C82.8307 15.7266 83.1461 15.9356 83.4125 16.2066C83.6843 16.4777 83.8937 16.7967 84.0405 17.1638C84.1927 17.5309 84.2688 17.9318 84.2688 18.3667C84.2688 18.8015 84.1927 19.2025 84.0405 19.5695C83.8937 19.9366 83.6843 20.2557 83.4125 20.5267C83.1461 20.7978 82.8307 21.0096 82.4665 21.162C82.1022 21.3089 81.7053 21.3823 81.2758 21.3823ZM81.2758 20.8232C81.6183 20.8232 81.9336 20.7639 82.2218 20.6453C82.5154 20.5211 82.7682 20.3488 82.9803 20.1286C83.1977 19.9027 83.3663 19.6429 83.4859 19.3493C83.6055 19.05 83.6653 18.7224 83.6653 18.3667C83.6653 18.0109 83.6055 17.6862 83.4859 17.3925C83.3663 17.0932 83.1977 16.8335 82.9803 16.6132C82.7682 16.3873 82.5154 16.2151 82.2218 16.0965C81.9336 15.9723 81.6183 15.9101 81.2758 15.9101C80.9333 15.9101 80.6152 15.9723 80.3216 16.0965C80.028 16.2151 79.7725 16.3873 79.555 16.6132C79.343 16.8335 79.1744 17.0932 79.0494 17.3925C78.9297 17.6862 78.8699 18.0109 78.8699 18.3667C78.8699 18.7168 78.9297 19.0415 79.0494 19.3408C79.1744 19.6401 79.343 19.9027 79.555 20.1286C79.7725 20.3488 80.028 20.5211 80.3216 20.6453C80.6152 20.7639 80.9333 20.8232 81.2758 20.8232Z" fill="#DECCA2"/>
<path d="M88.4514 21.3823C88.0165 21.3823 87.6142 21.3089 87.2444 21.162C86.8802 21.0096 86.5621 20.7978 86.2903 20.5267C86.0239 20.2557 85.8145 19.9366 85.6623 19.5695C85.5155 19.2025 85.4421 18.8015 85.4421 18.3667C85.4421 17.9318 85.5155 17.5309 85.6623 17.1638C85.8145 16.7967 86.0266 16.4777 86.2984 16.2066C86.5703 15.9356 86.8883 15.7266 87.2526 15.5798C87.6223 15.4273 88.0246 15.3511 88.4596 15.3511C88.8946 15.3511 89.2914 15.4217 89.6503 15.5628C90.0146 15.704 90.3245 15.9186 90.58 16.2066L90.2049 16.6047C89.9656 16.3563 89.7019 16.1784 89.4138 16.0711C89.1256 15.9638 88.8157 15.9101 88.4841 15.9101C88.1307 15.9101 87.8044 15.9723 87.5054 16.0965C87.2118 16.2151 86.9536 16.3873 86.7306 16.6132C86.5132 16.8335 86.3419 17.0932 86.2169 17.3925C86.0973 17.6862 86.0374 18.0109 86.0374 18.3667C86.0374 18.7168 86.0973 19.0415 86.2169 19.3408C86.3419 19.6401 86.5132 19.9027 86.7306 20.1286C86.9536 20.3488 87.2118 20.5211 87.5054 20.6453C87.8044 20.7639 88.1279 20.8232 88.4759 20.8232C88.8021 20.8232 89.1093 20.7724 89.3975 20.6707C89.6911 20.5691 89.9602 20.3968 90.2049 20.154L90.5474 20.6284C90.2755 20.8768 89.9575 21.066 89.5932 21.1959C89.2289 21.3201 88.8483 21.3823 88.4514 21.3823ZM89.9683 20.5521V18.3667H90.5474V20.6284L89.9683 20.5521Z" fill="#DECCA2"/>
<path d="M92.5816 21.3314V15.4019H93.0791L97.0182 20.5521H96.7572V15.4019H97.3525V21.3314H96.8551L92.9242 16.1812H93.1851V21.3314H92.5816Z" fill="#DECCA2"/>
<path d="M99.5421 21.3314V15.4019H100.146V21.3314H99.5421Z" fill="#DECCA2"/>
<path d="M103.438 21.3314V15.944H101.432V15.4019H106.048V15.944H104.042V21.3314H103.438Z" fill="#DECCA2"/>
<path d="M107.338 21.3314V15.4019H107.942V21.3314H107.338Z" fill="#DECCA2"/>
<path d="M111.685 21.3314L109.157 15.4019H109.809L112.174 20.9841H111.815L114.197 15.4019H114.808L112.28 21.3314H111.685Z" fill="#DECCA2"/>
<path d="M116.501 18.0532H119.519V18.5869H116.501V18.0532ZM116.567 20.7893H120V21.3314H115.963V15.4019H119.878V15.944H116.567V20.7893Z" fill="#DECCA2"/>
<path d="M48 32.8825V26.953H50.1367C50.6206 26.953 51.0365 27.0348 51.3845 27.1986C51.7324 27.3567 51.9989 27.5883 52.1837 27.8932C52.374 28.1925 52.4692 28.5568 52.4692 28.9859C52.4692 29.4038 52.374 29.7653 52.1837 30.0702C51.9989 30.3695 51.7324 30.601 51.3845 30.7648C51.0365 30.9286 50.6206 31.0105 50.1367 31.0105H48.3344L48.6035 30.714V32.8825H48ZM48.6035 30.7648L48.3344 30.4599H50.1204C50.6913 30.4599 51.1235 30.3328 51.4171 30.0787C51.7161 29.8189 51.8657 29.4547 51.8657 28.9859C51.8657 28.5116 51.7161 28.1445 51.4171 27.8847C51.1235 27.625 50.6913 27.4951 50.1204 27.4951H48.3344L48.6035 27.1986V30.7648Z" fill="#DECCA2"/>
<path d="M54.1003 32.8825V26.953H56.237C56.7209 26.953 57.1368 27.0348 57.4848 27.1986C57.8327 27.3567 58.0992 27.5883 58.284 27.8932C58.4743 28.1925 58.5694 28.5568 58.5694 28.9859C58.5694 29.4038 58.4743 29.7653 58.284 30.0702C58.0992 30.3695 57.8327 30.601 57.4848 30.7648C57.1368 30.9229 56.7209 31.002 56.237 31.002H54.4347L54.7038 30.714V32.8825H54.1003ZM57.9986 32.8825L56.5306 30.7309H57.183L58.6592 32.8825H57.9986ZM54.7038 30.7648L54.4347 30.4683H56.2207C56.7916 30.4683 57.2238 30.3384 57.5174 30.0787C57.8164 29.8189 57.966 29.4547 57.966 28.9859C57.966 28.5116 57.8164 28.1445 57.5174 27.8847C57.2238 27.625 56.7916 27.4951 56.2207 27.4951H54.4347L54.7038 27.1986V30.7648Z" fill="#DECCA2"/>
<path d="M62.8156 32.9333C62.3861 32.9333 61.9865 32.8599 61.6168 32.7131C61.2525 32.5606 60.9344 32.3488 60.6626 32.0778C60.3962 31.8011 60.1868 31.482 60.0346 31.1206C59.8878 30.7535 59.8144 30.3526 59.8144 29.9177C59.8144 29.4829 59.8878 29.0848 60.0346 28.7234C60.1868 28.3563 60.3962 28.0372 60.6626 27.7662C60.9344 27.4894 61.2525 27.2777 61.6168 27.1308C61.981 26.9784 62.3807 26.9021 62.8156 26.9021C63.2451 26.9021 63.642 26.9784 64.0063 27.1308C64.3706 27.2777 64.6859 27.4866 64.9523 27.7577C65.2242 28.0287 65.4335 28.3478 65.5803 28.7149C65.7325 29.0819 65.8086 29.4829 65.8086 29.9177C65.8086 30.3526 65.7325 30.7535 65.5803 31.1206C65.4335 31.4877 65.2242 31.8067 64.9523 32.0778C64.6859 32.3488 64.3706 32.5606 64.0063 32.7131C63.642 32.8599 63.2451 32.9333 62.8156 32.9333ZM62.8156 32.3743C63.1581 32.3743 63.4735 32.315 63.7616 32.1964C64.0552 32.0721 64.308 31.8999 64.5201 31.6797C64.7376 31.4538 64.9061 31.194 65.0257 30.9003C65.1453 30.601 65.2051 30.2735 65.2051 29.9177C65.2051 29.562 65.1453 29.2372 65.0257 28.9436C64.9061 28.6443 64.7376 28.3845 64.5201 28.1643C64.308 27.9384 64.0552 27.7662 63.7616 27.6476C63.4735 27.5233 63.1581 27.4612 62.8156 27.4612C62.4731 27.4612 62.155 27.5233 61.8614 27.6476C61.5678 27.7662 61.3123 27.9384 61.0948 28.1643C60.8828 28.3845 60.7142 28.6443 60.5892 28.9436C60.4696 29.2372 60.4098 29.562 60.4098 29.9177C60.4098 30.2679 60.4696 30.5926 60.5892 30.8919C60.7142 31.1912 60.8828 31.4538 61.0948 31.6797C61.3123 31.8999 61.5678 32.0721 61.8614 32.1964C62.155 32.315 62.4731 32.3743 62.8156 32.3743Z" fill="#DECCA2"/>
<path d="M69.9913 32.9333C69.5563 32.9333 69.154 32.8599 68.7843 32.7131C68.42 32.5606 68.1019 32.3488 67.8301 32.0778C67.5637 31.8067 67.3544 31.4877 67.2021 31.1206C67.0553 30.7535 66.9819 30.3526 66.9819 29.9177C66.9819 29.4829 67.0553 29.0819 67.2021 28.7149C67.3544 28.3478 67.5664 28.0287 67.8382 27.7577C68.1101 27.4866 68.4281 27.2777 68.7924 27.1308C69.1621 26.9784 69.5645 26.9021 69.9994 26.9021C70.4344 26.9021 70.8313 26.9727 71.1901 27.1139C71.5544 27.2551 71.8643 27.4697 72.1198 27.7577L71.7447 28.1558C71.5055 27.9073 71.2418 27.7294 70.9536 27.6222C70.6654 27.5149 70.3555 27.4612 70.0239 27.4612C69.6705 27.4612 69.3443 27.5233 69.0452 27.6476C68.7516 27.7662 68.4934 27.9384 68.2705 28.1643C68.053 28.3845 67.8817 28.6443 67.7567 28.9436C67.6371 29.2372 67.5773 29.562 67.5773 29.9177C67.5773 30.2679 67.6371 30.5926 67.7567 30.8919C67.8817 31.1912 68.053 31.4538 68.2705 31.6797C68.4934 31.8999 68.7516 32.0721 69.0452 32.1964C69.3443 32.315 69.6678 32.3743 70.0157 32.3743C70.3419 32.3743 70.6491 32.3234 70.9373 32.2218C71.2309 32.1201 71.5 31.9479 71.7447 31.7051L72.0872 32.1794C71.8154 32.4279 71.4973 32.6171 71.133 32.747C70.7687 32.8712 70.3882 32.9333 69.9913 32.9333ZM71.5082 32.1032V29.9177H72.0872V32.1794L71.5082 32.1032Z" fill="#DECCA2"/>
<path d="M74.1215 32.8825V26.953H76.2582C76.7421 26.953 77.158 27.0348 77.5059 27.1986C77.8539 27.3567 78.1203 27.5883 78.3052 27.8932C78.4955 28.1925 78.5906 28.5568 78.5906 28.9859C78.5906 29.4038 78.4955 29.7653 78.3052 30.0702C78.1203 30.3695 77.8539 30.601 77.5059 30.7648C77.158 30.9229 76.7421 31.002 76.2582 31.002H74.4558L74.725 30.714V32.8825H74.1215ZM78.0197 32.8825L76.5518 30.7309H77.2042L78.6803 32.8825H78.0197ZM74.725 30.7648L74.4558 30.4683H76.2419C76.8127 30.4683 77.245 30.3384 77.5386 30.0787C77.8376 29.8189 77.9871 29.4547 77.9871 28.9859C77.9871 28.5116 77.8376 28.1445 77.5386 27.8847C77.245 27.625 76.8127 27.4951 76.2419 27.4951H74.4558L74.725 27.1986V30.7648Z" fill="#DECCA2"/>
<path d="M79.4278 32.8825L82.0375 26.953H82.6329L85.2426 32.8825H84.6065L82.2088 27.3172H82.4535L80.0558 32.8825H79.4278ZM80.4554 31.2985L80.6348 30.7902H83.9541L84.1335 31.2985H80.4554Z" fill="#DECCA2"/>
<path d="M86.5132 32.8825V26.953H87.0107L89.6204 31.578H89.3594L91.9447 26.953H92.4422V32.8825H91.8631V27.8932H92.0018L89.6204 32.1286H89.335L86.9373 27.8932H87.0922V32.8825H86.5132Z" fill="#DECCA2"/>
<path d="M94.6284 32.8825V26.953H95.1259L97.7357 31.578H97.4747L100.06 26.953H100.557V32.8825H99.9784V27.8932H100.117L97.7357 32.1286H97.4502L95.0525 27.8932H95.2075V32.8825H94.6284Z" fill="#DECCA2"/>
<path d="M102.744 32.8825V26.953H103.347V32.8825H102.744Z" fill="#DECCA2"/>
<path d="M105.531 32.8825V26.953H106.028L109.967 32.1032H109.706V26.953H110.302V32.8825H109.804L105.873 27.7323H106.134V32.8825H105.531Z" fill="#DECCA2"/>
<path d="M114.995 32.9333C114.56 32.9333 114.158 32.8599 113.788 32.7131C113.424 32.5606 113.106 32.3488 112.834 32.0778C112.567 31.8067 112.358 31.4877 112.206 31.1206C112.059 30.7535 111.986 30.3526 111.986 29.9177C111.986 29.4829 112.059 29.0819 112.206 28.7149C112.358 28.3478 112.57 28.0287 112.842 27.7577C113.114 27.4866 113.432 27.2777 113.796 27.1308C114.166 26.9784 114.568 26.9021 115.003 26.9021C115.438 26.9021 115.835 26.9727 116.194 27.1139C116.558 27.2551 116.868 27.4697 117.124 27.7577L116.748 28.1558C116.509 27.9073 116.246 27.7294 115.957 27.6222C115.669 27.5149 115.359 27.4612 115.028 27.4612C114.674 27.4612 114.348 27.5233 114.049 27.6476C113.755 27.7662 113.497 27.9384 113.274 28.1643C113.057 28.3845 112.885 28.6443 112.76 28.9436C112.641 29.2372 112.581 29.562 112.581 29.9177C112.581 30.2679 112.641 30.5926 112.76 30.8919C112.885 31.1912 113.057 31.4538 113.274 31.6797C113.497 31.8999 113.755 32.0721 114.049 32.1964C114.348 32.315 114.672 32.3743 115.019 32.3743C115.346 32.3743 115.653 32.3234 115.941 32.2218C116.235 32.1201 116.504 31.9479 116.748 31.7051L117.091 32.1794C116.819 32.4279 116.501 32.6171 116.137 32.747C115.772 32.8712 115.392 32.9333 114.995 32.9333ZM116.512 32.1032V29.9177H117.091V32.1794L116.512 32.1032Z" fill="#DECCA2"/>
</svg>
