<svg width="100" height="100" viewBox="0 0 100 100" fill="none" xmlns="http://www.w3.org/2000/svg">
<g clip-path="url(#clip0_2200_49)">
<path d="M49.3075 61.5894V56.2935C49.3075 55.8791 49.1429 55.4817 48.8498 55.1887C48.5568 54.8957 48.1594 54.731 47.745 54.731C47.3306 54.731 46.9331 54.8957 46.6401 55.1887C46.3471 55.4817 46.1825 55.8791 46.1825 56.2935V61.5894C46.1814 62.569 45.7916 63.5082 45.0986 64.2008C44.4057 64.8933 43.4663 65.2826 42.4866 65.2831H33.6366C33.2222 65.2831 32.8248 65.4478 32.5318 65.7408C32.2388 66.0338 32.0741 66.4312 32.0741 66.8456C32.0741 67.26 32.2388 67.6575 32.5318 67.9505C32.8248 68.2435 33.2222 68.4081 33.6366 68.4081H42.4866C44.2948 68.4065 46.0284 67.6876 47.3071 66.4093C48.5859 65.1309 49.3053 63.3975 49.3075 61.5894ZM66.3929 65.2831H57.6575C56.6771 65.2837 55.7366 64.8949 55.0428 64.2023C54.349 63.5096 53.9586 62.5698 53.9575 61.5894V56.2935C53.9575 55.8791 53.7929 55.4817 53.4998 55.1887C53.2068 54.8957 52.8094 54.731 52.395 54.731C51.9806 54.731 51.5831 54.8957 51.2901 55.1887C50.9971 55.4817 50.8325 55.8791 50.8325 56.2935V61.5894C50.8347 63.3975 51.5541 65.1309 52.8328 66.4093C54.1115 67.6876 55.8452 68.4065 57.6533 68.4081H66.3887C66.8031 68.4081 67.2006 68.2435 67.4936 67.9505C67.7866 67.6575 67.9512 67.26 67.9512 66.8456C67.9512 66.4312 67.7866 66.0338 67.4936 65.7408C67.2006 65.4478 66.8031 65.2831 66.3887 65.2831H66.3929ZM80.5866 57.654C77.345 58.6561 74.5971 59.2394 74.57 59.2456C74.2488 59.3136 73.9572 59.481 73.7366 59.7241C73.5159 59.9672 73.3775 60.2736 73.3408 60.5998L69.1116 98.2644C69.0888 98.4682 69.1063 98.6746 69.1633 98.8717C69.2202 99.0687 69.3155 99.2526 69.4436 99.4128C69.5716 99.5731 69.7301 99.7065 69.9098 99.8054C70.0895 99.9043 70.2869 99.9668 70.4908 99.9894C70.5488 99.9969 70.6073 100 70.6658 99.9998C71.0501 99.9996 71.4209 99.8578 71.7072 99.6014C71.9936 99.3451 72.1754 98.9922 72.2179 98.6102L76.3221 62.0519C78.0666 61.6386 79.7967 61.1668 81.5096 60.6373C81.7054 60.5767 81.8875 60.4781 82.0453 60.3472C82.2031 60.2162 82.3335 60.0555 82.4292 59.8741C82.5248 59.6927 82.5838 59.4943 82.6028 59.2901C82.6218 59.086 82.6004 58.8801 82.5398 58.6842C82.4792 58.4883 82.3806 58.3063 82.2496 58.1485C82.1187 57.9907 81.9579 57.8602 81.7766 57.7646C81.5952 57.6689 81.3968 57.6099 81.1926 57.5909C80.9884 57.5719 80.7825 57.5934 80.5866 57.654Z" fill="url(#paint0_linear_2200_49)"/>
<path d="M84.3741 13.9581C81.9221 12.7278 79.163 12.2439 76.4387 12.5665C73.27 13.079 68.5783 16.004 68.5783 20.6561C68.5781 22.0516 68.9382 23.4236 69.6236 24.6393C70.309 25.8549 71.2966 26.8731 72.4908 27.5953C73.685 28.3174 75.0453 28.7191 76.4403 28.7615C77.8352 28.804 79.2175 28.4856 80.4533 27.8373L82.4762 40.0894L76.3866 38.7748C76.0023 38.6889 75.5996 38.7538 75.2616 38.9561L66.122 44.354L57.1637 42.754V37.8998C59.0582 36.3941 60.4236 34.3238 61.0616 31.9894C61.6177 31.9109 62.1634 31.7711 62.6887 31.5727C65.4137 30.5456 67.2137 26.8123 66.7866 23.0748C66.7535 22.5228 66.6014 21.9846 66.3407 21.497C66.0799 21.0093 65.7168 20.5839 65.2762 20.2498C64.8993 19.9805 64.4754 19.7841 64.0262 19.6706C64.6529 18.9391 65.1978 18.1413 65.6512 17.2915C66.7057 15.2443 67.2335 12.9667 67.1866 10.6644C67.3305 7.17857 66.268 3.74977 64.1783 0.956051C64.0317 0.784018 63.8498 0.645639 63.6448 0.550361C63.4399 0.455082 63.2168 0.405148 62.9908 0.403967C62.7633 0.395648 62.5371 0.44068 62.3302 0.53546C62.1233 0.630241 61.9414 0.772139 61.7991 0.949801C61.7845 0.964384 60.3408 2.56022 58.9845 2.29772C58.1357 2.10716 57.3005 1.86008 56.4845 1.55813C53.6924 0.501598 50.7282 -0.0268181 47.7429 -0.000199205C44.2955 -0.158681 40.869 0.612692 37.8221 2.23313C37.4712 2.44853 37.2195 2.79371 37.1217 3.19365C37.0239 3.59359 37.0879 4.01597 37.2998 4.36897C37.5117 4.72197 37.8544 4.97707 38.2534 5.07881C38.6523 5.18055 39.0753 5.12071 39.4304 4.9123C41.9978 3.60136 44.8635 2.98511 47.7429 3.1248C50.3836 3.09209 53.0066 3.56153 55.472 4.50813C56.4184 4.85822 57.3882 5.14156 58.3741 5.35605C59.1185 5.4755 59.8793 5.44488 60.6116 5.26599C61.344 5.0871 62.0332 4.76356 62.6387 4.31438C63.6486 6.24361 64.1451 8.40026 64.0804 10.5769C64.1349 12.4098 63.7265 14.2269 62.8929 15.8602C62.3478 16.857 61.6607 17.7693 60.8533 18.5686C60.7212 17.7565 60.4259 16.9796 59.9851 16.285C59.5443 15.5903 58.9672 14.9922 58.2887 14.5269C57.9359 14.382 57.5517 14.3307 57.1732 14.3778C56.7948 14.4248 56.4349 14.5688 56.1283 14.7956C55.25 15.5874 54.1967 16.1599 53.0546 16.4662C51.9125 16.7726 50.7141 16.8041 49.5575 16.5581C47.7753 16.3225 46.059 15.7294 44.5116 14.8144C44.3127 14.6814 44.0859 14.5958 43.8487 14.5641C43.6116 14.5324 43.3703 14.5555 43.1434 14.6315C42.9165 14.7075 42.7101 14.8345 42.5399 15.0027C42.3697 15.1709 42.2403 15.3759 42.1616 15.6019C41.6727 16.8076 41.0147 17.9377 40.2075 18.9581C40.1033 19.0956 39.9991 19.2269 39.895 19.3477C38.4693 18.1436 37.385 16.586 36.7507 14.831C36.1163 13.076 35.9541 11.1851 36.2804 9.34772C36.4108 8.69434 36.6338 8.06296 36.9429 7.47272C37.0526 7.29066 37.124 7.08815 37.1527 6.87755C37.1814 6.66696 37.1669 6.45272 37.11 6.24794C37.053 6.04316 36.9549 5.85215 36.8217 5.68659C36.6884 5.52102 36.5227 5.38439 36.3348 5.28505C36.1469 5.18571 35.9407 5.12574 35.7289 5.10883C35.517 5.09191 35.3039 5.1184 35.1026 5.18667C34.9014 5.25494 34.7161 5.36356 34.5583 5.50588C34.4004 5.6482 34.2732 5.82123 34.1846 6.01438C33.7357 6.86661 33.4108 7.7786 33.22 8.72272C32.8212 10.6368 32.8593 12.6162 33.3315 14.5135C33.8037 16.4108 34.6977 18.1771 35.947 19.6811C35.4848 19.7914 35.0483 19.9902 34.6616 20.2665C34.2213 20.6007 33.8585 21.0262 33.5981 21.5138C33.3378 22.0014 33.186 22.5396 33.1533 23.0915C32.7262 26.8415 34.5262 30.5623 37.2512 31.5894C37.7765 31.788 38.3222 31.9278 38.8783 32.0061C39.5236 34.3617 40.9118 36.4463 42.8366 37.9498V42.7769L33.8783 44.3769L24.7241 38.9581C24.3857 38.7573 23.9836 38.6925 23.5991 38.7769L17.4991 40.0956L19.5221 27.8436C20.7579 28.4919 22.1402 28.8102 23.5351 28.7678C24.93 28.7254 26.2904 28.3237 27.4846 27.6015C28.6787 26.8793 29.6663 25.8612 30.3517 24.6455C31.0372 23.4299 31.3972 22.0579 31.3971 20.6623C31.3971 16.0102 26.7054 13.0852 23.5366 12.5727C20.8204 12.2517 18.0697 12.7333 15.6241 13.9581C7.33247 17.356 0.761639 44.5936 0.0408053 47.6894C-0.0194901 47.9478 -0.0128703 48.2174 0.0600387 48.4726C0.132948 48.7278 0.269737 48.9601 0.457472 49.1477C3.26543 51.963 6.30917 54.5328 9.55539 56.829C13.9871 59.2412 18.7438 61.001 23.6783 62.054L27.7825 98.6102C27.825 98.9918 28.0065 99.3444 28.2924 99.6007C28.5783 99.857 28.9485 99.9991 29.3325 99.9998C29.3907 100.004 29.4492 100.004 29.5075 99.9998C29.7114 99.9772 29.9088 99.9147 30.0885 99.8158C30.2682 99.7169 30.4266 99.5835 30.5547 99.4233C30.6828 99.263 30.7781 99.0791 30.835 98.8821C30.892 98.685 30.9095 98.4786 30.8866 98.2748L26.6658 60.5998C26.6291 60.2736 26.4907 59.9672 26.27 59.7241C26.0494 59.481 25.7578 59.3136 25.4366 59.2456C25.3408 59.2248 15.8741 57.204 11.27 54.2102C8.43425 52.2109 5.76827 49.9811 3.29914 47.5436C5.98664 36.3956 11.8221 18.8977 16.8137 16.854C18.7365 15.8562 20.9083 15.44 23.0637 15.6561C25.2033 16.0019 28.2991 17.9831 28.2991 20.6561C28.3029 21.6693 27.9979 22.6596 27.4247 23.4951C26.8515 24.3306 26.0373 24.9716 25.0906 25.3327C24.1439 25.6939 23.1096 25.758 22.1256 25.5165C21.1415 25.275 20.2544 24.7394 19.5825 23.9811C19.3861 23.7608 19.1314 23.6006 18.8478 23.5191C18.5641 23.4376 18.2632 23.438 17.9799 23.5204C17.6965 23.6028 17.4423 23.7638 17.2466 23.9847C17.0509 24.2055 16.9218 24.4773 16.8741 24.7686L14.0491 41.8519C14.0075 42.1036 14.0282 42.3616 14.1093 42.6035C14.1905 42.8454 14.3296 43.0637 14.5146 43.2394C14.6995 43.4151 14.9247 43.5429 15.1704 43.6115C15.4161 43.6802 15.6749 43.6876 15.9241 43.6331L23.6637 41.9665L32.7762 47.3477C33.0993 47.5362 33.4787 47.6042 33.8471 47.5394L44.6575 45.6081C45.0183 45.5436 45.345 45.3543 45.5804 45.0732C45.8158 44.7921 45.9448 44.4372 45.945 44.0706V39.6748C47.2415 40.161 48.6144 40.4122 49.9991 40.4165C51.3872 40.4145 52.7634 40.1618 54.0616 39.6706V44.0769C54.0618 44.4435 54.1908 44.7984 54.4262 45.0794C54.6616 45.3605 54.9883 45.5499 55.3491 45.6144L66.1595 47.5456C66.5279 47.6097 66.9071 47.5418 67.2304 47.354L76.3429 41.9727L84.0825 43.6394C84.3317 43.6938 84.5905 43.6864 84.8362 43.6178C85.0819 43.5491 85.3071 43.4214 85.492 43.2457C85.677 43.07 85.8161 42.8516 85.8973 42.6098C85.9784 42.3679 85.9991 42.1098 85.9575 41.8581L83.1325 24.7748C83.0848 24.4836 82.9557 24.2118 82.76 23.9909C82.5643 23.77 82.3101 23.6091 82.0267 23.5267C81.7434 23.4443 81.4425 23.4438 81.1588 23.5253C80.8752 23.6069 80.6205 23.767 80.4241 23.9873C79.7517 24.7414 78.866 25.2733 77.8844 25.5127C76.9028 25.7521 75.8716 25.6875 74.9275 25.3276C73.9835 24.9678 73.171 24.3295 72.5978 23.4975C72.0246 22.6655 71.7177 21.6789 71.7179 20.6686C71.7179 17.9915 74.8137 16.0102 76.9533 15.6685C79.1087 15.453 81.2803 15.8692 83.2033 16.8665C88.2033 18.9102 94.0366 36.4081 96.7179 47.556C94.249 49.994 91.583 52.2238 88.747 54.2227C87.6298 54.9197 86.4538 55.5178 85.2325 56.0102C84.8992 56.1495 84.6245 56.4 84.455 56.719C84.2856 57.038 84.2319 57.4058 84.3031 57.76C84.3744 58.1141 84.5661 58.4326 84.8456 58.6613C85.1252 58.89 85.4754 59.0148 85.8366 59.0144C86.0433 59.0137 86.2478 58.9727 86.4387 58.8936C87.8339 58.3287 89.1766 57.642 90.4512 56.8415C93.6974 54.5453 96.7412 51.9755 99.5491 49.1602C99.7369 48.9726 99.8737 48.7403 99.9466 48.4851C100.019 48.2299 100.026 47.9603 99.9658 47.7019C99.2366 44.5936 92.6658 17.356 84.3741 13.9581ZM61.6054 28.6561C61.5616 28.6727 61.522 28.679 61.4804 28.6936V22.7561C62.1323 22.5799 62.821 22.5929 63.4658 22.7936C63.6241 22.9081 63.6741 23.2831 63.6991 23.4373C63.8716 24.4159 63.7669 25.4232 63.3969 26.3454C63.0269 27.2677 62.4064 28.068 61.6054 28.6561ZM36.2491 23.4373C36.2679 23.2811 36.3262 22.9081 36.4825 22.7936C37.1266 22.593 37.8145 22.58 38.4658 22.7561V28.6936C38.4241 28.679 38.3866 28.6727 38.3429 28.6561C37.5419 28.068 36.9213 27.2677 36.5513 26.3454C36.1813 25.4232 36.0767 24.4159 36.2491 23.4373ZM49.9512 37.2915C47.752 37.307 45.6365 36.4495 44.0687 34.9072C42.501 33.3648 41.6091 31.2635 41.5887 29.0644V22.1165C41.9739 21.7157 42.3369 21.2942 42.6762 20.854C43.3064 20.0369 43.8693 19.1702 44.3595 18.2623C45.8744 18.9509 47.4804 19.4182 49.1283 19.6498C50.5349 19.9406 51.9874 19.9277 53.3886 19.6119C54.7898 19.2961 56.1074 18.6847 57.2533 17.8186C57.7614 19.0419 58.1324 20.3177 58.3595 21.6227V29.056C58.3492 30.1492 58.1234 31.2296 57.6951 32.2353C57.2667 33.2411 56.6442 34.1525 55.8632 34.9175C55.0822 35.6824 54.1581 36.2858 53.1436 36.6932C52.1292 37.1005 51.0443 37.3038 49.9512 37.2915Z" fill="url(#paint1_linear_2200_49)"/>
<path d="M47.8991 69.7186C47.4847 69.7186 47.0873 69.8832 46.7943 70.1762C46.5013 70.4692 46.3366 70.8666 46.3366 71.2811V72.656C46.3366 72.9789 46.2085 73.2886 45.9804 73.5171C45.7523 73.7456 45.4428 73.8742 45.12 73.8748H40.8616C40.4472 73.8748 40.0498 74.0394 39.7568 74.3324C39.4638 74.6255 39.2991 75.0229 39.2991 75.4373C39.2991 75.8517 39.4638 76.2491 39.7568 76.5422C40.0498 76.8352 40.4472 76.9998 40.8616 76.9998H45.12C46.2713 76.9981 47.375 76.5399 48.1889 75.7256C49.0028 74.9113 49.4605 73.8074 49.4616 72.656V71.2811C49.4616 70.8666 49.297 70.4692 49.004 70.1762C48.711 69.8832 48.3135 69.7186 47.8991 69.7186ZM47.8991 78.3081C47.4847 78.3081 47.0873 78.4727 46.7943 78.7658C46.5013 79.0588 46.3366 79.4562 46.3366 79.8706V81.2498C46.3361 81.5723 46.2077 81.8815 45.9797 82.1095C45.7516 82.3376 45.4425 82.4659 45.12 82.4665H40.8616C40.4472 82.4665 40.0498 82.6311 39.7568 82.9241C39.4638 83.2171 39.2991 83.6146 39.2991 84.029C39.2991 84.4434 39.4638 84.8408 39.7568 85.1338C40.0498 85.4268 40.4472 85.5915 40.8616 85.5915H45.12C46.2709 85.5898 47.3743 85.1319 48.1882 84.318C49.002 83.5041 49.46 82.4008 49.4616 81.2498V79.8727C49.4619 79.6674 49.4217 79.4639 49.3433 79.2741C49.2649 79.0843 49.1498 78.9118 49.0047 78.7665C48.8596 78.6212 48.6873 78.5059 48.4976 78.4273C48.3079 78.3486 48.1045 78.3081 47.8991 78.3081ZM59.2825 73.8748H55.0241C54.7009 73.8748 54.3909 73.7464 54.1623 73.5178C53.9338 73.2893 53.8054 72.9793 53.8054 72.656V71.2811C53.8054 70.8666 53.6408 70.4692 53.3477 70.1762C53.0547 69.8832 52.6573 69.7186 52.2429 69.7186C51.8285 69.7186 51.4311 69.8832 51.138 70.1762C50.845 70.4692 50.6804 70.8666 50.6804 71.2811V72.656C50.6815 73.8077 51.1395 74.9119 51.9539 75.7263C52.7682 76.5407 53.8724 76.9987 55.0241 76.9998H59.2825C59.6969 76.9998 60.0943 76.8352 60.3873 76.5422C60.6803 76.2491 60.845 75.8517 60.845 75.4373C60.845 75.0229 60.6803 74.6255 60.3873 74.3324C60.0943 74.0394 59.6969 73.8748 59.2825 73.8748ZM59.2825 82.4644H55.0241C54.7016 82.4644 54.3923 82.3366 54.1638 82.1089C53.9354 81.8812 53.8065 81.5723 53.8054 81.2498V79.8727C53.8054 79.4583 53.6408 79.0609 53.3477 78.7679C53.0547 78.4748 52.6573 78.3102 52.2429 78.3102C51.8285 78.3102 51.4311 78.4748 51.138 78.7679C50.845 79.0609 50.6804 79.4583 50.6804 79.8727V81.2498C50.682 82.4011 51.1403 83.5048 51.9546 84.3187C52.7689 85.1327 53.8728 85.5904 55.0241 85.5915H59.2825C59.6969 85.5915 60.0943 85.4268 60.3873 85.1338C60.6803 84.8408 60.845 84.4434 60.845 84.029C60.845 83.6146 60.6803 83.2171 60.3873 82.9241C60.0943 82.6311 59.6969 82.4644 59.2825 82.4644ZM47.8991 87.304C47.4847 87.304 47.0873 87.4686 46.7943 87.7616C46.5013 88.0546 46.3366 88.4521 46.3366 88.8665V90.2436C46.3361 90.5661 46.2077 90.8752 45.9797 91.1033C45.7516 91.3313 45.4425 91.4597 45.12 91.4602H40.8616C40.4472 91.4602 40.0498 91.6248 39.7568 91.9179C39.4638 92.2109 39.2991 92.6083 39.2991 93.0227C39.2991 93.4371 39.4638 93.8345 39.7568 94.1276C40.0498 94.4206 40.4472 94.5852 40.8616 94.5852H45.12C46.2709 94.5836 47.3743 94.1256 48.1882 93.3117C49.002 92.4979 49.46 91.3945 49.4616 90.2436V88.8665C49.4616 88.4521 49.297 88.0546 49.004 87.7616C48.711 87.4686 48.3135 87.304 47.8991 87.304ZM59.2825 91.4581H55.0241C54.7013 91.4581 54.3916 91.33 54.1631 91.1019C53.9346 90.8738 53.8059 90.5643 53.8054 90.2415V88.8644C53.8054 88.45 53.6408 88.0526 53.3477 87.7595C53.0547 87.4665 52.6573 87.3019 52.2429 87.3019C51.8285 87.3019 51.4311 87.4665 51.138 87.7595C50.845 88.0526 50.6804 88.45 50.6804 88.8644V90.2415C50.682 91.3928 51.1403 92.4965 51.9546 93.3104C52.7689 94.1243 53.8728 94.582 55.0241 94.5831H59.2825C59.6969 94.5831 60.0943 94.4185 60.3873 94.1255C60.6803 93.8325 60.845 93.435 60.845 93.0206C60.845 92.6062 60.6803 92.2088 60.3873 91.9158C60.0943 91.6228 59.6969 91.4581 59.2825 91.4581Z" fill="url(#paint2_linear_2200_49)"/>
</g>
<defs>
<linearGradient id="paint0_linear_2200_49" x1="100.007" y1="-0.0205138" x2="-0.0167544" y2="99.9861" gradientUnits="userSpaceOnUse">
<stop stop-color="#DAC597"/>
<stop offset="0.50272" stop-color="#ECDDBE"/>
<stop offset="1" stop-color="#977F50"/>
</linearGradient>
<linearGradient id="paint1_linear_2200_49" x1="100.007" y1="-0.0205138" x2="-0.0167544" y2="99.9861" gradientUnits="userSpaceOnUse">
<stop stop-color="#DAC597"/>
<stop offset="0.50272" stop-color="#ECDDBE"/>
<stop offset="1" stop-color="#977F50"/>
</linearGradient>
<linearGradient id="paint2_linear_2200_49" x1="100.007" y1="-0.0205138" x2="-0.0167544" y2="99.9861" gradientUnits="userSpaceOnUse">
<stop stop-color="#DAC597"/>
<stop offset="0.50272" stop-color="#ECDDBE"/>
<stop offset="1" stop-color="#977F50"/>
</linearGradient>
<clipPath id="clip0_2200_49">
<rect width="100" height="100" fill="white"/>
</clipPath>
</defs>
</svg>
