<svg width="280" height="148" viewBox="0 0 280 148" fill="none" xmlns="http://www.w3.org/2000/svg">
<g clip-path="url(#clip0_2130_24)">
<path d="M222.457 75.729H224.691C224.802 69.7064 224.131 63.5723 222.679 57.5502L220.556 58.1074C221.897 63.9068 222.457 69.8179 222.457 75.729Z" fill="white"/>
<path d="M229.495 84.7619V94.0187H228.155V89.8925H222.791V94.0187H221.451V84.7619H222.791V88.7769H228.155V84.7619H229.495Z" fill="white"/>
<path d="M240.669 93.4613C239.887 93.015 239.327 92.4572 238.88 91.7879C238.434 91.1191 238.21 90.2266 238.21 89.3347C238.21 88.4422 238.434 87.6619 238.88 86.8809C239.327 86.2121 239.887 85.6543 240.669 85.208C241.449 84.7619 242.232 84.6502 243.238 84.6502C244.132 84.6502 245.026 84.8734 245.807 85.208C246.589 85.6543 247.149 86.2121 247.595 86.8809C248.042 87.5504 248.266 88.4422 248.266 89.3347C248.266 90.2266 248.042 91.0076 247.595 91.7879C247.149 92.4572 246.589 93.015 245.807 93.4613C245.026 93.907 244.244 94.0186 243.238 94.0186C242.344 94.1301 241.449 93.907 240.669 93.4613ZM245.137 92.4572C245.697 92.1227 246.143 91.6769 246.477 91.2306C246.813 90.6728 246.925 90.1151 246.925 89.4463C246.925 88.7769 246.813 88.2191 246.477 87.6619C246.143 87.1041 245.697 86.6578 245.137 86.4348C244.578 86.1006 244.02 85.989 243.238 85.989C242.568 85.989 241.897 86.1006 241.339 86.4348C240.781 86.7693 240.333 87.2156 239.999 87.6619C239.663 88.1081 239.551 88.7769 239.551 89.4463C239.551 90.1151 239.663 90.6728 239.999 91.2306C240.333 91.7879 240.781 92.2342 241.339 92.4572C241.897 92.792 242.456 92.9035 243.238 92.9035C243.908 92.9035 244.578 92.792 245.137 92.4572Z" fill="white"/>
<path d="M263.125 85.8775H258.321V93.907H256.981V84.6502H263.125V85.8775Z" fill="white"/>
<path d="M271.84 93.4613C271.058 93.015 270.5 92.4572 270.053 91.7879C269.605 91.1191 269.383 90.2266 269.383 89.3347C269.383 88.4422 269.605 87.6619 270.053 86.8809C270.5 86.2121 271.058 85.6543 271.84 85.208C272.622 84.7619 273.404 84.6502 274.411 84.6502C275.303 84.6502 276.197 84.8734 276.98 85.208C277.762 85.6543 278.32 86.2121 278.768 86.8809C279.214 87.5504 279.439 88.4422 279.439 89.3347C279.439 90.2266 279.214 91.0076 278.768 91.7879C278.32 92.4572 277.762 93.015 276.98 93.4613C276.197 93.907 275.415 94.0186 274.411 94.0186C273.404 94.1301 272.622 93.907 271.84 93.4613ZM276.197 92.4572C276.757 92.1227 277.204 91.6769 277.54 91.2306C277.874 90.6728 277.986 90.1151 277.986 89.4463C277.986 88.7769 277.874 88.2191 277.54 87.6619C277.204 87.1041 276.757 86.6578 276.197 86.4348C275.639 86.1006 275.081 85.989 274.299 85.989C273.628 85.989 272.958 86.1006 272.4 86.4348C271.84 86.7693 271.394 87.2156 271.058 87.6619C270.723 88.1081 270.611 88.7769 270.611 89.4463C270.611 90.1151 270.723 90.6728 271.058 91.2306C271.394 91.7879 271.84 92.2342 272.4 92.4572C272.958 92.792 273.516 92.9035 274.299 92.9035C275.081 92.9035 275.639 92.792 276.197 92.4572Z" fill="white"/>
<path d="M108.828 106.733H104.023V114.763H102.683V105.506H108.828V106.733Z" fill="white"/>
<path d="M121.342 112.421H116.426L115.42 114.763H114.079L118.325 105.506H119.666L123.912 114.763H122.571L121.342 112.421ZM120.895 111.417L118.884 106.956L116.872 111.417H120.895Z" fill="white"/>
<path d="M216.759 102.16C213.294 110.302 208.156 117.885 201.674 124.465C188.267 137.848 170.502 145.209 151.508 145.209C132.515 145.209 114.75 137.848 101.342 124.465C100.56 123.684 99.7782 122.792 98.9962 122.012H96.091C97.32 123.35 98.549 124.8 99.7782 126.027C113.633 139.856 131.956 147.439 151.508 147.439C171.061 147.439 189.385 139.856 203.238 126.027C210.278 119 215.64 110.971 219.216 102.16H216.759Z" fill="white"/>
<path d="M218.769 39.0367C215.528 32.1223 211.061 25.8768 205.585 20.4121C201.227 16.0625 196.312 12.3822 190.948 9.37103L195.865 0.560547C202.01 4.01783 207.596 8.25581 212.623 13.2744C218.881 19.5199 224.021 26.769 227.819 34.6873L218.769 39.0367Z" fill="white"/>
<path d="M172.848 6.80597L173.519 4.68697C147.374 -3.5659 119.107 3.34867 99.6661 22.6426C91.0631 31.3414 84.8059 41.8248 81.3423 53.2004H83.6887C87.0409 42.3826 92.9623 32.5684 101.23 24.3154C120.112 5.57918 147.486 -1.11235 172.848 6.80597Z" fill="white"/>
<path d="M7.93662 70.933H2.90881L1.90325 73.2752H0.5625L4.80819 64.0185H6.14896L10.3947 73.2752H8.94215L7.93662 70.933ZM7.48968 69.8179L5.47857 65.3566L3.46745 69.8179H7.48968Z" fill="white"/>
<path d="M21.7911 69.1484H19.8916V73.1635H18.5509V63.9068H19.8916V67.9219H21.9027L24.8077 63.9068H26.2602L22.9084 68.3681L26.3719 73.1635H24.8077L21.7911 69.1484Z" fill="white"/>
<path d="M40.3379 70.933H35.422L34.4163 73.2752H33.0756L37.3213 64.0185H38.6621L42.9078 73.2752H41.5669L40.3379 70.933ZM39.891 69.8179L37.8799 65.3566L35.8688 69.8179H39.891Z" fill="white"/>
<path d="M59.8903 72.0484V75.2826H58.6613V73.2752H50.9522V75.2826H49.7232V72.1601H50.1701C50.7287 72.1601 51.1757 71.7138 51.3991 70.8213C51.6226 69.9295 51.7343 68.7022 51.8459 67.141L51.9577 64.1299H58.55V72.1601H59.8903V72.0484ZM52.7398 70.264C52.6282 71.156 52.2929 71.7138 51.9577 72.0484H57.209V65.1339H53.0749L52.9633 67.0293C53.0749 68.3681 52.9633 69.4832 52.7398 70.264Z" fill="white"/>
<path d="M75.1977 73.1635H68.3822V63.9068H74.9739V65.0224H69.7225V67.8103H74.4157V68.9254H69.7225V71.9369H75.1977V73.1635Z" fill="white"/>
<path d="M92.5154 73.2752V66.5837L89.1633 72.1601H88.605L85.2529 66.5837V73.2752H84.0239V64.0185H85.1416L89.052 70.4873L92.8505 64.0185H93.9677V73.2752H92.5154Z" fill="white"/>
<path d="M103.354 64.0185H104.694V71.156L110.169 64.0185H111.398V73.2752H110.057V66.1375L104.582 73.2752H103.354V64.0185Z" fill="white"/>
<path d="M127.822 64.0185V73.2752H126.481V70.5983H123.912C123.8 70.5983 123.688 70.5983 123.576 70.5983L121.677 73.2752H120.224L122.235 70.3757C121.565 70.1527 121.006 69.8179 120.671 69.2601C120.336 68.7029 120.112 68.1451 120.112 67.3642C120.112 66.3607 120.447 65.4682 121.118 64.9109C121.789 64.3531 122.682 64.0185 123.912 64.0185H127.822ZM122.235 68.9254C122.682 69.2601 123.241 69.4832 124.023 69.4832H126.481V65.2451H124.135C123.353 65.2451 122.682 65.4682 122.347 65.8029C121.9 66.1375 121.677 66.6953 121.677 67.3642C121.677 68.0336 121.9 68.4798 122.235 68.9254Z" fill="white"/>
<path d="M6.8194 85.3197C7.48977 85.766 8.04841 86.3238 8.49534 86.9926C8.94227 87.6619 9.05399 88.5537 9.05399 89.4463C9.05399 90.3383 8.8305 91.1191 8.49534 91.8994C8.16013 92.6805 7.48977 93.1267 6.8194 93.4613C6.14903 93.907 5.2552 94.0186 4.47309 94.0186C3.69099 94.0186 3.02062 93.907 2.35023 93.684C1.67987 93.4613 1.23295 93.1267 0.786035 92.5689L1.67987 91.7884C2.35023 92.5689 3.24408 92.9035 4.36137 92.9035C4.92002 92.9035 5.47865 92.792 6.03731 92.5689C6.48424 92.3457 6.93112 91.8994 7.26633 91.4539C7.60149 91.0076 7.71326 90.4498 7.82498 89.8925H3.3558V88.7769H7.82498C7.71326 88.2197 7.48977 87.6619 7.26633 87.2156C6.8194 86.7693 6.37247 86.4353 5.92559 86.2121C5.47865 85.989 4.92002 85.8775 4.36137 85.8775C3.24408 85.8775 2.35023 86.2121 1.67987 86.9926L0.786035 86.2121C1.23295 85.766 1.67987 85.4312 2.35023 85.0965C3.02062 84.8734 3.69099 84.7619 4.47309 84.7619C5.2552 84.6509 6.14903 84.8734 6.8194 85.3197Z" fill="white"/>
<path d="M21.1205 89.8925H19.221V93.907H17.8803V84.6502H19.221V88.6654H21.2321L24.1371 84.6502H25.5896L22.2377 89.1115L25.7013 93.907H24.1371L21.1205 89.8925Z" fill="white"/>
<path d="M35.3102 93.4613C34.5279 93.015 33.9693 92.4572 33.5224 91.7879C33.0754 91.1191 32.8521 90.2266 32.8521 89.3347C32.8521 88.4422 33.0754 87.6619 33.5224 86.8809C33.9693 86.2121 34.5279 85.6543 35.3102 85.208C36.0922 84.7619 36.8743 84.6502 37.8799 84.6502C38.6619 84.6502 39.2205 84.7619 39.891 84.985C40.4496 85.208 41.0083 85.5428 41.4551 86.1006L40.5614 86.9926C39.891 86.2121 38.9971 85.8775 37.9915 85.8775C37.3213 85.8775 36.6508 85.989 36.0922 86.3238C35.5335 86.6578 35.0867 87.1041 34.7514 87.5504C34.4163 88.1082 34.3044 88.6654 34.3044 89.3347C34.3044 90.0035 34.4163 90.5613 34.7514 91.1191C35.0867 91.6769 35.5335 92.1227 36.0922 92.3457C36.6508 92.6804 37.3213 92.792 37.9915 92.792C38.9971 92.792 39.891 92.4572 40.5614 91.6769L41.4551 92.4572C41.0083 92.9035 40.5614 93.2382 39.891 93.5723C39.3324 93.7955 38.6619 93.907 37.8799 93.907C36.986 94.1301 36.0922 93.907 35.3102 93.4613Z" fill="white"/>
<path d="M57.9912 84.7619V94.0187H56.6502V85.989H51.2875V94.0187H49.9466V84.7619H57.9912Z" fill="white"/>
<path d="M69.1641 93.4613C68.382 93.015 67.8232 92.4572 67.3763 91.7879C66.9292 91.1191 66.706 90.2266 66.706 89.3347C66.706 88.4422 66.9292 87.6619 67.3763 86.8809C67.8232 86.2121 68.382 85.6543 69.1641 85.208C69.9462 84.7619 70.7284 84.6502 71.7336 84.6502C72.6277 84.6502 73.5216 84.8734 74.3037 85.208C75.0857 85.6543 75.644 86.2121 76.0911 86.8809C76.5381 87.5504 76.7619 88.4422 76.7619 89.3347C76.7619 90.2266 76.5381 91.0076 76.0911 91.7879C75.644 92.4572 75.0857 93.015 74.3037 93.4613C73.5216 93.907 72.7395 94.0186 71.7336 94.0186C70.7284 94.1301 69.9462 93.907 69.1641 93.4613ZM73.5216 92.4572C74.0798 92.1227 74.527 91.6769 74.8619 91.2306C75.1976 90.6728 75.309 90.1151 75.309 89.4463C75.309 88.7769 75.1976 88.2191 74.8619 87.6619C74.527 87.1041 74.0798 86.6578 73.5216 86.4348C72.9626 86.1006 72.4044 85.989 71.6223 85.989C70.9515 85.989 70.2813 86.1006 69.7225 86.4348C69.1641 86.7693 68.7171 87.2156 68.382 87.6619C68.0469 88.1081 67.9351 88.7769 67.9351 89.4463C67.9351 90.1151 68.0469 90.6728 68.382 91.2306C68.7171 91.7879 69.1641 92.2342 69.7225 92.4572C70.2813 92.792 70.8402 92.9035 71.6223 92.9035C72.4044 92.9035 72.9626 92.792 73.5216 92.4572Z" fill="white"/>
<path d="M93.4093 84.7619V94.0187H92.0684V89.8925H86.7057V94.0187H85.3647V84.7619H86.7057V88.7769H92.0684V84.7619H93.4093Z" fill="white"/>
<path d="M109.721 93.907H102.906V84.6502H109.498V85.766H104.247V88.5537H108.939V89.6695H104.247V92.6804H109.721V93.907Z" fill="white"/>
<path d="M126.481 84.7619V94.0187H125.14V89.8925H119.889V94.0187H118.548V84.7619H119.889V88.7769H125.252V84.7619H126.481Z" fill="white"/>
<path d="M145.363 96.0262H144.134V93.907H136.09V84.6502H137.43V92.6804H142.57V84.6502H143.911V92.6804H145.363V96.0262Z" fill="white"/>
<path d="M153.743 84.7619H155.084V91.8996L160.559 84.7619H161.788V94.0187H160.447V86.881L154.972 94.0187H153.743V84.7619Z" fill="white"/>
<path d="M211.953 88.7769C212.513 89.2232 212.847 90.0035 212.847 90.8961C212.847 91.8996 212.513 92.6804 211.843 93.2382C211.171 93.7955 210.278 94.0187 209.16 94.0187H205.361V84.7619H206.703V87.9966H209.496C210.501 87.9966 211.395 88.2192 211.953 88.7769ZM210.949 92.4574C211.395 92.1227 211.619 91.5654 211.619 90.8961C211.619 89.6695 210.837 89.0002 209.272 89.0002H206.813V92.9037H209.272C209.942 92.9037 210.501 92.792 210.949 92.4574Z" fill="white"/>
<path d="M5.14351 110.748H3.13239V114.763H1.90337V105.506H3.24411V109.521H5.25523L8.16018 105.506H9.6127L6.26078 109.967L9.72442 114.763H8.16018L5.14351 110.748Z" fill="white"/>
<path d="M19.3328 114.205C18.5508 113.759 17.992 113.201 17.545 112.532C17.0982 111.863 16.8748 110.971 16.8748 110.078C16.8748 109.186 17.0982 108.405 17.545 107.625C17.992 106.956 18.5508 106.398 19.3328 105.952C20.1149 105.506 20.897 105.394 21.9025 105.394C22.7964 105.394 23.6902 105.618 24.4722 105.952C25.2545 106.398 25.8131 106.956 26.26 107.625C26.707 108.294 26.9303 109.186 26.9303 110.078C26.9303 110.971 26.707 111.751 26.26 112.532C25.8131 113.201 25.2545 113.759 24.4722 114.205C23.6902 114.651 22.9081 114.762 21.9025 114.762C20.897 114.874 20.0031 114.651 19.3328 114.205ZM23.6902 113.201C24.2489 112.867 24.6959 112.42 25.031 111.974C25.3661 111.416 25.478 110.859 25.478 110.19C25.478 109.521 25.3661 108.963 25.031 108.405C24.6959 107.848 24.2489 107.402 23.6902 107.179C23.1316 106.844 22.573 106.733 21.7909 106.733C21.1205 106.733 20.45 106.844 19.8914 107.179C19.3328 107.514 18.8859 107.959 18.5508 108.405C18.2155 108.852 18.1038 109.521 18.1038 110.19C18.1038 110.859 18.2155 111.416 18.5508 111.974C18.8859 112.532 19.3328 112.978 19.8914 113.201C20.45 113.536 21.0088 113.647 21.7909 113.647C22.4611 113.647 23.1316 113.536 23.6902 113.201Z" fill="white"/>
<path d="M42.9078 105.506L38.7738 113.089C38.4386 113.647 38.1033 114.094 37.6566 114.428C37.2096 114.763 36.7627 114.874 36.2039 114.874C35.7571 114.874 35.4218 114.763 34.975 114.651L35.3102 113.647C35.6453 113.759 35.9806 113.87 36.2039 113.87C36.7627 113.87 37.3213 113.536 37.6566 112.978L37.8799 112.644L34.0811 105.618H35.5336L38.5503 111.417L41.6788 105.618H42.9078V105.506Z" fill="white"/>
<path d="M57.9914 105.506V114.763H56.6504V111.082C55.645 111.417 54.7511 111.64 53.969 111.64C52.8518 111.64 51.9579 111.417 51.2875 110.859C50.6172 110.302 50.3938 109.521 50.3938 108.517V105.506H51.7344V108.294C51.7344 108.963 51.9579 109.521 52.4049 109.855C52.8518 110.19 53.4104 110.413 54.1925 110.413C55.0864 110.413 55.8685 110.19 56.7622 109.855V105.506H57.9914Z" fill="white"/>
<path d="M67.6001 105.506H68.9406V112.644L74.4157 105.506H75.6442V114.763H74.3038V107.625L68.8291 114.763H67.6001V105.506Z" fill="white"/>
<path d="M93.1856 105.506V114.763H91.8451V110.636H86.4819V114.763H85.1414V105.506H86.4819V109.521H91.8451V105.506H93.1856Z" fill="white"/>
<path d="M177.429 91.6771H172.513L171.508 94.0187H170.167L174.413 84.7619H175.754L180 94.0187H178.658L177.429 91.6771ZM176.983 90.673L174.972 86.2122L172.96 90.673H176.983Z" fill="white"/>
<path d="M194.413 94.0187H195.753V84.8734H189.161L189.049 88.7769C189.049 89.6695 188.937 90.5613 188.825 91.1193C188.713 91.6764 188.491 92.1227 188.267 92.4574C188.045 92.792 187.709 92.9037 187.373 92.9037H186.926L186.814 94.0187C187.15 94.1303 187.485 94.1303 187.709 94.1303C188.379 94.1303 188.825 94.0187 189.161 93.5725C189.496 93.1267 189.831 92.5689 189.943 91.7881C190.166 91.0076 190.278 89.8925 190.278 88.6654V85.989H194.413V94.0187Z" fill="white"/>
</g>
<defs>
<clipPath id="clip0_2130_24">
<rect width="280" height="148" fill="white"/>
</clipPath>
</defs>
</svg>
