<svg width="310" height="64" viewBox="0 0 310 64" fill="none" xmlns="http://www.w3.org/2000/svg">
<path d="M80 27.4358V17.6787H81.0301V27.4358H80Z" fill="#DECCA2"/>
<path d="M84.7575 27.4358V17.6787H85.6066L92.3302 26.1534H91.8848V17.6787H92.901V27.4358H92.0518L85.3421 18.9611H85.7876V27.4358H84.7575Z" fill="#DECCA2"/>
<path d="M99.325 27.5194C98.6011 27.5194 97.9051 27.4032 97.2369 27.1709C96.578 26.9293 96.0676 26.6227 95.7056 26.251L96.1093 25.4565C96.4527 25.791 96.9121 26.0744 97.4875 26.3067C98.0721 26.5298 98.6846 26.6413 99.325 26.6413C99.9375 26.6413 100.434 26.5669 100.814 26.4182C101.204 26.2603 101.487 26.0512 101.664 25.791C101.849 25.5308 101.942 25.2427 101.942 24.9268C101.942 24.5458 101.831 24.2392 101.608 24.0069C101.394 23.7745 101.111 23.5933 100.759 23.4632C100.406 23.3239 100.016 23.2031 99.5895 23.1008C99.1626 22.9986 98.7357 22.8918 98.3088 22.7803C97.8819 22.6594 97.4875 22.5015 97.1255 22.3063C96.7729 22.1112 96.4852 21.8557 96.2625 21.5397C96.049 21.2145 95.9423 20.7917 95.9423 20.2713C95.9423 19.7881 96.0676 19.3467 96.3181 18.9471C96.578 18.5382 96.9724 18.213 97.5014 17.9714C98.0304 17.7205 98.7078 17.5951 99.5338 17.5951C100.081 17.5951 100.624 17.674 101.162 17.832C101.701 17.9807 102.165 18.1898 102.555 18.4593L102.207 19.2816C101.789 19.0029 101.343 18.7984 100.87 18.6683C100.406 18.5382 99.956 18.4732 99.5199 18.4732C98.9352 18.4732 98.4526 18.5522 98.0721 18.7102C97.6916 18.8681 97.4086 19.0819 97.223 19.3513C97.0466 19.6115 96.9585 19.9089 96.9585 20.2434C96.9585 20.6244 97.0652 20.9311 97.2787 21.1634C97.5014 21.3957 97.7891 21.5769 98.1417 21.707C98.5037 21.8371 98.8981 21.9532 99.325 22.0554C99.7519 22.1577 100.174 22.2692 100.592 22.39C101.019 22.5108 101.408 22.6687 101.761 22.8639C102.123 23.0497 102.411 23.3006 102.624 23.6166C102.847 23.9325 102.958 24.346 102.958 24.8571C102.958 25.331 102.828 25.7724 102.568 26.1813C102.309 26.5809 101.91 26.9061 101.371 27.157C100.842 27.3986 100.16 27.5194 99.325 27.5194Z" fill="#DECCA2"/>
<path d="M107.517 27.4358V18.5708H104.092V17.6787H111.971V18.5708H108.547V27.4358H107.517Z" fill="#DECCA2"/>
<path d="M114.174 27.4358V17.6787H115.204V27.4358H114.174Z" fill="#DECCA2"/>
<path d="M120.824 27.4358V18.5708H117.4V17.6787H125.279V18.5708H121.855V27.4358H120.824Z" fill="#DECCA2"/>
<path d="M131.217 27.5194C129.973 27.5194 128.994 27.1616 128.28 26.4461C127.565 25.7306 127.208 24.6713 127.208 23.2681V17.6787H128.238V23.2263C128.238 24.3786 128.498 25.2288 129.017 25.7771C129.537 26.3253 130.27 26.5994 131.217 26.5994C132.173 26.5994 132.911 26.3253 133.43 25.7771C133.95 25.2288 134.21 24.3786 134.21 23.2263V17.6787H135.212V23.2681C135.212 24.6713 134.855 25.7306 134.14 26.4461C133.435 27.1616 132.46 27.5194 131.217 27.5194Z" fill="#DECCA2"/>
<path d="M140.576 27.4358V18.5708H137.151V17.6787H145.03V18.5708H141.606V27.4358H140.576Z" fill="#DECCA2"/>
<path d="M148.152 22.0415H153.302V22.9196H148.152V22.0415ZM148.263 26.5437H154.124V27.4358H147.233V17.6787H153.915V18.5708H148.263V26.5437Z" fill="#DECCA2"/>
<path d="M165.562 27.5194C164.828 27.5194 164.146 27.3986 163.515 27.157C162.894 26.9061 162.351 26.5576 161.887 26.1116C161.432 25.6563 161.075 25.1312 160.815 24.5365C160.564 23.9325 160.439 23.2728 160.439 22.5572C160.439 21.8417 160.564 21.1866 160.815 20.5919C161.075 19.9879 161.432 19.4628 161.887 19.0168C162.351 18.5615 162.894 18.213 163.515 17.9714C164.137 17.7205 164.819 17.5951 165.562 17.5951C166.295 17.5951 166.972 17.7205 167.594 17.9714C168.216 18.213 168.754 18.5568 169.209 19.0029C169.673 19.4489 170.03 19.9739 170.281 20.5779C170.541 21.1819 170.67 21.8417 170.67 22.5572C170.67 23.2728 170.541 23.9325 170.281 24.5365C170.03 25.1405 169.673 25.6656 169.209 26.1116C168.754 26.5576 168.216 26.9061 167.594 27.157C166.972 27.3986 166.295 27.5194 165.562 27.5194ZM165.562 26.5994C166.146 26.5994 166.685 26.5019 167.176 26.3067C167.678 26.1023 168.109 25.8189 168.471 25.4565C168.842 25.0848 169.13 24.6573 169.334 24.1741C169.538 23.6816 169.64 23.1427 169.64 22.5572C169.64 21.9718 169.538 21.4375 169.334 20.9543C169.13 20.4618 168.842 20.0343 168.471 19.6719C168.109 19.3002 167.678 19.0168 167.176 18.8217C166.685 18.6172 166.146 18.515 165.562 18.515C164.977 18.515 164.434 18.6172 163.933 18.8217C163.432 19.0168 162.996 19.3002 162.624 19.6719C162.262 20.0343 161.975 20.4618 161.761 20.9543C161.557 21.4375 161.455 21.9718 161.455 22.5572C161.455 23.1334 161.557 23.6677 161.761 24.1602C161.975 24.6527 162.262 25.0848 162.624 25.4565C162.996 25.8189 163.432 26.1023 163.933 26.3067C164.434 26.5019 164.977 26.5994 165.562 26.5994Z" fill="#DECCA2"/>
<path d="M174.455 22.4039H179.606V23.296H174.455V22.4039ZM174.566 27.4358H173.536V17.6787H180.218V18.5708H174.566V27.4358Z" fill="#DECCA2"/>
<path d="M187.102 27.4358V17.6787H187.951L192.406 25.2892H191.961L196.373 17.6787H197.223V27.4358H196.234V19.2259H196.471L192.406 26.1952H191.919L187.826 19.2259H188.091V27.4358H187.102Z" fill="#DECCA2"/>
<path d="M201.873 22.0415H207.024V22.9196H201.873V22.0415ZM201.984 26.5437H207.845V27.4358H200.954V17.6787H207.636V18.5708H201.984V26.5437Z" fill="#DECCA2"/>
<path d="M212.716 27.4358V18.5708H209.292V17.6787H217.171V18.5708H213.747V27.4358H212.716Z" fill="#DECCA2"/>
<path d="M217.325 27.4358L221.78 17.6787H222.796L227.25 27.4358H226.165L222.072 18.2781H222.49L218.397 27.4358H217.325ZM219.079 24.8292L219.385 23.9929H225.051L225.357 24.8292H219.079Z" fill="#DECCA2"/>
<path d="M233.515 27.5194C232.782 27.5194 232.104 27.3986 231.483 27.157C230.861 26.9061 230.323 26.5576 229.868 26.1116C229.413 25.6656 229.056 25.1405 228.796 24.5365C228.545 23.9325 228.42 23.2728 228.42 22.5572C228.42 21.8417 228.545 21.1819 228.796 20.5779C229.056 19.9739 229.413 19.4489 229.868 19.0029C230.332 18.5568 230.875 18.213 231.497 17.9714C232.118 17.7205 232.796 17.5951 233.529 17.5951C234.234 17.5951 234.898 17.7159 235.52 17.9575C236.141 18.1898 236.666 18.5429 237.093 19.0168L236.438 19.6719C236.039 19.2631 235.598 18.9703 235.116 18.7938C234.633 18.6079 234.114 18.515 233.557 18.515C232.972 18.515 232.429 18.6172 231.928 18.8217C231.427 19.0168 230.991 19.3002 230.62 19.6719C230.248 20.0343 229.956 20.4618 229.743 20.9543C229.538 21.4375 229.436 21.9718 229.436 22.5572C229.436 23.1427 229.538 23.6816 229.743 24.1741C229.956 24.6573 230.248 25.0848 230.62 25.4565C230.991 25.8189 231.427 26.1023 231.928 26.3067C232.429 26.5019 232.972 26.5994 233.557 26.5994C234.114 26.5994 234.633 26.5065 235.116 26.3207C235.598 26.1348 236.039 25.8375 236.438 25.4286L237.093 26.0837C236.666 26.5576 236.141 26.9154 235.52 27.157C234.898 27.3986 234.23 27.5194 233.515 27.5194Z" fill="#DECCA2"/>
<path d="M243.901 27.5194C243.168 27.5194 242.486 27.3986 241.855 27.157C241.233 26.9061 240.69 26.5576 240.226 26.1116C239.771 25.6563 239.414 25.1312 239.154 24.5365C238.904 23.9325 238.778 23.2728 238.778 22.5572C238.778 21.8417 238.904 21.1866 239.154 20.5919C239.414 19.9879 239.771 19.4628 240.226 19.0168C240.69 18.5615 241.233 18.213 241.855 17.9714C242.477 17.7205 243.159 17.5951 243.901 17.5951C244.634 17.5951 245.312 17.7205 245.934 17.9714C246.555 18.213 247.094 18.5568 247.548 19.0029C248.012 19.4489 248.37 19.9739 248.62 20.5779C248.88 21.1819 249.01 21.8417 249.01 22.5572C249.01 23.2728 248.88 23.9325 248.62 24.5365C248.37 25.1405 248.012 25.6656 247.548 26.1116C247.094 26.5576 246.555 26.9061 245.934 27.157C245.312 27.3986 244.634 27.5194 243.901 27.5194ZM243.901 26.5994C244.486 26.5994 245.024 26.5019 245.516 26.3067C246.017 26.1023 246.449 25.8189 246.811 25.4565C247.182 25.0848 247.469 24.6573 247.674 24.1741C247.878 23.6816 247.98 23.1427 247.98 22.5572C247.98 21.9718 247.878 21.4375 247.674 20.9543C247.469 20.4618 247.182 20.0343 246.811 19.6719C246.449 19.3002 246.017 19.0168 245.516 18.8217C245.024 18.6172 244.486 18.515 243.901 18.515C243.316 18.515 242.774 18.6172 242.272 18.8217C241.771 19.0168 241.335 19.3002 240.964 19.6719C240.602 20.0343 240.314 20.4618 240.101 20.9543C239.897 21.4375 239.795 21.9718 239.795 22.5572C239.795 23.1334 239.897 23.6677 240.101 24.1602C240.314 24.6527 240.602 25.0848 240.964 25.4565C241.335 25.8189 241.771 26.1023 242.272 26.3067C242.774 26.5019 243.316 26.5994 243.901 26.5994Z" fill="#DECCA2"/>
<path d="M256.149 27.5194C255.407 27.5194 254.72 27.3986 254.089 27.157C253.467 26.9061 252.924 26.5576 252.46 26.1116C252.006 25.6656 251.648 25.1405 251.389 24.5365C251.138 23.9325 251.013 23.2728 251.013 22.5572C251.013 21.8417 251.138 21.1819 251.389 20.5779C251.648 19.9739 252.01 19.4489 252.474 19.0029C252.938 18.5568 253.481 18.213 254.103 17.9714C254.734 17.7205 255.421 17.5951 256.163 17.5951C256.906 17.5951 257.583 17.7112 258.196 17.9435C258.817 18.1758 259.346 18.529 259.783 19.0029L259.142 19.658C258.734 19.2491 258.284 18.9564 257.792 18.7798C257.3 18.6033 256.771 18.515 256.205 18.515C255.602 18.515 255.045 18.6172 254.535 18.8217C254.033 19.0168 253.593 19.3002 253.212 19.6719C252.841 20.0343 252.549 20.4618 252.335 20.9543C252.131 21.4375 252.029 21.9718 252.029 22.5572C252.029 23.1334 252.131 23.6677 252.335 24.1602C252.549 24.6527 252.841 25.0848 253.212 25.4565C253.593 25.8189 254.033 26.1023 254.535 26.3067C255.045 26.5019 255.597 26.5994 256.191 26.5994C256.748 26.5994 257.272 26.5158 257.764 26.3486C258.265 26.1813 258.725 25.8979 259.142 25.4983L259.727 26.2789C259.263 26.6877 258.72 26.999 258.098 27.2127C257.476 27.4172 256.827 27.5194 256.149 27.5194ZM258.739 26.1534V22.5572H259.727V26.2789L258.739 26.1534Z" fill="#DECCA2"/>
<path d="M263.199 27.4358V17.6787H264.048L270.772 26.1534H270.327V17.6787H271.343V27.4358H270.494L263.784 18.9611H264.229V27.4358H263.199Z" fill="#DECCA2"/>
<path d="M275.08 27.4358V17.6787H276.11V27.4358H275.08Z" fill="#DECCA2"/>
<path d="M281.731 27.4358V18.5708H278.306V17.6787H286.185V18.5708H282.761V27.4358H281.731Z" fill="#DECCA2"/>
<path d="M288.388 27.4358V17.6787H289.418V27.4358H288.388Z" fill="#DECCA2"/>
<path d="M295.807 27.4358L291.491 17.6787H292.605L296.642 26.8643H296.029L300.094 17.6787H301.138L296.823 27.4358H295.807Z" fill="#DECCA2"/>
<path d="M304.028 22.0415H309.179V22.9196H304.028V22.0415ZM304.139 26.5437H310V27.4358H303.109V17.6787H309.791V18.5708H304.139V26.5437Z" fill="#DECCA2"/>
<path d="M80 47.3482V37.5911H83.6472C84.4731 37.5911 85.1831 37.7258 85.777 37.9953C86.371 38.2555 86.8257 38.6365 87.1412 39.1383C87.4661 39.6308 87.6285 40.2301 87.6285 40.9364C87.6285 41.624 87.4661 42.2187 87.1412 42.7205C86.8257 43.213 86.371 43.594 85.777 43.8635C85.1831 44.133 84.4731 44.2677 83.6472 44.2677H80.5707L81.0301 43.7799V47.3482H80ZM81.0301 43.8635L80.5707 43.3617H83.6193C84.5938 43.3617 85.3316 43.1526 85.8327 42.7345C86.3431 42.307 86.5983 41.7076 86.5983 40.9364C86.5983 40.1558 86.3431 39.5518 85.8327 39.1243C85.3316 38.6969 84.5938 38.4832 83.6193 38.4832H80.5707L81.0301 37.9953V43.8635Z" fill="#DECCA2"/>
<path d="M90.4127 47.3482V37.5911H94.0599C94.8858 37.5911 95.5958 37.7258 96.1897 37.9953C96.7836 38.2555 97.2384 38.6365 97.5539 39.1383C97.8787 39.6308 98.0411 40.2301 98.0411 40.9364C98.0411 41.624 97.8787 42.2187 97.5539 42.7205C97.2384 43.213 96.7836 43.594 96.1897 43.8635C95.5958 44.1237 94.8858 44.2538 94.0599 44.2538H90.9834L91.4428 43.7799V47.3482H90.4127ZM97.0667 47.3482L94.561 43.8077H95.6746L98.1943 47.3482H97.0667ZM91.4428 43.8635L90.9834 43.3756H94.032C95.0065 43.3756 95.7442 43.1619 96.2454 42.7345C96.7558 42.307 97.011 41.7076 97.011 40.9364C97.011 40.1558 96.7558 39.5518 96.2454 39.1243C95.7442 38.6969 95.0065 38.4832 94.032 38.4832H90.9834L91.4428 37.9953V43.8635Z" fill="#DECCA2"/>
<path d="M105.289 47.4318C104.556 47.4318 103.874 47.311 103.243 47.0694C102.621 46.8185 102.078 46.47 101.614 46.024C101.159 45.5687 100.802 45.0436 100.542 44.4489C100.291 43.8449 100.166 43.1851 100.166 42.4696C100.166 41.7541 100.291 41.099 100.542 40.5043C100.802 39.9003 101.159 39.3752 101.614 38.9292C102.078 38.4739 102.621 38.1254 103.243 37.8838C103.864 37.6329 104.547 37.5075 105.289 37.5075C106.022 37.5075 106.7 37.6329 107.321 37.8838C107.943 38.1254 108.481 38.4692 108.936 38.9153C109.4 39.3613 109.757 39.8863 110.008 40.4903C110.268 41.0943 110.398 41.7541 110.398 42.4696C110.398 43.1851 110.268 43.8449 110.008 44.4489C109.757 45.0529 109.4 45.578 108.936 46.024C108.481 46.47 107.943 46.8185 107.321 47.0694C106.7 47.311 106.022 47.4318 105.289 47.4318ZM105.289 46.5118C105.874 46.5118 106.412 46.4143 106.904 46.2191C107.405 46.0147 107.836 45.7313 108.198 45.3689C108.57 44.9972 108.857 44.5697 109.061 44.0865C109.266 43.594 109.368 43.0551 109.368 42.4696C109.368 41.8842 109.266 41.3499 109.061 40.8667C108.857 40.3742 108.57 39.9467 108.198 39.5843C107.836 39.2126 107.405 38.9292 106.904 38.7341C106.412 38.5296 105.874 38.4274 105.289 38.4274C104.704 38.4274 104.161 38.5296 103.66 38.7341C103.159 38.9292 102.723 39.2126 102.352 39.5843C101.99 39.9467 101.702 40.3742 101.489 40.8667C101.284 41.3499 101.182 41.8842 101.182 42.4696C101.182 43.0458 101.284 43.5801 101.489 44.0726C101.702 44.5651 101.99 44.9972 102.352 45.3689C102.723 45.7313 103.159 46.0147 103.66 46.2191C104.161 46.4143 104.704 46.5118 105.289 46.5118Z" fill="#DECCA2"/>
<path d="M117.537 47.4318C116.795 47.4318 116.108 47.311 115.477 47.0694C114.855 46.8185 114.312 46.47 113.848 46.024C113.393 45.578 113.036 45.0529 112.776 44.4489C112.526 43.8449 112.4 43.1851 112.4 42.4696C112.4 41.7541 112.526 41.0943 112.776 40.4903C113.036 39.8863 113.398 39.3613 113.862 38.9153C114.326 38.4692 114.869 38.1254 115.491 37.8838C116.122 37.6329 116.809 37.5075 117.551 37.5075C118.294 37.5075 118.971 37.6236 119.584 37.8559C120.205 38.0882 120.734 38.4413 121.17 38.9153L120.53 39.5704C120.122 39.1615 119.672 38.8688 119.18 38.6922C118.688 38.5157 118.159 38.4274 117.593 38.4274C116.99 38.4274 116.433 38.5296 115.922 38.7341C115.421 38.9292 114.98 39.2126 114.6 39.5843C114.229 39.9467 113.936 40.3742 113.723 40.8667C113.519 41.3499 113.417 41.8842 113.417 42.4696C113.417 43.0458 113.519 43.5801 113.723 44.0726C113.936 44.5651 114.229 44.9972 114.6 45.3689C114.98 45.7313 115.421 46.0147 115.922 46.2191C116.433 46.4143 116.985 46.5118 117.579 46.5118C118.136 46.5118 118.66 46.4282 119.152 46.2609C119.653 46.0937 120.112 45.8103 120.53 45.4107L121.115 46.1913C120.651 46.6001 120.108 46.9114 119.486 47.1251C118.864 47.3296 118.215 47.4318 117.537 47.4318ZM120.126 46.0658V42.4696H121.115V46.1913L120.126 46.0658Z" fill="#DECCA2"/>
<path d="M124.587 47.3482V37.5911H128.234C129.06 37.5911 129.77 37.7258 130.364 37.9953C130.958 38.2555 131.413 38.6365 131.728 39.1383C132.053 39.6308 132.216 40.2301 132.216 40.9364C132.216 41.624 132.053 42.2187 131.728 42.7205C131.413 43.213 130.958 43.594 130.364 43.8635C129.77 44.1237 129.06 44.2538 128.234 44.2538H125.158L125.617 43.7799V47.3482H124.587ZM131.241 47.3482L128.735 43.8077H129.849L132.369 47.3482H131.241ZM125.617 43.8635L125.158 43.3756H128.206C129.181 43.3756 129.919 43.1619 130.42 42.7345C130.93 42.307 131.185 41.7076 131.185 40.9364C131.185 40.1558 130.93 39.5518 130.42 39.1243C129.919 38.6969 129.181 38.4832 128.206 38.4832H125.158L125.617 37.9953V43.8635Z" fill="#DECCA2"/>
<path d="M133.645 47.3482L138.099 37.5911H139.115L143.57 47.3482H142.484L138.391 38.1905H138.809L134.716 47.3482H133.645ZM135.399 44.7416L135.705 43.9053H141.37L141.677 44.7416H135.399Z" fill="#DECCA2"/>
<path d="M145.739 47.3482V37.5911H146.588L151.042 45.2016H150.597L155.01 37.5911H155.859V47.3482H154.871V39.1383H155.107L151.042 46.1076H150.555L146.463 39.1383H146.727V47.3482H145.739Z" fill="#DECCA2"/>
<path d="M159.591 47.3482V37.5911H160.44L164.894 45.2016H164.449L168.862 37.5911H169.711V47.3482H168.723V39.1383H168.959L164.894 46.1076H164.407L160.315 39.1383H160.579V47.3482H159.591Z" fill="#DECCA2"/>
<path d="M173.443 47.3482V37.5911H174.473V47.3482H173.443Z" fill="#DECCA2"/>
<path d="M178.2 47.3482V37.5911H179.049L185.773 46.0658H185.328V37.5911H186.344V47.3482H185.495L178.785 38.8735H179.23V47.3482H178.2Z" fill="#DECCA2"/>
<path d="M194.355 47.4318C193.612 47.4318 192.925 47.311 192.294 47.0694C191.673 46.8185 191.13 46.47 190.666 46.024C190.211 45.578 189.854 45.0529 189.594 44.4489C189.343 43.8449 189.218 43.1851 189.218 42.4696C189.218 41.7541 189.343 41.0943 189.594 40.4903C189.854 39.8863 190.216 39.3613 190.68 38.9153C191.144 38.4692 191.687 38.1254 192.308 37.8838C192.939 37.6329 193.626 37.5075 194.369 37.5075C195.111 37.5075 195.788 37.6236 196.401 37.8559C197.023 38.0882 197.552 38.4413 197.988 38.9153L197.348 39.5704C196.939 39.1615 196.489 38.8688 195.997 38.6922C195.505 38.5157 194.976 38.4274 194.41 38.4274C193.807 38.4274 193.25 38.5296 192.74 38.7341C192.239 38.9292 191.798 39.2126 191.417 39.5843C191.046 39.9467 190.754 40.3742 190.54 40.8667C190.336 41.3499 190.234 41.8842 190.234 42.4696C190.234 43.0458 190.336 43.5801 190.54 44.0726C190.754 44.5651 191.046 44.9972 191.417 45.3689C191.798 45.7313 192.239 46.0147 192.74 46.2191C193.25 46.4143 193.802 46.5118 194.396 46.5118C194.953 46.5118 195.478 46.4282 195.969 46.2609C196.471 46.0937 196.93 45.8103 197.348 45.4107L197.932 46.1913C197.468 46.6001 196.925 46.9114 196.304 47.1251C195.682 47.3296 195.032 47.4318 194.355 47.4318ZM196.944 46.0658V42.4696H197.932V46.1913L196.944 46.0658Z" fill="#DECCA2"/>
<path d="M60.4258 12.0709C61.3507 13.4481 62.1773 14.8975 62.8962 16.4098L58.7277 18.37C55.8394 12.2945 50.9401 7.39042 44.8502 4.47874L44.8486 4.47798L46.8462 0.344727C48.362 1.06937 49.8141 1.90076 51.1929 2.82943C54.842 5.28709 57.978 8.42607 60.4258 12.0709Z" fill="#DECCA2"/>
<path d="M37.8767 1.50797C35.5666 0.971353 33.1588 0.687577 30.6842 0.687577C17.4156 0.687577 6.06316 8.84672 1.42236 20.3955H2.50241C7.08756 9.4089 17.9786 1.68214 30.6842 1.68214C33.1298 1.68214 35.508 1.96839 37.7871 2.50904L37.8767 1.50797Z" fill="#DECCA2"/>
<path d="M61.037 23.6087L60.0543 23.8073C60.7905 26.4181 61.1842 29.1714 61.1842 32.0162C61.1842 48.7692 47.5289 62.3502 30.6842 62.3502C18.6138 62.3502 8.18099 55.3766 3.23676 45.2595H2.1288C7.14627 55.9425 18.0461 63.3447 30.6842 63.3447C48.0812 63.3447 62.1842 49.3184 62.1842 32.0162C62.1842 29.1037 61.7847 26.2842 61.037 23.6087Z" fill="#DECCA2"/>
<path d="M31.8743 40.0124C30.7988 40.0124 29.8049 39.8363 28.8928 39.4843C27.9806 39.1187 27.191 38.611 26.5239 37.961C25.8568 37.3111 25.3327 36.5461 24.9515 35.666C24.5839 34.7859 24.4001 33.8245 24.4001 32.7819C24.4001 31.7394 24.5839 30.778 24.9515 29.8979C25.3327 29.0178 25.8568 28.2528 26.5239 27.6029C27.2046 26.9529 28.0011 26.4519 28.9132 26.0999C29.8254 25.7343 30.8192 25.5515 31.8947 25.5515C32.9294 25.5515 33.9028 25.7275 34.815 26.0796C35.7271 26.4181 36.4963 26.9326 37.1226 27.6232L36.1628 28.5777C35.5774 27.982 34.9307 27.5555 34.2228 27.2982C33.5148 27.0274 32.7524 26.892 31.9356 26.892C31.0779 26.892 30.2814 27.0409 29.5463 27.3388C28.8111 27.6232 28.1712 28.0361 27.6267 28.5777C27.0821 29.1058 26.6533 29.7287 26.3401 30.4463C26.0406 31.1504 25.8909 31.9289 25.8909 32.7819C25.8909 33.635 26.0406 34.4203 26.3401 35.1379C26.6533 35.842 27.0821 36.4649 27.6267 37.0065C28.1712 37.5345 28.8111 37.9475 29.5463 38.2454C30.2814 38.5297 31.0779 38.6719 31.9356 38.6719C32.7524 38.6719 33.5148 38.5365 34.2228 38.2657C34.9307 37.9949 35.5774 37.5616 36.1628 36.9658L37.1226 37.9204C36.4963 38.611 35.7271 39.1323 34.815 39.4843C33.9028 39.8363 32.9226 40.0124 31.8743 40.0124Z" fill="#DECCA2"/>
<path d="M0 25.6734V39.8905H1.51118V25.6734H0Z" fill="#DECCA2"/>
<path d="M6.16229 25.6734V39.8905H7.6122V28.5841L13.2281 38.0829H13.9428L19.5587 28.519V39.8905H21.0086V25.6734H19.7629L13.6145 36.2057L7.40799 25.6734H6.16229Z" fill="#DECCA2"/>
<path fill-rule="evenodd" clip-rule="evenodd" d="M45.6944 25.6734H40.344V39.8905H41.8552V35.402H45.6944C46.9061 35.402 47.9476 35.2056 48.8189 34.813C49.6902 34.4203 50.3573 33.8652 50.8202 33.1475C51.2967 32.4164 51.5349 31.5498 51.5349 30.5478C51.5349 29.5188 51.2967 28.6454 50.8202 27.9278C50.3573 27.1966 49.6902 26.6415 48.8189 26.2624C47.9476 25.8697 46.9061 25.6734 45.6944 25.6734ZM41.8552 34.0818H45.6536C47.0831 34.0818 48.1654 33.7771 48.9006 33.1678C49.6493 32.545 50.0237 31.6717 50.0237 30.5478C50.0237 29.4105 49.6493 28.5304 48.9006 27.9075C48.1654 27.2847 47.0831 26.9732 45.6536 26.9732H41.8552V34.0818Z" fill="#DECCA2"/>
</svg>
