<svg width="85" height="85" viewBox="0 0 85 85" fill="none" xmlns="http://www.w3.org/2000/svg">
<path d="M69.375 10C68.4673 10 17.5293 10 16.625 10C13.5234 10 11 12.5234 11 15.625V18.4819C11 23.1094 12.5918 27.6479 15.4829 31.2612C17.8872 34.2666 21.3071 36.6206 25.1128 37.8892L27.1001 38.5513C29.4082 42.312 33.0283 45.209 37.375 46.585V49.5C37.375 50.5337 36.5337 51.375 35.5 51.375C32.3984 51.375 29.875 53.8984 29.875 57V58.875H28C26.9644 58.875 26.125 59.7144 26.125 60.75V70.25H24.25C23.2144 70.25 22.375 71.0894 22.375 72.125C22.375 73.1606 23.2144 74 24.25 74H61.75C62.7856 74 63.625 73.1606 63.625 72.125C63.625 71.0894 62.7856 70.25 61.75 70.25H59.875V60.75C59.875 59.7144 59.0356 58.875 58 58.875H56.125V57C56.125 53.8984 53.6016 51.375 50.5 51.375C49.4663 51.375 48.625 50.5337 48.625 49.5V46.585C52.9668 45.2104 56.5835 42.3188 58.8921 38.564L60.9878 37.897C60.9956 37.8945 61.0039 37.8916 61.0117 37.8892C64.7612 36.6392 68.0483 34.3472 70.5171 31.2612C73.4082 27.6479 75 23.1094 75 18.4819V15.625C75 12.5234 72.4766 10 69.375 10ZM18.4111 28.9185C16.0503 25.9673 14.75 22.2612 14.75 18.4819V15.625C14.75 14.5913 15.5913 13.75 16.625 13.75H22.5718L24.48 30.9238C24.5918 31.9282 24.7866 32.9092 25.0532 33.8613C22.4312 32.7593 20.1055 31.0361 18.4111 28.9185ZM29.875 70.25V62.625H56.125V70.25H29.875ZM46.3296 43.3271C45.478 43.5229 44.875 44.2808 44.875 45.1543V49.5C44.875 52.6016 47.3984 55.125 50.5 55.125C51.5337 55.125 52.375 55.9663 52.375 57V58.875H33.625V57C33.625 55.9663 34.4663 55.125 35.5 55.125C38.6016 55.125 41.125 52.6016 41.125 49.5V45.1543C41.125 44.2808 40.522 43.5229 39.6704 43.3271C33.5078 41.9092 28.9014 36.7583 28.207 30.5098L26.3447 13.75H59.6553L57.793 30.5098C57.0986 36.7583 52.4922 41.9092 46.3296 43.3271ZM71.25 18.4819C71.25 22.2612 69.9497 25.9673 67.5889 28.9185C65.8188 31.1313 63.5337 32.8433 60.9302 33.9194C61.2056 32.9487 61.4058 31.9487 61.52 30.9238L63.4282 13.75H69.375C70.4087 13.75 71.25 14.5913 71.25 15.625V18.4819Z" fill="url(#paint0_linear_2158_8)"/>
<path d="M50.7632 22.8389L46.5499 22.2412L44.6734 18.5293C44.3545 17.8979 43.7071 17.5 43 17.5C42.293 17.5 41.6456 17.8979 41.3267 18.5293L39.4502 22.2412L35.2364 22.8389C34.525 22.9399 33.9336 23.439 33.7144 24.1235C33.4952 24.8081 33.6866 25.5581 34.2071 26.0532L37.2295 28.9297L36.5181 32.979C36.3951 33.6802 36.6792 34.3906 37.252 34.813C37.8262 35.2358 38.5889 35.2959 39.2208 34.9717L43 33.0317L46.7789 34.9717C47.4122 35.2969 48.1749 35.2354 48.7476 34.813C49.3208 34.3901 49.605 33.6802 49.482 32.979L48.7706 28.9297L51.7925 26.0532C52.3135 25.5576 52.5049 24.8081 52.2857 24.1235C52.0665 23.439 51.4751 22.9399 50.7632 22.8389ZM45.4576 26.9058C45.0025 27.3389 44.7945 27.9702 44.9034 28.5889L45.1358 29.9131L43.856 29.2563C43.3189 28.9805 42.6812 28.9805 42.1436 29.2563L40.8638 29.9131L41.0967 28.5889C41.2051 27.9702 40.9971 27.3389 40.5425 26.9058L39.5987 26.0078L40.9458 25.8164C41.5528 25.7305 42.0791 25.353 42.3555 24.8062L43 23.5312L43.6441 24.8057C43.9209 25.353 44.4473 25.7305 45.0542 25.8164L46.4014 26.0073L45.4576 26.9058Z" fill="url(#paint1_linear_2158_8)"/>
<defs>
<linearGradient id="paint0_linear_2158_8" x1="75" y1="10" x2="11" y2="74" gradientUnits="userSpaceOnUse">
<stop stop-color="#DAC597"/>
<stop offset="0.50272" stop-color="#ECDDBE"/>
<stop offset="1" stop-color="#977F50"/>
</linearGradient>
<linearGradient id="paint1_linear_2158_8" x1="75" y1="10" x2="11" y2="74" gradientUnits="userSpaceOnUse">
<stop stop-color="#DAC597"/>
<stop offset="0.50272" stop-color="#ECDDBE"/>
<stop offset="1" stop-color="#977F50"/>
</linearGradient>
</defs>
</svg>
