<svg width="85" height="85" viewBox="0 0 85 85" fill="none" xmlns="http://www.w3.org/2000/svg">
<path d="M28.5233 53.9388C30.2037 52.6016 30.4752 50.1377 29.1366 48.4637C27.7932 46.7852 25.3267 46.5139 23.6511 47.8511L17.4683 52.7934C15.7879 54.1305 15.5166 56.5994 16.855 58.2731C18.1936 59.9471 20.6649 60.223 22.3405 58.8811M22.3405 58.8811L31.2481 51.7647C32.9238 50.4276 35.395 50.7033 36.7337 52.3771C38.0723 54.0511 37.8008 56.5153 36.1206 57.8572L27.2178 64.9688M22.3405 58.8811C20.6651 60.223 20.3896 62.6872 21.7328 64.3609C23.0716 66.0347 25.5376 66.3107 27.2178 64.9688M27.2178 64.9688C25.5376 66.3107 25.2661 68.7749 26.6047 70.4486C27.9433 72.1272 30.4145 72.3983 32.0902 71.0611M32.0902 71.0611L38.273 66.119C39.9532 64.7817 40.2247 62.313 38.8861 60.6391C37.5429 58.9653 35.0764 58.6894 33.4006 60.0313M32.0902 71.0611C30.4146 72.3983 30.1393 74.8672 31.4823 76.541C32.8211 78.2148 35.2876 78.4907 36.9678 77.1488L40.4267 74.3808C42.1023 73.0437 42.3785 70.5795 41.0398 68.9057C39.6967 67.2271 37.2301 66.956 35.5544 68.2931M57.81 55.3509L62.2283 58.8811M62.2283 58.8811C63.9037 60.223 64.18 62.6872 62.8414 64.361C61.498 66.0347 59.0313 66.3107 57.3559 64.9688M62.2283 58.8811C63.9037 60.223 66.3746 59.947 67.7134 58.2731C69.0564 56.5995 68.7805 54.1305 67.1047 52.7934L61.7457 48.5104C59.1433 46.4344 56.2041 44.134 53.4146 42.1328C48.369 38.5185 45.8838 36.1153 39.5605 37.387C34.7817 38.3503 30.9157 36.8913 29.9094 32.7535C29.2635 30.093 31.5287 28.8539 36.0174 28.4565L43.1785 27.8159C44.5919 27.6897 45.4343 27.5589 47.723 28.3584L52.0431 29.8686C54.9637 30.8878 54.5706 31.159 57.6081 30.2801L62.0454 28.9943M57.3559 64.9688L52.5632 61.1442M57.3559 64.9688C59.0315 66.3107 59.3073 68.7748 57.9639 70.4488C56.6253 72.1272 54.1542 72.3983 52.4784 71.0612L47.6903 67.2318L50.082 69.1441C51.7576 70.486 52.0338 72.9502 50.6951 74.6241C49.3519 76.3027 46.8853 76.5738 45.2097 75.2365L41.7274 72.4545M79.7183 39.9679L82.5874 45.0364C83.252 46.2146 82.8354 47.7342 81.6514 48.3889L77.2284 50.8389C76.0442 51.4936 74.537 51.0821 73.8726 49.9085L61.1229 27.3578C60.4537 26.1794 60.8703 24.6644 62.0543 24.0101L66.4821 21.5599C67.6662 20.9054 69.1686 21.3122 69.8333 22.4903L72.4215 27.0633M66.791 52.5408C67.8347 50.2873 70.1095 48.618 72.7211 47.8698M29.9231 31.1123L22.5326 28.9709M17.7832 52.5408C16.7347 50.2873 14.4601 48.618 11.8484 47.8698M42.2847 15.4114V7M31.2666 18.8948L26.8669 11.9141M53.3069 18.8948L57.7018 11.9141M76.0639 33.5203V33.5148M22.5137 24.01L18.0908 21.5598C16.9067 20.9053 15.3995 21.3122 14.7349 22.4904L1.98545 45.0364C1.31607 46.2147 1.73282 47.7343 2.91671 48.3888L7.33985 50.8388C8.5239 51.4935 10.0311 51.082 10.6957 49.9085L23.4453 27.3577C24.1144 26.1795 23.698 24.6645 22.5137 24.01Z" stroke="url(#paint0_linear_2158_9)" stroke-width="2.8125" stroke-miterlimit="10" stroke-linecap="round" stroke-linejoin="round"/>
<defs>
<linearGradient id="paint0_linear_2158_9" x1="82.9036" y1="7" x2="12.5428" y2="87.5061" gradientUnits="userSpaceOnUse">
<stop stop-color="#DAC597"/>
<stop offset="0.50272" stop-color="#ECDDBE"/>
<stop offset="1" stop-color="#977F50"/>
</linearGradient>
</defs>
</svg>
